<svg xmlns="http://www.w3.org/2000/svg" width="24" height="24" viewBox="0 0 24 24">
  <g id="kitchen" transform="translate(-3763 -648)">
    <path id="cooking_FILL1_wght300_GRAD0_opsz40" d="M119.233,270.98v-3.326a.384.384,0,0,0-.4-.4H110v-1.63h8.832a2.046,2.046,0,0,1,2.029,2.029v3.326Zm3.908,0v-3.326a2.046,2.046,0,0,1,2.029-2.029H134v1.63H125.17a.384.384,0,0,0-.4.4v3.326Zm-8.757-7.468a3.4,3.4,0,0,1-3.41-3.41v-4.732h22.054V260.1a3.4,3.4,0,0,1-3.41,3.41Zm-3.41-9.938v-1.63h7.618v-1.081a.994.994,0,0,1,1.021-1.015h4.778a.994.994,0,0,1,1.021,1.015v1.081h7.618v1.63Z" transform="translate(3652.998 399.586)" fill="#09212b"/>
    <path id="Path_23" data-name="Path 23" d="M0,0H24V24H0Z" transform="translate(3763 648)" fill="none"/>
  </g>
</svg>
