<svg xmlns="http://www.w3.org/2000/svg" width="13.181" height="11.986" viewBox="0 0 13.181 11.986">
  <path id="message" d="M103.816,201.817a.613.613,0,1,0-.434-.179A.592.592,0,0,0,103.816,201.817Zm2.775,0a.613.613,0,1,0-.434-.179A.592.592,0,0,0,106.591,201.817Zm2.775,0a.613.613,0,1,0-.434-.179A.592.592,0,0,0,109.366,201.817ZM100,207.346V197.255A1.244,1.244,0,0,1,101.255,196h10.672a1.244,1.244,0,0,1,1.254,1.254v7.9a1.244,1.244,0,0,1-1.254,1.254h-9.472l-1.389,1.389a.574.574,0,0,1-.681.134A.585.585,0,0,1,100,207.346Z" transform="translate(-100.001 -196.001)" fill="#fff"/>
</svg>
