<svg xmlns="http://www.w3.org/2000/svg" width="24.001" height="16.631" viewBox="0 0 24.001 16.631">
  <path id="white_header_menu" d="M111.677,336.238a1.286,1.286,0,1,1,0-2.572H133.1a1.286,1.286,0,0,1,0,2.572Zm0-7.02a1.286,1.286,0,1,1,0-2.572H133.1a1.286,1.286,0,0,1,0,2.572Zm0-7.02a1.3,1.3,0,0,1-.914-2.214,1.234,1.234,0,0,1,.914-.377H133.1a1.225,1.225,0,0,1,.914.383,1.282,1.282,0,0,1,.372.927,1.232,1.232,0,0,1-.372.913,1.25,1.25,0,0,1-.914.368Z" transform="translate(-110.391 -319.607)" fill="#fff"/>
</svg>
