<svg xmlns="http://www.w3.org/2000/svg" width="24" height="24" viewBox="0 0 24 24">
  <g id="bedroom" transform="translate(-3783 -679)">
    <path id="bed_FILL1_wght300_GRAD0_opsz40" d="M100,351.792V344.61a3.038,3.038,0,0,1,.322-1.337,2.462,2.462,0,0,1,.941-1.045v-3.281A2.905,2.905,0,0,1,104.208,336h5.676a2.464,2.464,0,0,1,1.2.292,2.874,2.874,0,0,1,.914.791,2.9,2.9,0,0,1,.908-.791,2.426,2.426,0,0,1,1.2-.292h5.676a2.867,2.867,0,0,1,2.1.851,2.834,2.834,0,0,1,.857,2.094v3.281a2.462,2.462,0,0,1,.941,1.045A3.038,3.038,0,0,1,124,344.61v7.182h-1.587v-2.526H101.588v2.526Zm12.793-10.032h8.356v-2.813a1.3,1.3,0,0,0-.4-.97,1.342,1.342,0,0,0-.973-.387h-5.723a1.162,1.162,0,0,0-.9.4,1.379,1.379,0,0,0-.363.953Zm-9.943,0h8.356v-2.813a1.379,1.379,0,0,0-.363-.953,1.162,1.162,0,0,0-.9-.4h-5.736a1.356,1.356,0,0,0-1.357,1.357Z" transform="translate(3682.999 346.997)" fill="#09212b"/>
    <path id="Path_22" data-name="Path 22" d="M0,0H24V24H0Z" transform="translate(3783 679)" fill="none"/>
  </g>
</svg>
