<svg id="call" xmlns="http://www.w3.org/2000/svg" width="15.315" height="15.315" viewBox="0 0 15.315 15.315">
  <path id="Path_945" data-name="Path 945" d="M0,0H15.315V15.315H0Z" fill="none"/>
  <path id="Path_946" data-name="Path 946" d="M12.671,10.3l-1.512-.173a1.185,1.185,0,0,0-.976.339l-1.1,1.1A8.955,8.955,0,0,1,5.165,7.641l1.1-1.1a1.185,1.185,0,0,0,.339-.976l-.173-1.5A1.191,1.191,0,0,0,5.249,3.01H4.219a1.181,1.181,0,0,0-1.19,1.232A10.114,10.114,0,0,0,12.487,13.7a1.181,1.181,0,0,0,1.232-1.19V11.48A1.18,1.18,0,0,0,12.671,10.3Z" transform="translate(-0.709 -0.705)" fill="#fff"/>
</svg>
