<svg xmlns="http://www.w3.org/2000/svg" width="60.3" height="60.3" viewBox="0 0 60.3 60.3">
  <g id="light_blue_bg_palm_land_logo" transform="translate(-451.9 -736.6)">
    <path id="Path_438" data-name="Path 438" d="M509.4,796.9H454.7a2.862,2.862,0,0,1-2.8-2.8V739.4a2.862,2.862,0,0,1,2.8-2.8h54.7a2.862,2.862,0,0,1,2.8,2.8v54.7A2.8,2.8,0,0,1,509.4,796.9Z" fill="#d7f1f4"/>
    <g id="Group_198" data-name="Group 198">
      <g id="Group_194" data-name="Group 194">
        <g id="Group_193" data-name="Group 193">
          <path id="Path_439" data-name="Path 439" d="M482.1,754.1l18.1,14.7s-.4-6.7-4.6-9.7S482.1,754.1,482.1,754.1Z" fill="#09212b"/>
          <path id="Path_440" data-name="Path 440" d="M482.1,754.1l17.8-.6s-3.6-3.7-7.5-3.3C488.4,750.5,482.1,754.1,482.1,754.1Z" fill="#09212b"/>
          <path id="Path_441" data-name="Path 441" d="M482.1,754.1,489,747s-2.8-.1-4.3,1.5S482.1,754.1,482.1,754.1Z" fill="#09212b"/>
          <path id="Path_442" data-name="Path 442" d="M482.1,754.1,464,768.8s.5-6.9,4.8-9.9S482.1,754.1,482.1,754.1Z" fill="#09212b"/>
          <path id="Path_443" data-name="Path 443" d="M482,754.1l-17.8-.6s3.6-3.5,7.5-3.3C475.7,750.4,482,754.1,482,754.1Z" fill="#09212b"/>
          <path id="Path_444" data-name="Path 444" d="M482,754.1l-7.1-6.8s3-.3,4.5,1.3S482,754.1,482,754.1Z" fill="#09212b"/>
        </g>
        <rect id="Rectangle_55" data-name="Rectangle 55" width="3.9" height="8.6" transform="translate(480.1 765.8)" fill="#09212b"/>
      </g>
      <g id="Group_197" data-name="Group 197">
        <g id="Group_195" data-name="Group 195">
          <path id="Path_445" data-name="Path 445" d="M468.3,779.7a1.483,1.483,0,0,1,.7.1,1.332,1.332,0,0,1,.5.3,1.38,1.38,0,0,1,.3.4.9.9,0,0,1,.1.5.749.749,0,0,1-.1.5,1.382,1.382,0,0,1-.3.4,2.186,2.186,0,0,1-.5.3,1.483,1.483,0,0,1-.7.1h-.6v1.4H467v-3.9h1.3Zm0,2a.6.6,0,0,0,.4-.1c.1,0,.2-.1.3-.2l.2-.2c0-.1.1-.2.1-.3a.367.367,0,0,0-.1-.3.215.215,0,0,0-.2-.2.367.367,0,0,0-.3-.1c-.1,0-.2-.1-.4-.1h-.6v1.5h.6Z" fill="#09212b"/>
          <path id="Path_446" data-name="Path 446" d="M473.2,783.7h-.6l-.1-.1-.3-.9h-1.7l-.3.9a.1.1,0,0,1-.1.1h-.6l1.6-3.9h.6Zm-1.2-1.5-.5-1.4c0-.1-.1-.3-.1-.4,0,.1,0,.2-.1.2,0,.1,0,.1-.1.2l-.5,1.4Z" fill="#09212b"/>
          <path id="Path_447" data-name="Path 447" d="M476,783.1v.5h-2.3v-3.9h.6v3.4Z" fill="#09212b"/>
          <path id="Path_448" data-name="Path 448" d="M480.7,779.7v3.9h-.6v-2.9l-1.3,2.3c0,.1-.1.1-.2.1h-.1c-.1,0-.2,0-.2-.1l-1.3-2.3v3h-.6v-3.9h.6a.1.1,0,0,1,.1.1l1.3,2.3c0,.1.1.1.1.2s0,.1.1.2c0-.1,0-.1.1-.2,0-.1.1-.1.1-.2l1.2-2.3a.1.1,0,0,1,.1-.1h.6Z" fill="#09212b"/>
          <path id="Path_449" data-name="Path 449" d="M485.2,783.1v.5h-2.3v-3.9h.6v3.4Z" fill="#09212b"/>
          <path id="Path_450" data-name="Path 450" d="M489.4,783.7h-.6l-.1-.1-.3-.9h-1.7l-.3.9a.1.1,0,0,1-.1.1h-.6l1.6-3.9h.6Zm-1.2-1.5-.5-1.4c0-.1-.1-.3-.1-.4,0,.1,0,.2-.1.2,0,.1,0,.1-.1.2l-.5,1.4Z" fill="#09212b"/>
          <path id="Path_451" data-name="Path 451" d="M493.1,779.7v3.9h-.4a.1.1,0,0,1-.1-.1l-2.2-2.8v2.9h-.6v-3.9h.5v.1l2.2,2.8v-3h.6Z" fill="#09212b"/>
          <path id="Path_452" data-name="Path 452" d="M497.2,781.7a1.949,1.949,0,0,1-.1.8,1.839,1.839,0,0,1-1,1,1.95,1.95,0,0,1-.8.1h-1.5v-3.9h1.5a1.95,1.95,0,0,1,.8.1,1.839,1.839,0,0,1,1,1C497.1,781.1,497.2,781.4,497.2,781.7Zm-.7,0a1.268,1.268,0,0,0-.1-.6,1.332,1.332,0,0,0-.3-.5c-.1-.1-.3-.2-.4-.3a.9.9,0,0,0-.5-.1h-.8v2.9h.8a.75.75,0,0,0,.5-.1,1.38,1.38,0,0,0,.4-.3,2.184,2.184,0,0,0,.3-.5A.75.75,0,0,0,496.5,781.7Z" fill="#09212b"/>
        </g>
        <g id="Group_196" data-name="Group 196">
          <path id="Path_453" data-name="Path 453" d="M474.6,786.4h-.3l-.3-.4h-.1v.5h-.2v-1.2h.5c.1,0,.1,0,.1.1l.1.1v.2a.1.1,0,0,1-.1.1l-.1.1h-.1l.1.1Zm-.5-.6h.2l.1-.1c.1-.1,0-.1,0-.1,0-.1,0-.1-.1-.2a.349.349,0,0,0-.2-.1h-.2v.4h.2Z" fill="#09212b"/>
          <path id="Path_454" data-name="Path 454" d="M476.2,786.3v.1h-.7v-1.2h.7v.1h-.6v.4h.5v.1h-.5v.4h.6Z" fill="#09212b"/>
          <path id="Path_455" data-name="Path 455" d="M478.1,786.4H478l-.1-.3h-.5l-.1.3h-.1l.5-1.2h.2Zm-.4-.4-.2-.5v.1l-.2.5h.4Z" fill="#09212b"/>
          <path id="Path_456" data-name="Path 456" d="M479.6,786.3v.1h-.7v-1.2h.2v1h.5Z" fill="#09212b"/>
          <path id="Path_457" data-name="Path 457" d="M482.2,786.3v.1h-.7v-1.2h.7v.1h-.6v.4h.5v.1h-.5v.4h.6Z" fill="#09212b"/>
          <path id="Path_458" data-name="Path 458" d="M483.7,785.4h0c-.1.1-.1,0,0,0h-.5v.3l.1.1h.3a.1.1,0,0,1,.1.1.1.1,0,0,0,.1.1v.2a.1.1,0,0,1-.1.1l-.1.1h-.5a.1.1,0,0,1-.1-.1l.1-.1h.5v-.3l-.1-.1h-.3a.1.1,0,0,1-.1-.1.1.1,0,0,0-.1-.1v-.2a.1.1,0,0,1,.1-.1l.1-.1h.4c0,.1.1.1.1.2Z" fill="#09212b"/>
          <path id="Path_459" data-name="Path 459" d="M485.5,785.4h-.4v1h-.2v-1h-.4v-.1h.9v.1Z" fill="#09212b"/>
          <path id="Path_460" data-name="Path 460" d="M487.2,786.4H487l-.1-.3h-.5l-.1.3H486l.5-1.2h.2Zm-.4-.4-.2-.5v.1l-.2.5h.4Z" fill="#09212b"/>
          <path id="Path_461" data-name="Path 461" d="M488.8,785.4h-.4v1h-.2v-1h-.4v-.1h.9v.1Z" fill="#09212b"/>
          <path id="Path_462" data-name="Path 462" d="M490.4,786.3v.1h-.7v-1.2h.7v.1h-.6v.4h.5v.1h-.5v.4h.6Z" fill="#09212b"/>
        </g>
      </g>
    </g>
  </g>
</svg>
