<svg xmlns="http://www.w3.org/2000/svg" width="59.315" height="64.724" viewBox="0 0 59.315 64.724">
  <g id="light_blue_palm_land_logo" transform="translate(-471.726 -753.639)">
    <g id="Group_198" data-name="Group 198" transform="translate(471.726 753.639)">
      <g id="Group_194" data-name="Group 194">
        <g id="Group_193" data-name="Group 193">
          <path id="Path_439" data-name="Path 439" d="M482.1,754.1l29.658,24.087s-.655-10.978-7.537-15.894S482.1,754.1,482.1,754.1Z" transform="translate(-452.443 -742.464)" fill="#d7f1f4"/>
          <path id="Path_440" data-name="Path 440" d="M482.1,756.61l29.166-.983s-5.9-6.063-12.289-5.407C492.423,750.711,482.1,756.61,482.1,756.61Z" transform="translate(-452.443 -744.974)" fill="#d7f1f4"/>
          <path id="Path_441" data-name="Path 441" d="M482.1,758.634,493.406,747s-4.588-.164-7.046,2.458S482.1,758.634,482.1,758.634Z" transform="translate(-452.443 -746.999)" fill="#d7f1f4"/>
          <path id="Path_442" data-name="Path 442" d="M493.657,754.1,464,778.187s.819-11.306,7.865-16.222S493.657,754.1,493.657,754.1Z" transform="translate(-464 -742.464)" fill="#d7f1f4"/>
          <path id="Path_443" data-name="Path 443" d="M493.366,756.6l-29.166-.983s5.9-5.735,12.289-5.407C483.043,750.533,493.366,756.6,493.366,756.6Z" transform="translate(-463.872 -744.96)" fill="#d7f1f4"/>
          <path id="Path_444" data-name="Path 444" d="M486.534,758.456,474.9,747.314s4.916-.492,7.373,2.13S486.534,758.456,486.534,758.456Z" transform="translate(-457.04 -746.821)" fill="#d7f1f4"/>
        </g>
        <rect id="Rectangle_55" data-name="Rectangle 55" width="6.39" height="14.091" transform="translate(26.38 30.806)" fill="#d7f1f4"/>
      </g>
      <g id="Group_197" data-name="Group 197" transform="translate(4.916 53.418)">
        <g id="Group_195" data-name="Group 195">
          <path id="Path_445" data-name="Path 445" d="M469.13,779.7a2.432,2.432,0,0,1,1.147.164,2.184,2.184,0,0,1,.819.492,2.259,2.259,0,0,1,.492.655,1.477,1.477,0,0,1,.164.819,1.227,1.227,0,0,1-.164.819,2.261,2.261,0,0,1-.492.656,3.582,3.582,0,0,1-.819.492,2.43,2.43,0,0,1-1.147.164h-.983v2.294H467v-6.39h2.13Zm0,3.277a.985.985,0,0,0,.655-.164c.164,0,.328-.164.492-.328l.328-.328c0-.164.164-.328.164-.492a.6.6,0,0,0-.164-.491.352.352,0,0,0-.328-.328.6.6,0,0,0-.492-.164c-.164,0-.328-.164-.655-.164h-.983v2.458Z" transform="translate(-467 -779.536)" fill="#d7f1f4"/>
          <path id="Path_446" data-name="Path 446" d="M475.563,786.19h-.983l-.164-.164-.492-1.475h-2.786l-.492,1.475a.16.16,0,0,1-.164.164H469.5l2.622-6.39h.983Zm-1.966-2.458-.819-2.294c0-.164-.164-.492-.164-.656,0,.164,0,.328-.164.328,0,.164,0,.164-.164.328l-.819,2.294Z" transform="translate(-465.404 -779.472)" fill="#d7f1f4"/>
          <path id="Path_447" data-name="Path 447" d="M477.469,785.271v.819H473.7V779.7h.983v5.571Z" transform="translate(-462.722 -779.536)" fill="#d7f1f4"/>
          <path id="Path_448" data-name="Path 448" d="M483.446,779.7v6.39h-.983v-4.752l-2.13,3.769c0,.164-.164.164-.328.164h-.164c-.164,0-.328,0-.328-.164l-2.13-3.769v4.916H476.4v-6.39h.983a.161.161,0,0,1,.164.164l2.13,3.769c0,.164.164.164.164.328s0,.164.164.328c0-.164,0-.164.164-.328,0-.164.164-.164.164-.328l1.966-3.769a.16.16,0,0,1,.164-.164h.983Z" transform="translate(-460.998 -779.536)" fill="#d7f1f4"/>
          <path id="Path_449" data-name="Path 449" d="M486.669,785.271v.819H482.9V779.7h.983v5.571Z" transform="translate(-456.847 -779.536)" fill="#d7f1f4"/>
          <path id="Path_450" data-name="Path 450" d="M491.763,786.19h-.983l-.164-.164-.492-1.475h-2.786l-.492,1.475a.16.16,0,0,1-.164.164H485.7l2.622-6.39h.983Zm-1.966-2.458-.819-2.294c0-.164-.164-.492-.164-.656,0,.164,0,.328-.164.328,0,.164,0,.164-.164.328l-.819,2.294Z" transform="translate(-455.059 -779.472)" fill="#d7f1f4"/>
          <path id="Path_451" data-name="Path 451" d="M495.207,779.764v6.39h-.655a.16.16,0,0,1-.164-.164l-3.6-4.588v4.752H489.8v-6.39h.819v.164l3.6,4.588V779.6h.983Z" transform="translate(-452.441 -779.6)" fill="#d7f1f4"/>
          <path id="Path_452" data-name="Path 452" d="M499.371,782.977a3.194,3.194,0,0,1-.164,1.311,3.013,3.013,0,0,1-1.639,1.639,3.2,3.2,0,0,1-1.311.164H493.8V779.7h2.458a3.2,3.2,0,0,1,1.311.164,3.012,3.012,0,0,1,1.639,1.639C499.207,781.994,499.371,782.486,499.371,782.977Zm-1.147,0a2.079,2.079,0,0,0-.164-.983,2.184,2.184,0,0,0-.492-.819c-.164-.164-.492-.328-.655-.492a1.477,1.477,0,0,0-.819-.164h-1.311v4.752h1.311a1.227,1.227,0,0,0,.819-.164,2.259,2.259,0,0,0,.655-.491,3.58,3.58,0,0,0,.492-.819A1.23,1.23,0,0,0,498.224,782.977Z" transform="translate(-449.887 -779.536)" fill="#d7f1f4"/>
        </g>
        <g id="Group_196" data-name="Group 196" transform="translate(10.978 9.176)">
          <path id="Path_453" data-name="Path 453" d="M475.175,787.1h-.492l-.491-.656h-.164v.819H473.7V785.3h.819c.164,0,.164,0,.164.164l.164.164v.328a.16.16,0,0,1-.164.164l-.164.164h-.164l.164.164Zm-.819-.983h.328l.164-.164c.164-.164,0-.164,0-.164,0-.164,0-.164-.164-.328a.572.572,0,0,0-.328-.164h-.328v.655h.328Z" transform="translate(-473.7 -785.136)" fill="#d7f1f4"/>
          <path id="Path_454" data-name="Path 454" d="M476.647,787v.164H475.5V785.2h1.147v.164h-.983v.656h.819v.164h-.819v.655h.983Z" transform="translate(-472.551 -785.2)" fill="#d7f1f4"/>
          <path id="Path_455" data-name="Path 455" d="M478.675,787.166h-.164l-.164-.492h-.819l-.164.492H477.2l.819-1.966h.328Zm-.655-.656-.328-.819v.164l-.328.819h.655Z" transform="translate(-471.465 -785.2)" fill="#d7f1f4"/>
          <path id="Path_456" data-name="Path 456" d="M480.047,787v.164H478.9V785.2h.328v1.639h.819Z" transform="translate(-470.38 -785.2)" fill="#d7f1f4"/>
          <path id="Path_457" data-name="Path 457" d="M482.647,787v.164H481.5V785.2h1.147v.164h-.983v.656h.819v.164h-.819v.655h.983Z" transform="translate(-468.719 -785.2)" fill="#d7f1f4"/>
          <path id="Path_458" data-name="Path 458" d="M484.147,785.528h0c-.164.164-.164,0,0,0h-.819v.492l.164.164h.492a.16.16,0,0,1,.164.164.16.16,0,0,0,.164.164v.328a.161.161,0,0,1-.164.164l-.164.164h-.819A.16.16,0,0,1,483,787l.164-.164h.819v-.491l-.164-.164h-.492a.16.16,0,0,1-.164-.164.16.16,0,0,0-.164-.164v-.328a.16.16,0,0,1,.164-.164l.164-.164h.655c0,.164.164.164.164.328Z" transform="translate(-467.762 -785.2)" fill="#d7f1f4"/>
          <path id="Path_459" data-name="Path 459" d="M486.139,785.464h-.655V787.1h-.328v-1.639H484.5V785.3h1.475v.164Z" transform="translate(-466.804 -785.136)" fill="#d7f1f4"/>
          <path id="Path_460" data-name="Path 460" d="M487.966,787.166h-.328l-.164-.492h-.819l-.164.492H486l.819-1.966h.328Zm-.655-.656-.328-.819v.164l-.328.819h.655Z" transform="translate(-465.846 -785.2)" fill="#d7f1f4"/>
          <path id="Path_461" data-name="Path 461" d="M489.439,785.464h-.655V787.1h-.328v-1.639H487.8V785.3h1.475v.164Z" transform="translate(-464.697 -785.136)" fill="#d7f1f4"/>
          <path id="Path_462" data-name="Path 462" d="M490.847,787v.164H489.7V785.2h1.147v.164h-.983v.656h.819v.164h-.819v.655h.983Z" transform="translate(-463.483 -785.2)" fill="#d7f1f4"/>
        </g>
      </g>
    </g>
  </g>
</svg>
