<?xml version="1.0" encoding="utf-8"?>
<!-- Generator: Adobe Illustrator 26.0.1, SVG Export Plug-In . SVG Version: 6.00 Build 0)  -->
<svg version="1.1" xmlns="http://www.w3.org/2000/svg" xmlns:xlink="http://www.w3.org/1999/xlink" x="0px" y="0px"
	 viewBox="0 0 379.2 1247.9" style="enable-background:new 0 0 379.2 1247.9;" xml:space="preserve">
<style type="text/css">
	.st0{fill:#09212B;}
	.st1{fill:#EAB258;}
	.st2{font-family:'Lato-Heavy';}
	.st3{font-size:23.3062px;}
	.st4{letter-spacing:2;}
	.st5{font-family:'Lato-Medium';}
	.st6{font-size:9px;}
	.st7{letter-spacing:4;}
	.st8{fill:none;}
	.st9{fill:#97C2CC;}
	.st10{font-family:'Roboto-Regular';}
	.st11{font-size:8px;}
	.st12{letter-spacing:25;}
	.st13{letter-spacing:1;}
	.st14{letter-spacing:3;}
	.st15{fill:#FEDA85;}
	.st16{font-family:'Roboto-Bold';}
	.st17{font-size:12px;}
	.st18{fill:none;stroke:#EAB258;stroke-width:0.4811;stroke-linecap:round;stroke-miterlimit:10;}
	.st19{fill:url(#SVGID_1_);}
	.st20{fill:url(#SVGID_00000129884834043029833050000013389987428731769474_);}
	.st21{fill:url(#SVGID_00000100385111157058722270000004248590756812625048_);}
	.st22{fill:url(#SVGID_00000019652672161960427140000004032607628395235753_);}
	.st23{fill:url(#SVGID_00000096780379222737871070000001814000478535821982_);}
	.st24{fill:url(#SVGID_00000027598965056193935000000014498775203372177081_);}
	.st25{fill:url(#SVGID_00000027581507236436789010000012426286931026726539_);}
	.st26{fill:url(#SVGID_00000136392395727440316790000011692547092984246160_);}
	.st27{opacity:3.000000e-02;}
	.st28{fill:#55C7FF;}
	.st29{opacity:4.000000e-02;}
	.st30{fill:#C7ECF2;}
	.st31{opacity:0.24;}
	.st32{opacity:0.5;}
	.st33{fill:none;stroke:#EAB258;stroke-width:5.000000e-02;stroke-miterlimit:10;stroke-dasharray:2;}
	.st34{fill:none;stroke:#EAB258;stroke-width:5.000000e-02;stroke-miterlimit:10;stroke-dasharray:1.9465,1.9465;}
	.st35{fill:none;stroke:#EAB258;stroke-width:5.000000e-02;stroke-miterlimit:10;stroke-dasharray:2.0162,2.0162;}
	.st36{fill:none;stroke:#EAB258;stroke-width:5.000000e-02;stroke-miterlimit:10;stroke-dasharray:2.0091,2.0091;}
	.st37{fill:none;stroke:#EAB258;stroke-width:5.000000e-02;stroke-miterlimit:10;stroke-dasharray:2.0473,2.0473;}
	.st38{fill:#EBF6F7;}
	.st39{fill:#F2D19B;}
	.st40{fill:#F7E0BC;}
	.st41{fill:#FBF0DE;}
	.st42{fill:#39545D;}
	.st43{fill:#68878F;}
	.st44{fill:#98B9C0;}
	.st45{fill:url(#SVGID_00000131359652262774389150000016886147305325745846_);}
	.st46{fill:url(#SVGID_00000061429740367252163820000017137970187585217437_);}
	.st47{fill:url(#SVGID_00000018200473438282478070000017427313975175522715_);}
	.st48{fill:url(#SVGID_00000121971943838990527570000001946077411324733606_);}
	.st49{fill:url(#SVGID_00000158734386341062719250000013524434173487357845_);}
	.st50{fill:url(#SVGID_00000029026930972604650650000010543924336420084368_);}
	.st51{fill:url(#SVGID_00000101099167591453177510000011231895968436907193_);}
	.st52{fill:#D7F1F4;}
	.st53{font-family:'Lato-Light';}
	.st54{font-family:'Roboto-Medium';}
	.st55{font-family:'Roboto-Light';}
	.st56{font-size:5.3316px;}
	.st57{fill:url(#SVGID_00000050661612447266274660000011682380715909593742_);}
	.st58{fill:url(#SVGID_00000078014191443895774540000009517176451840841866_);}
	.st59{fill:url(#SVGID_00000067222842470706833320000014324997199576285354_);}
	.st60{fill:url(#SVGID_00000034779464452794698690000017097581860678450582_);}
	.st61{fill:url(#SVGID_00000043423770152885546620000004570984438157648061_);}
	.st62{fill:url(#SVGID_00000017502502054982039560000011408442809384636594_);}
	.st63{fill:url(#SVGID_00000166651157689101052090000014536155920916219016_);}
	.st64{opacity:0.5;fill:none;stroke:#EAB258;stroke-width:5.000000e-02;stroke-miterlimit:10;stroke-dasharray:2;}
	.st65{fill:url(#SVGID_00000121249813666988488280000010774786966222749621_);}
	.st66{fill:url(#SVGID_00000079479619276547000860000013990677677413577656_);}
	.st67{fill:url(#SVGID_00000051383280031035587820000018121624176760157630_);}
	.st68{fill:url(#SVGID_00000049201776105253043730000007337873260893943438_);}
	.st69{fill:url(#SVGID_00000100357162950949233820000007433103358835830698_);}
	.st70{fill:url(#SVGID_00000111177523175562882740000006776710473948988300_);}
	.st71{fill:url(#SVGID_00000079467686199352504420000003095716978756664199_);}
</style>
<g id="PRINT_2">
</g>
<g id="PRINT_1">
	<rect x="-8.5" y="-8.5" class="st0" width="396.2" height="1264.9"/>
	<g>
		<text transform="matrix(1 0 0 1 48.4244 74.8838)"><tspan x="0" y="0" class="st1 st2 st3">Palm</tspan><tspan x="58.2" y="0" class="st1 st2 st3 st4"> L</tspan><tspan x="78.8" y="0" class="st1 st2 st3">and</tspan></text>
		<text transform="matrix(1 0 0 1 49.3975 87.2844)" class="st1 st5 st6 st7">Real Estate</text>
		<g>
			<rect x="48.3" y="136.7" class="st8" width="284.7" height="184"/>
			<text transform="matrix(1 0 0 1 48.3375 142.7495)"><tspan x="0" y="0" class="st9 st10 st11 st12">	</tspan><tspan x="27.3" y="0" class="st9 st10 st11">Palm</tspan><tspan x="45.7" y="0" class="st9 st10 st11 st4"> </tspan><tspan x="49.8" y="0" class="st9 st10 st11">Land</tspan><tspan x="67.4" y="0" class="st9 st10 st11 st4"> </tspan><tspan x="71.5" y="0" class="st9 st10 st11">Real</tspan><tspan x="86.9" y="0" class="st9 st10 st11 st4"> </tspan><tspan x="91" y="0" class="st9 st10 st11">Estate</tspan><tspan x="113.5" y="0" class="st9 st10 st11 st4"> </tspan><tspan x="117.6" y="0" class="st9 st10 st11">is</tspan><tspan x="123.6" y="0" class="st9 st10 st11 st4"> </tspan><tspan x="127.7" y="0" class="st9 st10 st11">a</tspan><tspan x="132.1" y="0" class="st9 st10 st11 st4"> </tspan><tspan x="136.2" y="0" class="st9 st10 st11">company</tspan><tspan x="169" y="0" class="st9 st10 st11 st4"> </tspan><tspan x="173.1" y="0" class="st9 st10 st11">that</tspan><tspan x="187" y="0" class="st9 st10 st11 st4"> </tspan><tspan x="191.1" y="0" class="st9 st10 st11">specializes</tspan><tspan x="230.7" y="0" class="st9 st10 st11 st4"> </tspan><tspan x="234.8" y="0" class="st9 st10 st11">in</tspan><tspan x="241.1" y="0" class="st9 st10 st11 st4"> </tspan><tspan x="245.2" y="0" class="st9 st10 st11">real</tspan><tspan x="258.4" y="0" class="st9 st10 st11 st4"> </tspan><tspan x="262.5" y="0" class="st9 st10 st11">estate </tspan><tspan x="0" y="9.6" class="st9 st10 st11">services,</tspan><tspan x="31" y="9.6" class="st9 st10 st11"> </tspan><tspan x="33.4" y="9.6" class="st9 st10 st11">including</tspan><tspan x="65.6" y="9.6" class="st9 st10 st11"> </tspan><tspan x="68" y="9.6" class="st9 st10 st11">property</tspan><tspan x="97.6" y="9.6" class="st9 st10 st11"> </tspan><tspan x="99.9" y="9.6" class="st9 st10 st11">management,</tspan><tspan x="148.6" y="9.6" class="st9 st10 st11"> </tspan><tspan x="151" y="9.6" class="st9 st10 st11">investment,</tspan><tspan x="192.1" y="9.6" class="st9 st10 st11"> </tspan><tspan x="194.4" y="9.6" class="st9 st10 st11">buying</tspan><tspan x="218" y="9.6" class="st9 st10 st11"> </tspan><tspan x="220.3" y="9.6" class="st9 st10 st11">on</tspan><tspan x="229.3" y="9.6" class="st9 st10 st11"> </tspan><tspan x="231.7" y="9.6" class="st9 st10 st11">brokerage,</tspan><tspan x="269.1" y="9.6" class="st9 st10 st11"> </tspan><tspan x="271.4" y="9.6" class="st9 st10 st11">and </tspan><tspan x="0" y="19.2" class="st9 st10 st11">selling.</tspan><tspan x="25.2" y="19.2" class="st9 st10 st11"> </tspan><tspan x="26.8" y="19.2" class="st9 st10 st11">The</tspan><tspan x="40.3" y="19.2" class="st9 st10 st11"> </tspan><tspan x="41.9" y="19.2" class="st9 st10 st11">company&apos;s</tspan><tspan x="80.2" y="19.2" class="st9 st10 st11"> </tspan><tspan x="81.9" y="19.2" class="st9 st10 st11">logo</tspan><tspan x="97.4" y="19.2" class="st9 st10 st11"> </tspan><tspan x="99.1" y="19.2" class="st9 st10 st11">is</tspan><tspan x="105.2" y="19.2" class="st9 st10 st11"> </tspan><tspan x="106.8" y="19.2" class="st9 st10 st11">a</tspan><tspan x="111.2" y="19.2" class="st9 st10 st11"> </tspan><tspan x="112.8" y="19.2" class="st9 st10 st11">significant</tspan><tspan x="150" y="19.2" class="st9 st10 st11"> </tspan><tspan x="151.7" y="19.2" class="st9 st10 st11">aspect</tspan><tspan x="175.7" y="19.2" class="st9 st10 st11"> </tspan><tspan x="177.3" y="19.2" class="st9 st10 st11">of</tspan><tspan x="184.7" y="19.2" class="st9 st10 st11"> </tspan><tspan x="186.3" y="19.2" class="st9 st10 st11">its</tspan><tspan x="195" y="19.2" class="st9 st10 st11"> </tspan><tspan x="196.6" y="19.2" class="st9 st10 st11">brand</tspan><tspan x="217.1" y="19.2" class="st9 st10 st11"> </tspan><tspan x="218.8" y="19.2" class="st9 st10 st11">identity</tspan><tspan x="244.8" y="19.2" class="st9 st10 st11"> </tspan><tspan x="246.5" y="19.2" class="st9 st10 st11">and</tspan><tspan x="259.7" y="19.2" class="st9 st10 st11"> </tspan><tspan x="261.4" y="19.2" class="st9 st10 st11">serves </tspan><tspan x="0" y="28.8" class="st9 st10 st11">as</tspan><tspan x="8.5" y="28.8" class="st9 st10 st11"> </tspan><tspan x="10.7" y="28.8" class="st9 st10 st11">a</tspan><tspan x="15.1" y="28.8" class="st9 st10 st11"> </tspan><tspan x="17.4" y="28.8" class="st9 st10 st11">symbol</tspan><tspan x="43.3" y="28.8" class="st9 st10 st11"> </tspan><tspan x="45.6" y="28.8" class="st9 st10 st11">of</tspan><tspan x="52.9" y="28.8" class="st9 st10 st11"> </tspan><tspan x="55.2" y="28.8" class="st9 st10 st11">its</tspan><tspan x="63.8" y="28.8" class="st9 st10 st11"> </tspan><tspan x="66.1" y="28.8" class="st9 st10 st11">values,</tspan><tspan x="90.6" y="28.8" class="st9 st10 st11"> </tspan><tspan x="92.9" y="28.8" class="st9 st10 st11">mission,</tspan><tspan x="122.6" y="28.8" class="st9 st10 st11"> </tspan><tspan x="124.9" y="28.8" class="st9 st10 st11">and</tspan><tspan x="138.1" y="28.8" class="st9 st10 st11"> </tspan><tspan x="140.4" y="28.8" class="st9 st10 st11">vision.</tspan><tspan x="163.4" y="28.8" class="st9 st10 st11"> </tspan><tspan x="165.6" y="28.8" class="st9 st10 st11">The</tspan><tspan x="179.1" y="28.8" class="st9 st10 st11"> </tspan><tspan x="181.3" y="28.8" class="st9 st10 st11">logo</tspan><tspan x="196.9" y="28.8" class="st9 st10 st11"> </tspan><tspan x="199.2" y="28.8" class="st9 st10 st11">features</tspan><tspan x="228.6" y="28.8" class="st9 st10 st11"> </tspan><tspan x="230.9" y="28.8" class="st9 st10 st11">a</tspan><tspan x="235.2" y="28.8" class="st9 st10 st11"> </tspan><tspan x="237.5" y="28.8" class="st9 st10 st11">stylized</tspan><tspan x="264.6" y="28.8" class="st9 st10 st11"> </tspan><tspan x="266.9" y="28.8" class="st9 st10 st11">palm </tspan><tspan x="0" y="38.4" class="st9 st10 st11">tree,</tspan><tspan x="15.4" y="38.4" class="st9 st10 st11"> </tspan><tspan x="18" y="38.4" class="st9 st10 st11">which</tspan><tspan x="38.9" y="38.4" class="st9 st10 st11"> </tspan><tspan x="41.5" y="38.4" class="st9 st10 st11">is</tspan><tspan x="47.6" y="38.4" class="st9 st10 st11"> </tspan><tspan x="50.1" y="38.4" class="st9 st10 st11">a</tspan><tspan x="54.5" y="38.4" class="st9 st10 st11"> </tspan><tspan x="57.1" y="38.4" class="st9 st10 st11">well-known</tspan><tspan x="96.9" y="38.4" class="st9 st10 st11"> </tspan><tspan x="99.5" y="38.4" class="st9 st10 st11">symbol</tspan><tspan x="125.4" y="38.4" class="st9 st10 st11"> </tspan><tspan x="128" y="38.4" class="st9 st10 st11">of</tspan><tspan x="135.3" y="38.4" class="st9 st10 st11"> </tspan><tspan x="137.9" y="38.4" class="st9 st10 st11">prosperity,</tspan><tspan x="175.1" y="38.4" class="st9 st10 st11"> </tspan><tspan x="177.7" y="38.4" class="st9 st10 st11">growth,</tspan><tspan x="204.1" y="38.4" class="st9 st10 st11"> </tspan><tspan x="206.6" y="38.4" class="st9 st10 st11">and</tspan><tspan x="219.9" y="38.4" class="st9 st10 st11"> </tspan><tspan x="222.5" y="38.4" class="st9 st10 st11">tropical</tspan><tspan x="249.3" y="38.4" class="st9 st10 st11"> </tspan><tspan x="251.9" y="38.4" class="st9 st10 st11">paradise. </tspan><tspan x="0" y="48" class="st9 st10 st11">The</tspan><tspan x="13.4" y="48" class="st9 st10 st11"> </tspan><tspan x="16.3" y="48" class="st9 st10 st11">palm</tspan><tspan x="34.1" y="48" class="st9 st10 st11"> </tspan><tspan x="37.1" y="48" class="st9 st10 st11">tree</tspan><tspan x="50.9" y="48" class="st9 st10 st11"> </tspan><tspan x="53.8" y="48" class="st9 st10 st11">is</tspan><tspan x="59.8" y="48" class="st9 st10 st11"> </tspan><tspan x="62.8" y="48" class="st9 st10 st11">depicted</tspan><tspan x="93.5" y="48" class="st9 st10 st11"> </tspan><tspan x="96.4" y="48" class="st9 st10 st11">in</tspan><tspan x="102.8" y="48" class="st9 st10 st11"> </tspan><tspan x="105.7" y="48" class="st9 st10 st11">a</tspan><tspan x="110" y="48" class="st9 st10 st11"> </tspan><tspan x="113" y="48" class="st9 st10 st11">bold</tspan><tspan x="128.5" y="48" class="st9 st10 st11"> </tspan><tspan x="131.4" y="48" class="st9 st10 st11">and</tspan><tspan x="144.7" y="48" class="st9 st10 st11"> </tspan><tspan x="147.6" y="48" class="st9 st10 st11">modern</tspan><tspan x="175" y="48" class="st9 st10 st11"> </tspan><tspan x="178" y="48" class="st9 st10 st11">style,</tspan><tspan x="196.2" y="48" class="st9 st10 st11"> </tspan><tspan x="199.2" y="48" class="st9 st10 st11">with</tspan><tspan x="214.1" y="48" class="st9 st10 st11"> </tspan><tspan x="217" y="48" class="st9 st10 st11">a</tspan><tspan x="221.4" y="48" class="st9 st10 st11"> </tspan><tspan x="224.3" y="48" class="st9 st10 st11">sleek,</tspan><tspan x="244.5" y="48" class="st9 st10 st11"> </tspan><tspan x="247.4" y="48" class="st9 st10 st11">minimalist </tspan><tspan x="0" y="57.6" class="st9 st10 st11">design</tspan><tspan x="23.7" y="57.6" class="st9 st10 st11"> </tspan><tspan x="26.6" y="57.6" class="st9 st10 st11">that</tspan><tspan x="40.5" y="57.6" class="st9 st10 st11"> </tspan><tspan x="43.4" y="57.6" class="st9 st10 st11">matches</tspan><tspan x="74.3" y="57.6" class="st9 st10 st11"> </tspan><tspan x="77.1" y="57.6" class="st9 st10 st11">the</tspan><tspan x="88.4" y="57.6" class="st9 st10 st11"> </tspan><tspan x="91.2" y="57.6" class="st9 st10 st11">characters</tspan><tspan x="129.1" y="57.6" class="st9 st10 st11"> </tspan><tspan x="131.9" y="57.6" class="st9 st10 st11">of</tspan><tspan x="139.3" y="57.6" class="st9 st10 st11"> </tspan><tspan x="142.1" y="57.6" class="st9 st10 st11">a</tspan><tspan x="146.5" y="57.6" class="st9 st10 st11"> </tspan><tspan x="149.3" y="57.6" class="st9 st10 st11">house,</tspan><tspan x="172.6" y="57.6" class="st9 st10 st11"> </tspan><tspan x="175.5" y="57.6" class="st9 st10 st11">and</tspan><tspan x="188.7" y="57.6" class="st9 st10 st11"> </tspan><tspan x="191.6" y="57.6" class="st9 st10 st11">represents</tspan><tspan x="229.5" y="57.6" class="st9 st10 st11"> </tspan><tspan x="232.3" y="57.6" class="st9 st10 st11">the</tspan><tspan x="243.6" y="57.6" class="st9 st10 st11"> </tspan><tspan x="246.4" y="57.6" class="st9 st10 st11">company&apos;s </tspan><tspan x="0" y="67.2" class="st9 st10 st11">commitment to innovation and excellence.</tspan><tspan x="0" y="86.4" class="st9 st10 st11 st12">	</tspan><tspan x="27.3" y="86.4" class="st9 st10 st11">The</tspan><tspan x="40.8" y="86.4" class="st9 st10 st11"> </tspan><tspan x="42.9" y="86.4" class="st9 st10 st11">logo&apos;s</tspan><tspan x="64" y="86.4" class="st9 st10 st11"> </tspan><tspan x="66.1" y="86.4" class="st9 st10 st11">use</tspan><tspan x="78.9" y="86.4" class="st9 st10 st11"> </tspan><tspan x="81" y="86.4" class="st9 st10 st11">of</tspan><tspan x="88.4" y="86.4" class="st9 st10 st11"> </tspan><tspan x="90.5" y="86.4" class="st9 st10 st11">Dark</tspan><tspan x="106.9" y="86.4" class="st9 st10 st11"> </tspan><tspan x="109" y="86.4" class="st9 st10 st11">blue</tspan><tspan x="124.1" y="86.4" class="st9 st10 st11"> </tspan><tspan x="126.3" y="86.4" class="st9 st10 st11">and</tspan><tspan x="139.5" y="86.4" class="st9 st10 st11"> </tspan><tspan x="141.7" y="86.4" class="st9 st10 st11">gold</tspan><tspan x="157.2" y="86.4" class="st9 st10 st11"> </tspan><tspan x="159.3" y="86.4" class="st9 st10 st11">convey</tspan><tspan x="184.4" y="86.4" class="st9 st10 st11"> </tspan><tspan x="186.5" y="86.4" class="st9 st10 st11">a</tspan><tspan x="190.9" y="86.4" class="st9 st10 st11"> </tspan><tspan x="193" y="86.4" class="st9 st10 st11">sense</tspan><tspan x="214.2" y="86.4" class="st9 st10 st11"> </tspan><tspan x="216.3" y="86.4" class="st9 st10 st11">of</tspan><tspan x="223.7" y="86.4" class="st9 st10 st11"> </tspan><tspan x="225.8" y="86.4" class="st9 st10 st11">professionalism, </tspan><tspan x="0" y="96" class="st9 st10 st11">luxury,</tspan><tspan x="22.8" y="96" class="st9 st10 st11"> </tspan><tspan x="25.5" y="96" class="st9 st10 st11">sophistication,</tspan><tspan x="77.4" y="96" class="st9 st10 st11"> </tspan><tspan x="80.1" y="96" class="st9 st10 st11">trust,</tspan><tspan x="98.2" y="96" class="st9 st10 st11"> </tspan><tspan x="100.9" y="96" class="st9 st10 st11">and</tspan><tspan x="114.2" y="96" class="st9 st10 st11"> </tspan><tspan x="117" y="96" class="st9 st10 st11">reliability.</tspan><tspan x="151" y="96" class="st9 st10 st11"> </tspan><tspan x="153.7" y="96" class="st9 st10 st11">It</tspan><tspan x="158.5" y="96" class="st9 st10 st11"> </tspan><tspan x="161.2" y="96" class="st9 st10 st11">can</tspan><tspan x="174.2" y="96" class="st9 st10 st11"> </tspan><tspan x="177" y="96" class="st9 st10 st11">also</tspan><tspan x="191.9" y="96" class="st9 st10 st11"> </tspan><tspan x="194.7" y="96" class="st9 st10 st11">communicate</tspan><tspan x="243.6" y="96" class="st9 st10 st11"> </tspan><tspan x="246.4" y="96" class="st9 st10 st11">a</tspan><tspan x="250.7" y="96" class="st9 st10 st11"> </tspan><tspan x="253.5" y="96" class="st9 st10 st11">sense</tspan><tspan x="274.6" y="96" class="st9 st10 st11"> </tspan><tspan x="277.4" y="96" class="st9 st10 st11">of </tspan><tspan x="0" y="105.6" class="st9 st10 st11">confidence</tspan><tspan x="39.5" y="105.6" class="st9 st10 st11 st13"> </tspan><tspan x="43.5" y="105.6" class="st9 st10 st11">and</tspan><tspan x="56.7" y="105.6" class="st9 st10 st11 st13"> </tspan><tspan x="60.7" y="105.6" class="st9 st10 st11">stability.</tspan><tspan x="90.6" y="105.6" class="st9 st10 st11 st13"> </tspan><tspan x="94.6" y="105.6" class="st9 st10 st11">In</tspan><tspan x="101.2" y="105.6" class="st9 st10 st11 st13"> </tspan><tspan x="105.2" y="105.6" class="st9 st10 st11">a</tspan><tspan x="109.5" y="105.6" class="st9 st10 st11 st13"> </tspan><tspan x="113.5" y="105.6" class="st9 st10 st11">real</tspan><tspan x="126.7" y="105.6" class="st9 st10 st11 st13"> </tspan><tspan x="130.7" y="105.6" class="st9 st10 st11">estate</tspan><tspan x="152.9" y="105.6" class="st9 st10 st11 st13"> </tspan><tspan x="156.9" y="105.6" class="st9 st10 st11">context,</tspan><tspan x="185" y="105.6" class="st9 st10 st11 st13"> </tspan><tspan x="189" y="105.6" class="st9 st10 st11">this</tspan><tspan x="202.1" y="105.6" class="st9 st10 st11 st13"> </tspan><tspan x="206.1" y="105.6" class="st9 st10 st11">can</tspan><tspan x="219" y="105.6" class="st9 st10 st11 st13"> </tspan><tspan x="223" y="105.6" class="st9 st10 st11">suggest</tspan><tspan x="251.5" y="105.6" class="st9 st10 st11 st13"> </tspan><tspan x="255.5" y="105.6" class="st9 st10 st11">that</tspan><tspan x="269.5" y="105.6" class="st9 st10 st11 st13"> </tspan><tspan x="273.4" y="105.6" class="st9 st10 st11">the </tspan><tspan x="0" y="115.2" class="st9 st10 st11">company</tspan><tspan x="32.8" y="115.2" class="st9 st10 st11"> </tspan><tspan x="35.6" y="115.2" class="st9 st10 st11">is</tspan><tspan x="41.7" y="115.2" class="st9 st10 st11"> </tspan><tspan x="44.5" y="115.2" class="st9 st10 st11">financially</tspan><tspan x="80.5" y="115.2" class="st9 st10 st11"> </tspan><tspan x="83.4" y="115.2" class="st9 st10 st11">stable,</tspan><tspan x="106.7" y="115.2" class="st9 st10 st11"> </tspan><tspan x="109.5" y="115.2" class="st9 st10 st11">has</tspan><tspan x="122.4" y="115.2" class="st9 st10 st11"> </tspan><tspan x="125.2" y="115.2" class="st9 st10 st11">a</tspan><tspan x="129.5" y="115.2" class="st9 st10 st11"> </tspan><tspan x="132.4" y="115.2" class="st9 st10 st11">strong</tspan><tspan x="155.3" y="115.2" class="st9 st10 st11"> </tspan><tspan x="158.1" y="115.2" class="st9 st10 st11">track</tspan><tspan x="176" y="115.2" class="st9 st10 st11"> </tspan><tspan x="178.8" y="115.2" class="st9 st10 st11">record,</tspan><tspan x="203.3" y="115.2" class="st9 st10 st11"> </tspan><tspan x="206.1" y="115.2" class="st9 st10 st11">and</tspan><tspan x="219.4" y="115.2" class="st9 st10 st11"> </tspan><tspan x="222.2" y="115.2" class="st9 st10 st11">can</tspan><tspan x="235.1" y="115.2" class="st9 st10 st11"> </tspan><tspan x="238" y="115.2" class="st9 st10 st11">be</tspan><tspan x="246.7" y="115.2" class="st9 st10 st11"> </tspan><tspan x="249.5" y="115.2" class="st9 st10 st11">trusted</tspan><tspan x="274.7" y="115.2" class="st9 st10 st11"> </tspan><tspan x="277.5" y="115.2" class="st9 st10 st11">to </tspan><tspan x="0" y="124.8" class="st9 st10 st11">guide clients through the complex process of buying or selling a property. </tspan><tspan x="0" y="144" class="st9 st10 st11 st12">	</tspan><tspan x="27.3" y="144" class="st9 st10 st11">Overall,</tspan><tspan x="53.5" y="144" class="st9 st10 st11 st14"> </tspan><tspan x="58.9" y="144" class="st9 st10 st11">the</tspan><tspan x="70.2" y="144" class="st9 st10 st11 st14"> </tspan><tspan x="75.6" y="144" class="st9 st10 st11">Palm</tspan><tspan x="94" y="144" class="st9 st10 st11 st14"> </tspan><tspan x="99.4" y="144" class="st9 st10 st11">Land</tspan><tspan x="117" y="144" class="st9 st10 st11 st14"> </tspan><tspan x="122.5" y="144" class="st9 st10 st11">Real</tspan><tspan x="137.9" y="144" class="st9 st10 st11 st14"> </tspan><tspan x="143.4" y="144" class="st9 st10 st11">Estate</tspan><tspan x="165.8" y="144" class="st9 st10 st11 st14"> </tspan><tspan x="171.3" y="144" class="st9 st10 st11">minimalistic</tspan><tspan x="214.7" y="144" class="st9 st10 st11 st14"> </tspan><tspan x="220.2" y="144" class="st9 st10 st11">logo</tspan><tspan x="235.7" y="144" class="st9 st10 st11 st14"> </tspan><tspan x="241.2" y="144" class="st9 st10 st11">reflects</tspan><tspan x="268" y="144" class="st9 st10 st11 st14"> </tspan><tspan x="273.4" y="144" class="st9 st10 st11">the </tspan><tspan x="0" y="153.6" class="st9 st10 st11">company&apos;s</tspan><tspan x="38.3" y="153.6" class="st9 st10 st11 st4"> </tspan><tspan x="43" y="153.6" class="st9 st10 st11">values</tspan><tspan x="66" y="153.6" class="st9 st10 st11 st4"> </tspan><tspan x="70.7" y="153.6" class="st9 st10 st11">of</tspan><tspan x="78" y="153.6" class="st9 st10 st11 st4"> </tspan><tspan x="82.8" y="153.6" class="st9 st10 st11">professionalism,</tspan><tspan x="141.6" y="153.6" class="st9 st10 st11 st4"> </tspan><tspan x="146.4" y="153.6" class="st9 st10 st11">reliability,</tspan><tspan x="179.8" y="153.6" class="st9 st10 st11 st4"> </tspan><tspan x="184.6" y="153.6" class="st9 st10 st11">and</tspan><tspan x="197.8" y="153.6" class="st9 st10 st11 st4"> </tspan><tspan x="202.6" y="153.6" class="st9 st10 st11">customer</tspan><tspan x="236.4" y="153.6" class="st9 st10 st11 st4"> </tspan><tspan x="241.1" y="153.6" class="st9 st10 st11">satisfaction, </tspan><tspan x="0" y="163.2" class="st9 st10 st11">making</tspan><tspan x="26.3" y="163.2" class="st9 st10 st11"> </tspan><tspan x="28.9" y="163.2" class="st9 st10 st11">it</tspan><tspan x="33.5" y="163.2" class="st9 st10 st11"> </tspan><tspan x="36.2" y="163.2" class="st9 st10 st11">a</tspan><tspan x="40.5" y="163.2" class="st9 st10 st11"> </tspan><tspan x="43.2" y="163.2" class="st9 st10 st11">recognizable</tspan><tspan x="88.7" y="163.2" class="st9 st10 st11"> </tspan><tspan x="91.4" y="163.2" class="st9 st10 st11">and</tspan><tspan x="104.7" y="163.2" class="st9 st10 st11"> </tspan><tspan x="107.4" y="163.2" class="st9 st10 st11">memorable</tspan><tspan x="147.9" y="163.2" class="st9 st10 st11"> </tspan><tspan x="150.6" y="163.2" class="st9 st10 st11">symbol</tspan><tspan x="176.5" y="163.2" class="st9 st10 st11"> </tspan><tspan x="179.2" y="163.2" class="st9 st10 st11">in</tspan><tspan x="185.6" y="163.2" class="st9 st10 st11"> </tspan><tspan x="188.3" y="163.2" class="st9 st10 st11">the</tspan><tspan x="199.5" y="163.2" class="st9 st10 st11"> </tspan><tspan x="202.2" y="163.2" class="st9 st10 st11">competitive</tspan><tspan x="243.9" y="163.2" class="st9 st10 st11"> </tspan><tspan x="246.6" y="163.2" class="st9 st10 st11">real</tspan><tspan x="259.8" y="163.2" class="st9 st10 st11"> </tspan><tspan x="262.5" y="163.2" class="st9 st10 st11">estate </tspan><tspan x="0" y="172.8" class="st9 st10 st11">industry.</tspan></text>
		</g>
		<text transform="matrix(1 0 0 1 48.3375 115.0398)" class="st15 st16 st17">The Introduction</text>
	</g>
	<g>
		<polyline class="st18" points="188.8,342.8 198.5,342.8 198.5,448.3 188.8,448.3 		"/>
		<line class="st18" x1="198.5" y1="366.3" x2="234.5" y2="366.3"/>
	</g>
	<g>
		<polyline class="st18" points="188.8,461.9 198.5,461.9 198.5,487 188.8,487 		"/>
		<line class="st18" x1="198.5" y1="474.4" x2="234.5" y2="474.4"/>
	</g>
	<g>
		<g>
			<text transform="matrix(1 0 0 1 238.2523 365.218)" class="st15 st16 st17">Logo Symbol</text>
		</g>
		<g>
			<rect x="238.3" y="376.1" class="st8" width="94.6" height="49.5"/>
			<text transform="matrix(1 0 0 1 238.2524 382.0977)"><tspan x="0" y="0" class="st9 st10 st11">Logo with six leaves </tspan><tspan x="0" y="9.6" class="st9 st10 st11">representing the six </tspan><tspan x="0" y="19.2" class="st9 st10 st11">partners and uses the </tspan><tspan x="0" y="28.8" class="st9 st10 st11">golden ratio for balanced </tspan><tspan x="0" y="38.4" class="st9 st10 st11">visual design elements.</tspan></text>
		</g>
	</g>
	<g>
		<g>
			<text transform="matrix(1 0 0 1 238.2523 474.4186)" class="st15 st16 st17">Logo Text</text>
		</g>
		<g>
			<rect x="238.3" y="485.3" class="st8" width="94.6" height="56.9"/>
			<text transform="matrix(1 0 0 1 238.2524 491.2979)"><tspan x="0" y="0" class="st9 st10 st11">The logo&apos;s modern and </tspan><tspan x="0" y="9.6" class="st9 st10 st11">minimalist design is </tspan><tspan x="0" y="19.2" class="st9 st10 st11">complemented by the use </tspan><tspan x="0" y="28.8" class="st9 st10 st11">of the font Lato, known for </tspan><tspan x="0" y="38.4" class="st9 st10 st11">its simplicity and </tspan><tspan x="0" y="48" class="st9 st10 st11">readability.</tspan></text>
		</g>
	</g>
	<g>
		<rect x="-8.5" y="50.4" class="st1" width="46.1" height="44.9"/>
		<line class="st18" x1="-8.5" y1="95.4" x2="333" y2="95.4"/>
	</g>
	<g>
		<g>
			<g>
				<linearGradient id="SVGID_1_" gradientUnits="userSpaceOnUse" x1="124.3773" y1="369.507" x2="185.5596" y2="418.1345">
					<stop  offset="2.770450e-07" style="stop-color:#EAB258"/>
					<stop  offset="1" style="stop-color:#FEDA85"/>
				</linearGradient>
				<path class="st19" d="M118.7,374.6l62.9,51c0,0-1.3-23.2-16-33.8S118.7,374.6,118.7,374.6z"/>
				
					<linearGradient id="SVGID_00000178925177140896052340000008817047572247669145_" gradientUnits="userSpaceOnUse" x1="120.0569" y1="368.2771" x2="179.1173" y2="366.5088">
					<stop  offset="2.770450e-07" style="stop-color:#EAB258"/>
					<stop  offset="1" style="stop-color:#FEDA85"/>
				</linearGradient>
				<path style="fill:url(#SVGID_00000178925177140896052340000008817047572247669145_);" d="M118.8,374.6l61.8-2.1
					c0,0-12.4-12.7-26.1-11.4C140.7,362.2,118.8,374.6,118.8,374.6z"/>
				
					<linearGradient id="SVGID_00000026874372379609929280000005324949467514720429_" gradientUnits="userSpaceOnUse" x1="121.1391" y1="371.8501" x2="136.3463" y2="351.515">
					<stop  offset="2.770450e-07" style="stop-color:#EAB258"/>
					<stop  offset="1" style="stop-color:#FEDA85"/>
				</linearGradient>
				<path style="fill:url(#SVGID_00000026874372379609929280000005324949467514720429_);" d="M118.8,374.6l24.1-24.5
					c0,0-9.8-0.4-14.9,5.4C122.9,361.2,118.8,374.6,118.8,374.6z"/>
				
					<linearGradient id="SVGID_00000050661741254109325240000000641660431736791444_" gradientUnits="userSpaceOnUse" x1="113.6763" y1="369.0607" x2="51.4331" y2="418.3955">
					<stop  offset="2.770450e-07" style="stop-color:#EAB258"/>
					<stop  offset="1" style="stop-color:#FEDA85"/>
				</linearGradient>
				<path style="fill:url(#SVGID_00000050661741254109325240000000641660431736791444_);" d="M118.7,374.6l-62.9,51
					c0,0,1.9-23.8,16.5-34.4S118.7,374.6,118.7,374.6z"/>
				
					<linearGradient id="SVGID_00000061449606951776766420000000271090145331376777_" gradientUnits="userSpaceOnUse" x1="118.2973" y1="368.3067" x2="57.9991" y2="366.5384">
					<stop  offset="2.770450e-07" style="stop-color:#EAB258"/>
					<stop  offset="1" style="stop-color:#FEDA85"/>
				</linearGradient>
				<path style="fill:url(#SVGID_00000061449606951776766420000000271090145331376777_);" d="M118.7,374.6L57,372.5
					c0,0,12.6-12.2,26.1-11.4C96.8,361.8,118.7,374.6,118.7,374.6z"/>
				
					<linearGradient id="SVGID_00000025428072101182823700000012914493637025379975_" gradientUnits="userSpaceOnUse" x1="119.4734" y1="371.1304" x2="97.0163" y2="348.3197">
					<stop  offset="2.770450e-07" style="stop-color:#EAB258"/>
					<stop  offset="1" style="stop-color:#FEDA85"/>
				</linearGradient>
				<path style="fill:url(#SVGID_00000025428072101182823700000012914493637025379975_);" d="M118.7,374.6l-24.7-23.7
					c0,0,10.4-1.1,15.5,4.6C114.6,361.2,118.7,374.6,118.7,374.6z"/>
			</g>
			
				<linearGradient id="SVGID_00000165953777661732018890000006988964836106632874_" gradientUnits="userSpaceOnUse" x1="118.7466" y1="416.9015" x2="118.7466" y2="444.7473">
				<stop  offset="2.770450e-07" style="stop-color:#EAB258"/>
				<stop  offset="1" style="stop-color:#FEDA85"/>
			</linearGradient>
			
				<rect x="112" y="415.3" style="fill:url(#SVGID_00000165953777661732018890000006988964836106632874_);" width="13.6" height="29.8"/>
		</g>
		<g>
			<g>
				<path class="st15" d="M70.9,463.7c0.9,0,1.7,0.1,2.3,0.3c0.7,0.2,1.2,0.5,1.6,0.9c0.4,0.4,0.7,0.8,1,1.4
					c0.2,0.5,0.3,1.1,0.3,1.7c0,0.7-0.1,1.2-0.3,1.8c-0.2,0.5-0.5,1-1,1.4c-0.4,0.4-1,0.7-1.6,0.9c-0.6,0.2-1.4,0.3-2.3,0.3h-2v4.9
					h-2.2v-13.6H70.9z M70.9,470.6c0.5,0,0.9-0.1,1.3-0.2c0.4-0.1,0.7-0.3,0.9-0.5c0.2-0.2,0.4-0.5,0.6-0.8c0.1-0.3,0.2-0.7,0.2-1.1
					c0-0.4-0.1-0.8-0.2-1.1c-0.1-0.3-0.3-0.6-0.6-0.8c-0.2-0.2-0.6-0.4-0.9-0.5s-0.8-0.2-1.3-0.2h-2v5.2H70.9z"/>
				<path class="st15" d="M88.2,477.3h-1.7c-0.2,0-0.4,0-0.5-0.1c-0.1-0.1-0.2-0.2-0.3-0.4l-1.1-3h-5.9l-1.1,3
					c-0.1,0.1-0.1,0.2-0.3,0.4c-0.1,0.1-0.3,0.2-0.5,0.2h-1.7l5.4-13.6h2.2L88.2,477.3z M84,472.2l-1.9-5c-0.2-0.4-0.3-0.9-0.5-1.5
					c-0.1,0.3-0.1,0.6-0.2,0.8c-0.1,0.3-0.2,0.5-0.2,0.7l-1.9,5H84z"/>
				<path class="st15" d="M97.8,475.4v1.9h-7.9v-13.6h2.2v11.8H97.8z"/>
				<path class="st15" d="M113.9,463.7v13.6h-2v-9.4c0-0.2,0-0.3,0-0.5c0-0.2,0-0.4,0-0.5l-4.4,8.1c-0.2,0.3-0.4,0.5-0.8,0.5h-0.3
					c-0.4,0-0.6-0.2-0.8-0.5l-4.5-8.1c0,0.2,0,0.4,0,0.5c0,0.2,0,0.4,0,0.5v9.4h-2v-13.6h1.7c0.2,0,0.3,0,0.5,0.1
					c0.1,0,0.2,0.1,0.3,0.3l4.4,7.9c0.1,0.2,0.2,0.4,0.3,0.6c0.1,0.2,0.2,0.4,0.2,0.6c0.1-0.2,0.2-0.4,0.2-0.6
					c0.1-0.2,0.2-0.4,0.3-0.6l4.3-7.9c0.1-0.2,0.2-0.3,0.3-0.3c0.1,0,0.3-0.1,0.5-0.1H113.9z"/>
				<path class="st15" d="M129.5,475.4v1.9h-7.9v-13.6h2.2v11.8H129.5z"/>
				<path class="st15" d="M144.2,477.3h-1.7c-0.2,0-0.4,0-0.5-0.1c-0.1-0.1-0.2-0.2-0.3-0.4l-1.1-3h-5.9l-1.1,3
					c-0.1,0.1-0.1,0.2-0.3,0.4c-0.1,0.1-0.3,0.2-0.5,0.2h-1.7l5.4-13.6h2.2L144.2,477.3z M140,472.2l-1.9-5
					c-0.2-0.4-0.3-0.9-0.5-1.5c-0.1,0.3-0.1,0.6-0.2,0.8c-0.1,0.3-0.2,0.5-0.2,0.7l-1.9,5H140z"/>
				<path class="st15" d="M157.2,463.7v13.6h-1.1c-0.2,0-0.3,0-0.4-0.1c-0.1-0.1-0.2-0.2-0.3-0.3l-7.5-9.6c0,0.2,0,0.4,0,0.5
					c0,0.2,0,0.3,0,0.5v9h-2v-13.6h1.2c0.1,0,0.2,0,0.2,0s0.1,0,0.2,0.1c0.1,0,0.1,0.1,0.2,0.1s0.1,0.1,0.2,0.2l7.5,9.6
					c0-0.2,0-0.4,0-0.6c0-0.2,0-0.4,0-0.5v-8.9H157.2z"/>
				<path class="st15" d="M171.2,470.5c0,1-0.2,1.9-0.5,2.8s-0.8,1.6-1.4,2.2c-0.6,0.6-1.3,1.1-2.2,1.4c-0.8,0.3-1.8,0.5-2.8,0.5
					h-5.2v-13.6h5.2c1,0,2,0.2,2.8,0.5c0.8,0.3,1.6,0.8,2.2,1.4c0.6,0.6,1.1,1.3,1.4,2.2S171.2,469.5,171.2,470.5z M168.9,470.5
					c0-0.8-0.1-1.5-0.3-2.1c-0.2-0.6-0.5-1.2-0.9-1.6c-0.4-0.4-0.9-0.8-1.4-1c-0.6-0.2-1.2-0.3-1.9-0.3h-2.9v10.1h2.9
					c0.7,0,1.3-0.1,1.9-0.3c0.6-0.2,1-0.6,1.4-1c0.4-0.4,0.7-1,0.9-1.6C168.8,472,168.9,471.3,168.9,470.5z"/>
			</g>
			<g>
				<path class="st15" d="M93,486.8h-0.5c-0.1,0-0.2,0-0.2-0.1l-1-1.4c0,0-0.1-0.1-0.1-0.1c0,0-0.1,0-0.2,0h-0.4v1.7h-0.6v-4.1h1.2
					c0.3,0,0.5,0,0.7,0.1s0.4,0.1,0.5,0.2c0.1,0.1,0.2,0.2,0.3,0.4c0.1,0.1,0.1,0.3,0.1,0.5c0,0.1,0,0.3-0.1,0.4
					c0,0.1-0.1,0.2-0.2,0.3c-0.1,0.1-0.2,0.2-0.3,0.3c-0.1,0.1-0.3,0.1-0.4,0.2c0.1,0,0.1,0.1,0.2,0.2L93,486.8z M91.1,484.7
					c0.2,0,0.3,0,0.4-0.1c0.1,0,0.2-0.1,0.3-0.2c0.1-0.1,0.1-0.2,0.2-0.3c0-0.1,0.1-0.2,0.1-0.3c0-0.2-0.1-0.4-0.2-0.5
					c-0.2-0.1-0.4-0.2-0.7-0.2h-0.6v1.5H91.1z"/>
				<path class="st15" d="M98.4,486.3l0,0.5h-2.6v-4.1h2.6v0.5h-2v1.3H98v0.5h-1.6v1.4H98.4z"/>
				<path class="st15" d="M104.9,486.8h-0.5c-0.1,0-0.1,0-0.1,0c0,0-0.1-0.1-0.1-0.1l-0.4-1H102l-0.4,1c0,0,0,0.1-0.1,0.1
					s-0.1,0-0.1,0H101l1.7-4.1h0.6L104.9,486.8z M103.7,485.3l-0.6-1.6c0-0.1-0.1-0.2-0.1-0.4c0,0.1,0,0.2-0.1,0.2
					c0,0.1,0,0.1-0.1,0.2l-0.6,1.6H103.7z"/>
				<path class="st15" d="M110.1,486.3v0.5h-2.4v-4.1h0.6v3.6H110.1z"/>
				<path class="st15" d="M119.2,486.3l0,0.5h-2.6v-4.1h2.6v0.5h-2v1.3h1.6v0.5h-1.6v1.4H119.2z"/>
				<path class="st15" d="M124.4,483.4C124.4,483.4,124.4,483.4,124.4,483.4c-0.1,0.1-0.1,0.1-0.1,0.1c0,0-0.1,0-0.1,0
					c0,0-0.1-0.1-0.2-0.1c-0.1,0-0.1-0.1-0.2-0.1c-0.1,0-0.2,0-0.3,0c-0.1,0-0.2,0-0.3,0c-0.1,0-0.2,0.1-0.2,0.1
					c-0.1,0.1-0.1,0.1-0.1,0.2c0,0.1,0,0.2,0,0.2c0,0.1,0,0.2,0.1,0.3c0.1,0.1,0.1,0.1,0.2,0.2c0.1,0.1,0.2,0.1,0.3,0.1
					c0.1,0,0.2,0.1,0.4,0.1c0.1,0,0.2,0.1,0.4,0.1c0.1,0.1,0.2,0.1,0.3,0.2c0.1,0.1,0.2,0.2,0.2,0.3c0.1,0.1,0.1,0.3,0.1,0.4
					c0,0.2,0,0.4-0.1,0.5c-0.1,0.2-0.2,0.3-0.3,0.4c-0.1,0.1-0.3,0.2-0.4,0.3c-0.2,0.1-0.4,0.1-0.6,0.1c-0.1,0-0.3,0-0.4,0
					c-0.1,0-0.2-0.1-0.4-0.1c-0.1,0-0.2-0.1-0.3-0.2c-0.1-0.1-0.2-0.1-0.3-0.2l0.2-0.3c0,0,0,0,0.1-0.1c0,0,0.1,0,0.1,0
					c0,0,0.1,0,0.1,0.1c0.1,0,0.1,0.1,0.2,0.1c0.1,0.1,0.2,0.1,0.3,0.1c0.1,0,0.2,0.1,0.4,0.1c0.1,0,0.2,0,0.3-0.1s0.2-0.1,0.3-0.1
					c0.1-0.1,0.1-0.1,0.2-0.2c0-0.1,0.1-0.2,0.1-0.3c0-0.1,0-0.2-0.1-0.3c-0.1-0.1-0.1-0.1-0.2-0.2c-0.1-0.1-0.2-0.1-0.3-0.1
					c-0.1,0-0.2-0.1-0.4-0.1c-0.1,0-0.2-0.1-0.4-0.1c-0.1-0.1-0.2-0.1-0.3-0.2c-0.1-0.1-0.2-0.2-0.2-0.3c-0.1-0.1-0.1-0.3-0.1-0.5
					c0-0.1,0-0.3,0.1-0.4c0.1-0.1,0.1-0.3,0.3-0.4c0.1-0.1,0.2-0.2,0.4-0.3c0.2-0.1,0.3-0.1,0.6-0.1c0.2,0,0.4,0,0.6,0.1
					c0.2,0.1,0.4,0.2,0.5,0.3L124.4,483.4z"/>
				<path class="st15" d="M130.5,483.2h-1.3v3.6h-0.6v-3.6h-1.3v-0.5h3.3V483.2z"/>
				<path class="st15" d="M136.5,486.8H136c-0.1,0-0.1,0-0.1,0c0,0-0.1-0.1-0.1-0.1l-0.4-1h-1.8l-0.4,1c0,0,0,0.1-0.1,0.1
					c0,0-0.1,0-0.1,0h-0.5l1.7-4.1h0.6L136.5,486.8z M135.2,485.3l-0.6-1.6c0-0.1-0.1-0.2-0.1-0.4c0,0.1,0,0.2-0.1,0.2
					c0,0.1,0,0.1-0.1,0.2l-0.6,1.6H135.2z"/>
				<path class="st15" d="M142.1,483.2h-1.3v3.6h-0.6v-3.6h-1.3v-0.5h3.3V483.2z"/>
				<path class="st15" d="M147.6,486.3l0,0.5H145v-4.1h2.6v0.5h-2v1.3h1.6v0.5h-1.6v1.4H147.6z"/>
			</g>
		</g>
	</g>
	<g class="st27">
		<path class="st28" d="M387.7,634.4l-86,69.7c0,0,2.6-32.6,22.6-47C344.2,642.7,387.7,634.4,387.7,634.4z"/>
		<path class="st28" d="M387.6,634.4l-84.4-2.9c0,0,17.2-16.7,35.7-15.6C357.7,617,387.6,634.4,387.6,634.4z"/>
		<path class="st28" d="M387.6,634.4L353.9,602c0,0,14.2-1.6,21.1,6.3C382,616.2,387.6,634.4,387.6,634.4z"/>
	</g>
	<g class="st27">
		<path class="st28" d="M-8.5,634.4l86,69.7c0,0-2.6-32.6-22.6-47C34.9,642.7-8.5,634.4-8.5,634.4z"/>
		<path class="st28" d="M-8.5,634.4l84.4-2.9c0,0-17.2-16.7-35.7-15.6C21.5,617-8.5,634.4-8.5,634.4z"/>
		<path class="st28" d="M-8.5,634.4L25.2,602c0,0-14.2-1.6-21.1,6.3C-2.8,616.2-8.5,634.4-8.5,634.4z"/>
	</g>
	<g>
		<g class="st31">
			<g>
				<path class="st15" d="M189.6,666.9l32.7,26.5c0,0-0.7-12-8.3-17.6C206.4,670.4,189.6,666.9,189.6,666.9z"/>
				<path class="st15" d="M189.6,666.9l32.1-1.1c0,0-6.4-6.6-13.6-6C201,660.5,189.6,666.9,189.6,666.9z"/>
				<path class="st15" d="M189.6,666.9l12.5-12.7c0,0-5.1-0.2-7.7,2.8C191.8,660,189.6,666.9,189.6,666.9z"/>
				<path class="st15" d="M189.6,666.9l-32.7,26.5c0,0,1-12.4,8.6-17.9C173.1,670,189.6,666.9,189.6,666.9z"/>
				<path class="st15" d="M189.6,666.9l-32.1-1.1c0,0,6.6-6.3,13.6-6C178.2,660.3,189.6,666.9,189.6,666.9z"/>
				<path class="st15" d="M189.6,666.9l-12.8-12.3c0,0,5.4-0.6,8,2.4C187.4,660,189.6,666.9,189.6,666.9z"/>
			</g>
			<rect x="186.1" y="688.1" class="st15" width="7.1" height="15.5"/>
		</g>
		<g class="st32">
			<line class="st33" x1="133.5" y1="712.4" x2="189.6" y2="666.9"/>
			<line class="st33" x1="245.7" y1="712.4" x2="189.6" y2="666.9"/>
			<line class="st33" x1="225.7" y1="703.6" x2="153.5" y2="703.6"/>
			<line class="st33" x1="193.1" y1="723.5" x2="193.1" y2="668.1"/>
			<line class="st33" x1="186.1" y1="723.5" x2="186.1" y2="668.1"/>
			<line class="st33" x1="229.1" y1="665.5" x2="189.6" y2="666.9"/>
			<line class="st33" x1="207.1" y1="649.3" x2="189.6" y2="666.9"/>
			<line class="st33" x1="171.1" y1="649.2" x2="189.6" y2="666.9"/>
			<line class="st33" x1="150" y1="665.5" x2="189.6" y2="666.9"/>
			<g>
				<g>
					<path class="st34" d="M211.7,664.7c0,5.8-4.7,10.5-10.5,10.5c-14-0.6-14-20.5,0-21.1C207,654.2,211.7,658.9,211.7,664.7
						L211.7,664.7z"/>
				</g>
				<g>
					<path class="st35" d="M231.5,686.6c0,15.2-12.4,27.6-27.6,27.6c-36.6-1.5-36.6-53.8,0-55.2C219.2,659,231.5,671.4,231.5,686.6
						L231.5,686.6z"/>
				</g>
				<g>
					<path class="st35" d="M222.3,694.8c0,15.2-12.4,27.6-27.6,27.6c-36.6-1.5-36.6-53.8,0-55.2
						C209.9,667.2,222.3,679.6,222.3,694.8L222.3,694.8z"/>
				</g>
				<g>
					<path class="st36" d="M259.9,703.6c0,24.7-20,44.8-44.8,44.8c-59.4-2.4-59.4-87.2,0-89.6C239.9,658.8,259.9,678.8,259.9,703.6
						L259.9,703.6z"/>
				</g>
				<g>
					<path class="st36" d="M231.5,711.7c0,24.7-20,44.8-44.8,44.8c-59.4-2.4-59.4-87.2,0-89.6C211.5,666.9,231.5,686.9,231.5,711.7
						L231.5,711.7z"/>
				</g>
			</g>
			<g>
				<g>
					<path class="st37" d="M167.7,664.8c0,5.8,4.7,10.4,10.4,10.4c13.8-0.5,13.8-20.3,0-20.9C172.4,654.4,167.7,659.1,167.7,664.8
						L167.7,664.8z"/>
				</g>
				<g>
					<path class="st35" d="M147.6,686.6c0,15.2,12.4,27.6,27.6,27.6c36.6-1.5,36.6-53.8,0-55.2C160,659,147.6,671.4,147.6,686.6
						L147.6,686.6z"/>
				</g>
				<g>
					<path class="st35" d="M156.9,694.8c0,15.2,12.4,27.6,27.6,27.6c36.6-1.5,36.6-53.8,0-55.2C169.2,667.2,156.9,679.6,156.9,694.8
						L156.9,694.8z"/>
				</g>
				<g>
					<path class="st36" d="M119.2,703.6c0,24.7,20,44.8,44.8,44.8c59.4-2.4,59.4-87.2,0-89.6C139.3,658.8,119.2,678.8,119.2,703.6
						L119.2,703.6z"/>
				</g>
				<g>
					<path class="st36" d="M147.6,711.7c0,24.7,20,44.8,44.8,44.8c59.4-2.4,59.4-87.2,0-89.6C167.7,666.9,147.6,686.9,147.6,711.7
						L147.6,711.7z"/>
				</g>
			</g>
			<line class="st33" x1="194.7" y1="652.6" x2="189.6" y2="666.9"/>
			<line class="st33" x1="184.5" y1="652.6" x2="189.6" y2="666.9"/>
		</g>
	</g>
	<path class="st38" d="M88.3,1186.7H48.7v-19.9c0-1,0.8-1.9,1.9-1.9h35.9c1,0,1.9,0.8,1.9,1.9V1186.7z"/>
	<g>
		<line class="st18" x1="49.5" y1="1216.7" x2="331.9" y2="1216.7"/>
	</g>
	<g>
		
			<image style="overflow:visible;opacity:0.3;" width="607" height="607" xlink:href="FA669CB1.png"  transform="matrix(0.24 0 0 0.24 4.6122 809.9603)">
		</image>
		<g>
			<path class="st0" d="M104.8,912.9H50c-1.5,0-2.8-1.3-2.8-2.8v-54.7c0-1.5,1.3-2.8,2.8-2.8h54.7c1.5,0,2.8,1.3,2.8,2.8v54.7
				C107.6,911.6,106.3,912.9,104.8,912.9z"/>
		</g>
	</g>
	<g>
		
			<image style="overflow:visible;opacity:0.3;" width="607" height="607" xlink:href="FA669CB3.png"  transform="matrix(0.24 0 0 0.24 117.8922 809.9603)">
		</image>
		<g>
			<path class="st0" d="M218.1,912.9h-54.7c-1.5,0-2.8-1.3-2.8-2.8v-54.7c0-1.5,1.3-2.8,2.8-2.8h54.7c1.5,0,2.8,1.3,2.8,2.8v54.7
				C220.9,911.6,219.6,912.9,218.1,912.9z"/>
		</g>
	</g>
	<g>
		
			<image style="overflow:visible;opacity:0.3;" width="607" height="607" xlink:href="FA669CB6.png"  transform="matrix(0.24 0 0 0.24 229.0122 809.9603)">
		</image>
		<g>
			<path class="st0" d="M329.1,912.9h-54.7c-1.5,0-2.8-1.3-2.8-2.8v-54.7c0-1.5,1.3-2.8,2.8-2.8h54.7c1.5,0,2.8,1.3,2.8,2.8v54.7
				C331.9,911.6,330.7,912.9,329.1,912.9z"/>
		</g>
	</g>
	<text transform="matrix(1 0 0 1 47.2186 830.8079)" class="st15 st16 st17">Logo Variations</text>
	<text transform="matrix(1 0 0 1 47.2186 1016.2403)" class="st15 st16 st17">Typeface</text>
	<path class="st1" d="M86,1135H50.6v-7.5c0-0.9,0.8-1.7,1.7-1.7h32c0.9,0,1.7,0.8,1.7,1.7V1135z"/>
	<g>
		<path class="st1" d="M85.8,1135.3v8.2H50.9v-8.2H85.8 M86,1135H50.6v8.7H86V1135L86,1135z"/>
	</g>
	<path class="st15" d="M147.5,1135h-35.4v-7.5c0-0.9,0.8-1.7,1.7-1.7h32c0.9,0,1.7,0.8,1.7,1.7V1135z"/>
	<g>
		<path class="st15" d="M147.3,1135.3v8.2h-34.9v-8.2H147.3 M147.5,1135h-35.4v8.7h35.4V1135L147.5,1135z"/>
	</g>
	<path class="st39" d="M209,1135h-35.4v-7.5c0-0.9,0.8-1.7,1.7-1.7h32c0.9,0,1.7,0.8,1.7,1.7V1135z"/>
	<g>
		<path class="st39" d="M208.7,1135.3v8.2h-34.9v-8.2H208.7 M209,1135h-35.4v8.7H209V1135L209,1135z"/>
	</g>
	<path class="st40" d="M270.5,1135h-35.4v-7.5c0-0.9,0.8-1.7,1.7-1.7h32c0.9,0,1.7,0.8,1.7,1.7V1135z"/>
	<g>
		<path class="st40" d="M270.2,1135.3v8.2h-34.9v-8.2H270.2 M270.5,1135h-35.4v8.7h35.4V1135L270.5,1135z"/>
	</g>
	<path class="st41" d="M331.9,1135h-35.4v-7.5c0-0.9,0.8-1.7,1.7-1.7h32c0.9,0,1.7,0.8,1.7,1.7V1135z"/>
	<g>
		<path class="st41" d="M331.7,1135.3v8.2h-34.9v-8.2H331.7 M331.9,1135h-35.4v8.7h35.4V1135L331.9,1135z"/>
	</g>
	<path class="st0" d="M86,1176.1H50.6v-7.5c0-0.9,0.8-1.7,1.7-1.7h32c0.9,0,1.7,0.8,1.7,1.7V1176.1z"/>
	<g>
		<path class="st0" d="M85.8,1176.4v8.2H50.9v-8.2H85.8 M86,1176.1H50.6v8.7H86V1176.1L86,1176.1z"/>
	</g>
	<path class="st42" d="M147.5,1176.1h-35.4v-7.5c0-0.9,0.8-1.7,1.7-1.7h32c0.9,0,1.7,0.8,1.7,1.7V1176.1z"/>
	<g>
		<path class="st42" d="M147.3,1176.4v8.2h-34.9v-8.2H147.3 M147.5,1176.1h-35.4v8.7h35.4V1176.1L147.5,1176.1z"/>
	</g>
	<path class="st43" d="M209,1176.1h-35.4v-7.5c0-0.9,0.8-1.7,1.7-1.7h32c0.9,0,1.7,0.8,1.7,1.7V1176.1z"/>
	<g>
		<path class="st43" d="M208.7,1176.4v8.2h-34.9v-8.2H208.7 M209,1176.1h-35.4v8.7H209V1176.1L209,1176.1z"/>
	</g>
	<path class="st44" d="M270.5,1176.1h-35.4v-7.5c0-0.9,0.8-1.7,1.7-1.7h32c0.9,0,1.7,0.8,1.7,1.7V1176.1z"/>
	<g>
		<path class="st44" d="M270.2,1176.4v8.2h-34.9v-8.2H270.2 M270.5,1176.1h-35.4v8.7h35.4V1176.1L270.5,1176.1z"/>
	</g>
	<path class="st30" d="M331.9,1176.1h-35.4v-7.5c0-0.9,0.8-1.7,1.7-1.7h32c0.9,0,1.7,0.8,1.7,1.7V1176.1z"/>
	<g>
		<path class="st30" d="M331.7,1176.4v8.2h-34.9v-8.2H331.7 M331.9,1176.1h-35.4v8.7h35.4V1176.1L331.9,1176.1z"/>
	</g>
	<text transform="matrix(1 0 0 1 47.2186 1098.4097)" class="st15 st16 st17">Colors</text>
	<g>
		<g>
			<g>
				
					<linearGradient id="SVGID_00000146496832140727253190000016885204100945032096_" gradientUnits="userSpaceOnUse" x1="79.0164" y1="868.5635" x2="96.6572" y2="882.5844" gradientTransform="matrix(1 0 0 1 113.3101 0)">
					<stop  offset="2.770450e-07" style="stop-color:#EAB258"/>
					<stop  offset="1" style="stop-color:#FEDA85"/>
				</linearGradient>
				<path style="fill:url(#SVGID_00000146496832140727253190000016885204100945032096_);" d="M190.7,870l18.1,14.7
					c0,0-0.4-6.7-4.6-9.7C200,871.9,190.7,870,190.7,870z"/>
				
					<linearGradient id="SVGID_00000163055032782638715290000009463377089177408669_" gradientUnits="userSpaceOnUse" x1="77.7707" y1="868.2089" x2="94.7997" y2="867.699" gradientTransform="matrix(1 0 0 1 113.3101 0)">
					<stop  offset="2.770450e-07" style="stop-color:#EAB258"/>
					<stop  offset="1" style="stop-color:#FEDA85"/>
				</linearGradient>
				<path style="fill:url(#SVGID_00000163055032782638715290000009463377089177408669_);" d="M190.7,870l17.8-0.6
					c0,0-3.6-3.7-7.5-3.3C197,866.5,190.7,870,190.7,870z"/>
				
					<linearGradient id="SVGID_00000052100686282041902220000006519186835497747335_" gradientUnits="userSpaceOnUse" x1="78.0827" y1="869.2391" x2="82.4674" y2="863.3758" gradientTransform="matrix(1 0 0 1 113.3101 0)">
					<stop  offset="2.770450e-07" style="stop-color:#EAB258"/>
					<stop  offset="1" style="stop-color:#FEDA85"/>
				</linearGradient>
				<path style="fill:url(#SVGID_00000052100686282041902220000006519186835497747335_);" d="M190.7,870l6.9-7.1
					c0,0-2.8-0.1-4.3,1.5C191.9,866.2,190.7,870,190.7,870z"/>
				
					<linearGradient id="SVGID_00000020393489261878138020000000237686481898058415_" gradientUnits="userSpaceOnUse" x1="75.9309" y1="868.4348" x2="57.9841" y2="882.6597" gradientTransform="matrix(1 0 0 1 113.3101 0)">
					<stop  offset="2.770450e-07" style="stop-color:#EAB258"/>
					<stop  offset="1" style="stop-color:#FEDA85"/>
				</linearGradient>
				<path style="fill:url(#SVGID_00000020393489261878138020000000237686481898058415_);" d="M190.7,870l-18.1,14.7
					c0,0,0.5-6.9,4.8-9.9S190.7,870,190.7,870z"/>
				
					<linearGradient id="SVGID_00000105399882288586434880000010041889333296541828_" gradientUnits="userSpaceOnUse" x1="77.2633" y1="868.2173" x2="59.8773" y2="867.7075" gradientTransform="matrix(1 0 0 1 113.3101 0)">
					<stop  offset="2.770450e-07" style="stop-color:#EAB258"/>
					<stop  offset="1" style="stop-color:#FEDA85"/>
				</linearGradient>
				<path style="fill:url(#SVGID_00000105399882288586434880000010041889333296541828_);" d="M190.7,870l-17.8-0.6
					c0,0,3.6-3.5,7.5-3.3C184.4,866.3,190.7,870,190.7,870z"/>
				
					<linearGradient id="SVGID_00000087405437122687725970000002077808488561990811_" gradientUnits="userSpaceOnUse" x1="77.6024" y1="869.0316" x2="71.1273" y2="862.4545" gradientTransform="matrix(1 0 0 1 113.3101 0)">
					<stop  offset="2.770450e-07" style="stop-color:#EAB258"/>
					<stop  offset="1" style="stop-color:#FEDA85"/>
				</linearGradient>
				<path style="fill:url(#SVGID_00000087405437122687725970000002077808488561990811_);" d="M190.7,870l-7.1-6.8c0,0,3-0.3,4.5,1.3
					C189.5,866.2,190.7,870,190.7,870z"/>
			</g>
			
				<linearGradient id="SVGID_00000098209023481378990830000013695526762414972811_" gradientUnits="userSpaceOnUse" x1="77.3928" y1="882.2289" x2="77.3928" y2="890.2578" gradientTransform="matrix(1 0 0 1 113.3101 0)">
				<stop  offset="2.770450e-07" style="stop-color:#EAB258"/>
				<stop  offset="1" style="stop-color:#FEDA85"/>
			</linearGradient>
			
				<rect x="188.7" y="881.8" style="fill:url(#SVGID_00000098209023481378990830000013695526762414972811_);" width="3.9" height="8.6"/>
		</g>
		<g>
			<g>
				<path class="st15" d="M176.9,895.7c0.3,0,0.5,0,0.7,0.1c0.2,0.1,0.3,0.1,0.5,0.3c0.1,0.1,0.2,0.2,0.3,0.4
					c0.1,0.2,0.1,0.3,0.1,0.5c0,0.2,0,0.4-0.1,0.5c-0.1,0.2-0.2,0.3-0.3,0.4c-0.1,0.1-0.3,0.2-0.5,0.3c-0.2,0.1-0.4,0.1-0.7,0.1
					h-0.6v1.4h-0.6v-3.9H176.9z M176.9,897.7c0.1,0,0.3,0,0.4-0.1c0.1,0,0.2-0.1,0.3-0.2c0.1-0.1,0.1-0.1,0.2-0.2
					c0-0.1,0.1-0.2,0.1-0.3c0-0.1,0-0.2-0.1-0.3c0-0.1-0.1-0.2-0.2-0.2c-0.1-0.1-0.2-0.1-0.3-0.1c-0.1,0-0.2-0.1-0.4-0.1h-0.6v1.5
					H176.9z"/>
				<path class="st15" d="M181.9,899.6h-0.5c-0.1,0-0.1,0-0.1,0c0,0-0.1-0.1-0.1-0.1l-0.3-0.9h-1.7l-0.3,0.9c0,0,0,0.1-0.1,0.1
					s-0.1,0-0.1,0h-0.5l1.6-3.9h0.6L181.9,899.6z M180.7,898.2l-0.5-1.4c0-0.1-0.1-0.3-0.1-0.4c0,0.1,0,0.2-0.1,0.2
					c0,0.1,0,0.1-0.1,0.2l-0.5,1.4H180.7z"/>
				<path class="st15" d="M184.7,899.1v0.5h-2.3v-3.9h0.6v3.4H184.7z"/>
				<path class="st15" d="M189.3,895.7v3.9h-0.6v-2.7c0,0,0-0.1,0-0.1c0-0.1,0-0.1,0-0.2l-1.3,2.3c0,0.1-0.1,0.1-0.2,0.1h-0.1
					c-0.1,0-0.2,0-0.2-0.1l-1.3-2.3c0,0.1,0,0.1,0,0.2c0,0.1,0,0.1,0,0.1v2.7h-0.6v-3.9h0.5c0.1,0,0.1,0,0.1,0s0.1,0,0.1,0.1
					l1.3,2.3c0,0.1,0.1,0.1,0.1,0.2c0,0.1,0,0.1,0.1,0.2c0-0.1,0-0.1,0.1-0.2c0-0.1,0.1-0.1,0.1-0.2l1.2-2.3c0-0.1,0.1-0.1,0.1-0.1
					c0,0,0.1,0,0.1,0H189.3z"/>
				<path class="st15" d="M193.8,899.1v0.5h-2.3v-3.9h0.6v3.4H193.8z"/>
				<path class="st15" d="M198.1,899.6h-0.5c-0.1,0-0.1,0-0.1,0c0,0-0.1-0.1-0.1-0.1l-0.3-0.9h-1.7l-0.3,0.9c0,0,0,0.1-0.1,0.1
					s-0.1,0-0.1,0h-0.5l1.6-3.9h0.6L198.1,899.6z M196.8,898.2l-0.5-1.4c0-0.1-0.1-0.3-0.1-0.4c0,0.1,0,0.2-0.1,0.2
					c0,0.1,0,0.1-0.1,0.2l-0.5,1.4H196.8z"/>
				<path class="st15" d="M201.8,895.7v3.9h-0.3c0,0-0.1,0-0.1,0c0,0-0.1,0-0.1-0.1l-2.2-2.8c0,0.1,0,0.1,0,0.2c0,0.1,0,0.1,0,0.1
					v2.6h-0.6v-3.9h0.3c0,0,0.1,0,0.1,0c0,0,0,0,0.1,0c0,0,0,0,0,0c0,0,0,0,0,0.1l2.2,2.8c0-0.1,0-0.1,0-0.2c0-0.1,0-0.1,0-0.2v-2.6
					H201.8z"/>
				<path class="st15" d="M205.8,897.7c0,0.3,0,0.6-0.1,0.8c-0.1,0.2-0.2,0.4-0.4,0.6c-0.2,0.2-0.4,0.3-0.6,0.4
					c-0.2,0.1-0.5,0.1-0.8,0.1h-1.5v-3.9h1.5c0.3,0,0.6,0,0.8,0.1c0.2,0.1,0.4,0.2,0.6,0.4c0.2,0.2,0.3,0.4,0.4,0.6
					C205.8,897.1,205.8,897.4,205.8,897.7z M205.2,897.7c0-0.2,0-0.4-0.1-0.6c-0.1-0.2-0.1-0.3-0.3-0.5c-0.1-0.1-0.3-0.2-0.4-0.3
					c-0.2-0.1-0.3-0.1-0.5-0.1H203v2.9h0.8c0.2,0,0.4,0,0.5-0.1c0.2-0.1,0.3-0.2,0.4-0.3c0.1-0.1,0.2-0.3,0.3-0.5
					C205.1,898.1,205.2,897.9,205.2,897.7z"/>
			</g>
			<g>
				<path class="st15" d="M183.3,902.4h-0.2c0,0-0.1,0-0.1,0l-0.3-0.4c0,0,0,0,0,0c0,0,0,0,0,0h-0.1v0.5h-0.2v-1.2h0.3
					c0.1,0,0.1,0,0.2,0s0.1,0,0.1,0.1c0,0,0.1,0.1,0.1,0.1c0,0,0,0.1,0,0.1c0,0,0,0.1,0,0.1c0,0,0,0.1-0.1,0.1c0,0-0.1,0.1-0.1,0.1
					c0,0-0.1,0-0.1,0c0,0,0,0,0.1,0.1L183.3,902.4z M182.7,901.8c0,0,0.1,0,0.1,0s0.1,0,0.1,0c0,0,0,0,0.1-0.1c0,0,0-0.1,0-0.1
					c0-0.1,0-0.1-0.1-0.2c0,0-0.1-0.1-0.2-0.1h-0.2v0.4H182.7z"/>
				<path class="st15" d="M184.8,902.3l0,0.1h-0.7v-1.2h0.7v0.1h-0.6v0.4h0.5v0.1h-0.5v0.4H184.8z"/>
				<path class="st15" d="M186.7,902.4h-0.1c0,0,0,0,0,0c0,0,0,0,0,0l-0.1-0.3h-0.5l-0.1,0.3c0,0,0,0,0,0c0,0,0,0,0,0h-0.1l0.5-1.2
					h0.2L186.7,902.4z M186.4,902l-0.2-0.5c0,0,0-0.1,0-0.1c0,0,0,0,0,0.1c0,0,0,0,0,0.1l-0.2,0.5H186.4z"/>
				<path class="st15" d="M188.2,902.2v0.1h-0.7v-1.2h0.2v1H188.2z"/>
				<path class="st15" d="M190.8,902.3l0,0.1h-0.7v-1.2h0.7v0.1h-0.6v0.4h0.5v0.1h-0.5v0.4H190.8z"/>
				<path class="st15" d="M192.3,901.4C192.3,901.4,192.3,901.4,192.3,901.4C192.3,901.4,192.3,901.4,192.3,901.4
					C192.3,901.4,192.3,901.4,192.3,901.4c-0.1,0-0.1,0-0.1,0c0,0,0,0-0.1,0c0,0-0.1,0-0.1,0c0,0-0.1,0-0.1,0c0,0,0,0-0.1,0
					s0,0,0,0.1c0,0,0,0,0,0.1c0,0,0,0.1,0,0.1c0,0,0,0,0.1,0.1c0,0,0.1,0,0.1,0c0,0,0.1,0,0.1,0c0,0,0.1,0,0.1,0c0,0,0.1,0,0.1,0.1
					c0,0,0,0.1,0.1,0.1c0,0,0,0.1,0,0.1c0,0.1,0,0.1,0,0.1c0,0,0,0.1-0.1,0.1c0,0-0.1,0.1-0.1,0.1c-0.1,0-0.1,0-0.2,0
					c0,0-0.1,0-0.1,0c0,0-0.1,0-0.1,0c0,0-0.1,0-0.1,0c0,0-0.1,0-0.1-0.1l0.1-0.1c0,0,0,0,0,0c0,0,0,0,0,0c0,0,0,0,0,0
					c0,0,0,0,0.1,0c0,0,0,0,0.1,0c0,0,0.1,0,0.1,0c0,0,0.1,0,0.1,0c0,0,0.1,0,0.1,0c0,0,0,0,0-0.1c0,0,0-0.1,0-0.1c0,0,0-0.1,0-0.1
					c0,0,0,0-0.1-0.1s-0.1,0-0.1,0c0,0-0.1,0-0.1,0c0,0-0.1,0-0.1,0s-0.1,0-0.1-0.1c0,0,0-0.1-0.1-0.1c0,0,0-0.1,0-0.1
					c0,0,0-0.1,0-0.1c0,0,0-0.1,0.1-0.1c0,0,0.1-0.1,0.1-0.1c0,0,0.1,0,0.2,0c0.1,0,0.1,0,0.2,0
					C192.3,901.2,192.3,901.3,192.3,901.4L192.3,901.4z"/>
				<path class="st15" d="M194.1,901.3h-0.4v1h-0.2v-1h-0.4v-0.1h0.9V901.3z"/>
				<path class="st15" d="M195.8,902.4h-0.1c0,0,0,0,0,0c0,0,0,0,0,0l-0.1-0.3H195l-0.1,0.3c0,0,0,0,0,0c0,0,0,0,0,0h-0.1l0.5-1.2
					h0.2L195.8,902.4z M195.5,902l-0.2-0.5c0,0,0-0.1,0-0.1c0,0,0,0,0,0.1c0,0,0,0,0,0.1L195,902H195.5z"/>
				<path class="st15" d="M197.4,901.3h-0.4v1h-0.2v-1h-0.4v-0.1h0.9V901.3z"/>
				<path class="st15" d="M199,902.3l0,0.1h-0.7v-1.2h0.7v0.1h-0.6v0.4h0.5v0.1h-0.5v0.4H199z"/>
			</g>
		</g>
	</g>
	<g>
		<g>
			<g>
				<path class="st1" d="M77.4,870l18.1,14.7c0,0-0.4-6.7-4.6-9.7C86.7,871.9,77.4,870,77.4,870z"/>
				<path class="st1" d="M77.4,870l17.8-0.6c0,0-3.6-3.7-7.5-3.3S77.4,870,77.4,870z"/>
				<path class="st1" d="M77.4,870l6.9-7.1c0,0-2.8-0.1-4.3,1.5C78.6,866.2,77.4,870,77.4,870z"/>
				<path class="st1" d="M77.4,870l-18.1,14.7c0,0,0.5-6.9,4.8-9.9S77.4,870,77.4,870z"/>
				<path class="st1" d="M77.4,870l-17.8-0.6c0,0,3.6-3.5,7.5-3.3C71.1,866.3,77.4,870,77.4,870z"/>
				<path class="st1" d="M77.4,870l-7.1-6.8c0,0,3-0.3,4.5,1.3C76.2,866.2,77.4,870,77.4,870z"/>
			</g>
			<rect x="75.4" y="881.8" class="st1" width="3.9" height="8.6"/>
		</g>
		<g>
			<g>
				<path class="st1" d="M63.6,895.7c0.3,0,0.5,0,0.7,0.1c0.2,0.1,0.3,0.1,0.5,0.3c0.1,0.1,0.2,0.2,0.3,0.4c0.1,0.2,0.1,0.3,0.1,0.5
					c0,0.2,0,0.4-0.1,0.5c-0.1,0.2-0.2,0.3-0.3,0.4c-0.1,0.1-0.3,0.2-0.5,0.3c-0.2,0.1-0.4,0.1-0.7,0.1H63v1.4h-0.6v-3.9H63.6z
					 M63.6,897.7c0.1,0,0.3,0,0.4-0.1c0.1,0,0.2-0.1,0.3-0.2c0.1-0.1,0.1-0.1,0.2-0.2c0-0.1,0.1-0.2,0.1-0.3c0-0.1,0-0.2-0.1-0.3
					c0-0.1-0.1-0.2-0.2-0.2c-0.1-0.1-0.2-0.1-0.3-0.1c-0.1,0-0.2-0.1-0.4-0.1H63v1.5H63.6z"/>
				<path class="st1" d="M68.6,899.6h-0.5c-0.1,0-0.1,0-0.1,0c0,0-0.1-0.1-0.1-0.1l-0.3-0.9h-1.7l-0.3,0.9c0,0,0,0.1-0.1,0.1
					s-0.1,0-0.1,0h-0.5l1.6-3.9H67L68.6,899.6z M67.4,898.2l-0.5-1.4c0-0.1-0.1-0.3-0.1-0.4c0,0.1,0,0.2-0.1,0.2
					c0,0.1,0,0.1-0.1,0.2l-0.5,1.4H67.4z"/>
				<path class="st1" d="M71.3,899.1v0.5h-2.3v-3.9h0.6v3.4H71.3z"/>
				<path class="st1" d="M76,895.7v3.9h-0.6v-2.7c0,0,0-0.1,0-0.1c0-0.1,0-0.1,0-0.2l-1.3,2.3c0,0.1-0.1,0.1-0.2,0.1h-0.1
					c-0.1,0-0.2,0-0.2-0.1l-1.3-2.3c0,0.1,0,0.1,0,0.2c0,0.1,0,0.1,0,0.1v2.7h-0.6v-3.9h0.5c0.1,0,0.1,0,0.1,0s0.1,0,0.1,0.1
					l1.3,2.3c0,0.1,0.1,0.1,0.1,0.2c0,0.1,0,0.1,0.1,0.2c0-0.1,0-0.1,0.1-0.2c0-0.1,0.1-0.1,0.1-0.2l1.2-2.3c0-0.1,0.1-0.1,0.1-0.1
					c0,0,0.1,0,0.1,0H76z"/>
				<path class="st1" d="M80.5,899.1v0.5h-2.3v-3.9h0.6v3.4H80.5z"/>
				<path class="st1" d="M84.7,899.6h-0.5c-0.1,0-0.1,0-0.1,0c0,0-0.1-0.1-0.1-0.1l-0.3-0.9H82l-0.3,0.9c0,0,0,0.1-0.1,0.1
					s-0.1,0-0.1,0H81l1.6-3.9h0.6L84.7,899.6z M83.5,898.2l-0.5-1.4c0-0.1-0.1-0.3-0.1-0.4c0,0.1,0,0.2-0.1,0.2c0,0.1,0,0.1-0.1,0.2
					l-0.5,1.4H83.5z"/>
				<path class="st1" d="M88.5,895.7v3.9h-0.3c0,0-0.1,0-0.1,0c0,0-0.1,0-0.1-0.1l-2.2-2.8c0,0.1,0,0.1,0,0.2c0,0.1,0,0.1,0,0.1v2.6
					h-0.6v-3.9h0.3c0,0,0.1,0,0.1,0s0,0,0.1,0s0,0,0,0c0,0,0,0,0,0.1l2.2,2.8c0-0.1,0-0.1,0-0.2c0-0.1,0-0.1,0-0.2v-2.6H88.5z"/>
				<path class="st1" d="M92.5,897.7c0,0.3,0,0.6-0.1,0.8c-0.1,0.2-0.2,0.4-0.4,0.6c-0.2,0.2-0.4,0.3-0.6,0.4
					c-0.2,0.1-0.5,0.1-0.8,0.1h-1.5v-3.9h1.5c0.3,0,0.6,0,0.8,0.1c0.2,0.1,0.4,0.2,0.6,0.4c0.2,0.2,0.3,0.4,0.4,0.6
					C92.5,897.1,92.5,897.4,92.5,897.7z M91.9,897.7c0-0.2,0-0.4-0.1-0.6c-0.1-0.2-0.1-0.3-0.3-0.5c-0.1-0.1-0.3-0.2-0.4-0.3
					c-0.2-0.1-0.3-0.1-0.5-0.1h-0.8v2.9h0.8c0.2,0,0.4,0,0.5-0.1c0.2-0.1,0.3-0.2,0.4-0.3c0.1-0.1,0.2-0.3,0.3-0.5
					C91.8,898.1,91.9,897.9,91.9,897.7z"/>
			</g>
			<g>
				<path class="st1" d="M70,902.4h-0.2c0,0-0.1,0-0.1,0l-0.3-0.4c0,0,0,0,0,0c0,0,0,0,0,0h-0.1v0.5h-0.2v-1.2h0.3
					c0.1,0,0.1,0,0.2,0s0.1,0,0.1,0.1c0,0,0.1,0.1,0.1,0.1c0,0,0,0.1,0,0.1c0,0,0,0.1,0,0.1c0,0,0,0.1-0.1,0.1c0,0-0.1,0.1-0.1,0.1
					c0,0-0.1,0-0.1,0c0,0,0,0,0.1,0.1L70,902.4z M69.4,901.8c0,0,0.1,0,0.1,0s0.1,0,0.1,0c0,0,0,0,0.1-0.1c0,0,0-0.1,0-0.1
					c0-0.1,0-0.1-0.1-0.2c0,0-0.1-0.1-0.2-0.1h-0.2v0.4H69.4z"/>
				<path class="st1" d="M71.5,902.3l0,0.1h-0.7v-1.2h0.7v0.1H71v0.4h0.5v0.1H71v0.4H71.5z"/>
				<path class="st1" d="M73.4,902.4h-0.1c0,0,0,0,0,0c0,0,0,0,0,0l-0.1-0.3h-0.5l-0.1,0.3c0,0,0,0,0,0c0,0,0,0,0,0h-0.1l0.5-1.2
					h0.2L73.4,902.4z M73.1,902l-0.2-0.5c0,0,0-0.1,0-0.1c0,0,0,0,0,0.1c0,0,0,0,0,0.1l-0.2,0.5H73.1z"/>
				<path class="st1" d="M74.9,902.2v0.1h-0.7v-1.2h0.2v1H74.9z"/>
				<path class="st1" d="M77.5,902.3l0,0.1h-0.7v-1.2h0.7v0.1H77v0.4h0.5v0.1H77v0.4H77.5z"/>
				<path class="st1" d="M79,901.4C79,901.4,79,901.4,79,901.4C79,901.4,79,901.4,79,901.4C79,901.4,79,901.4,79,901.4
					c-0.1,0-0.1,0-0.1,0c0,0,0,0-0.1,0c0,0-0.1,0-0.1,0c0,0-0.1,0-0.1,0c0,0,0,0-0.1,0s0,0,0,0.1c0,0,0,0,0,0.1c0,0,0,0.1,0,0.1
					c0,0,0,0,0.1,0.1c0,0,0.1,0,0.1,0c0,0,0.1,0,0.1,0c0,0,0.1,0,0.1,0c0,0,0.1,0,0.1,0.1c0,0,0,0.1,0.1,0.1c0,0,0,0.1,0,0.1
					c0,0.1,0,0.1,0,0.1c0,0,0,0.1-0.1,0.1c0,0-0.1,0.1-0.1,0.1c-0.1,0-0.1,0-0.2,0c0,0-0.1,0-0.1,0c0,0-0.1,0-0.1,0c0,0-0.1,0-0.1,0
					c0,0-0.1,0-0.1-0.1l0.1-0.1c0,0,0,0,0,0c0,0,0,0,0,0c0,0,0,0,0,0c0,0,0,0,0.1,0c0,0,0,0,0.1,0c0,0,0.1,0,0.1,0c0,0,0.1,0,0.1,0
					s0.1,0,0.1,0c0,0,0,0,0-0.1c0,0,0-0.1,0-0.1c0,0,0-0.1,0-0.1c0,0,0,0-0.1-0.1s-0.1,0-0.1,0c0,0-0.1,0-0.1,0c0,0-0.1,0-0.1,0
					c0,0-0.1,0-0.1-0.1c0,0,0-0.1-0.1-0.1c0,0,0-0.1,0-0.1c0,0,0-0.1,0-0.1c0,0,0-0.1,0.1-0.1c0,0,0.1-0.1,0.1-0.1c0,0,0.1,0,0.2,0
					c0.1,0,0.1,0,0.2,0C79,901.2,79,901.3,79,901.4L79,901.4z"/>
				<path class="st1" d="M80.8,901.3h-0.4v1h-0.2v-1h-0.4v-0.1h0.9V901.3z"/>
				<path class="st1" d="M82.5,902.4h-0.1c0,0,0,0,0,0c0,0,0,0,0,0l-0.1-0.3h-0.5l-0.1,0.3c0,0,0,0,0,0c0,0,0,0,0,0h-0.1l0.5-1.2H82
					L82.5,902.4z M82.2,902l-0.2-0.5c0,0,0-0.1,0-0.1c0,0,0,0,0,0.1c0,0,0,0,0,0.1l-0.2,0.5H82.2z"/>
				<path class="st1" d="M84.1,901.3h-0.4v1h-0.2v-1h-0.4v-0.1h0.9V901.3z"/>
				<path class="st1" d="M85.7,902.3l0,0.1H85v-1.2h0.7v0.1h-0.6v0.4h0.5v0.1h-0.5v0.4H85.7z"/>
			</g>
		</g>
	</g>
	<g>
		<g>
			<g>
				<path class="st30" d="M301.8,870l18.1,14.7c0,0-0.4-6.7-4.6-9.7C311.1,871.9,301.8,870,301.8,870z"/>
				<path class="st30" d="M301.8,870l17.8-0.6c0,0-3.6-3.7-7.5-3.3S301.8,870,301.8,870z"/>
				<path class="st30" d="M301.8,870l6.9-7.1c0,0-2.8-0.1-4.3,1.5C303,866.2,301.8,870,301.8,870z"/>
				<path class="st30" d="M301.8,870l-18.1,14.7c0,0,0.5-6.9,4.8-9.9S301.8,870,301.8,870z"/>
				<path class="st30" d="M301.8,870l-17.8-0.6c0,0,3.6-3.5,7.5-3.3C295.4,866.3,301.8,870,301.8,870z"/>
				<path class="st30" d="M301.8,870l-7.1-6.8c0,0,3-0.3,4.5,1.3C300.6,866.2,301.8,870,301.8,870z"/>
			</g>
			<rect x="299.8" y="881.8" class="st30" width="3.9" height="8.6"/>
		</g>
		<g>
			<g>
				<path class="st30" d="M288,895.7c0.3,0,0.5,0,0.7,0.1c0.2,0.1,0.3,0.1,0.5,0.3c0.1,0.1,0.2,0.2,0.3,0.4c0.1,0.2,0.1,0.3,0.1,0.5
					c0,0.2,0,0.4-0.1,0.5c-0.1,0.2-0.2,0.3-0.3,0.4c-0.1,0.1-0.3,0.2-0.5,0.3c-0.2,0.1-0.4,0.1-0.7,0.1h-0.6v1.4h-0.6v-3.9H288z
					 M288,897.7c0.1,0,0.3,0,0.4-0.1c0.1,0,0.2-0.1,0.3-0.2c0.1-0.1,0.1-0.1,0.2-0.2c0-0.1,0.1-0.2,0.1-0.3c0-0.1,0-0.2-0.1-0.3
					c0-0.1-0.1-0.2-0.2-0.2c-0.1-0.1-0.2-0.1-0.3-0.1c-0.1,0-0.2-0.1-0.4-0.1h-0.6v1.5H288z"/>
				<path class="st30" d="M293,899.6h-0.5c-0.1,0-0.1,0-0.1,0c0,0-0.1-0.1-0.1-0.1l-0.3-0.9h-1.7l-0.3,0.9c0,0,0,0.1-0.1,0.1
					s-0.1,0-0.1,0h-0.5l1.6-3.9h0.6L293,899.6z M291.7,898.2l-0.5-1.4c0-0.1-0.1-0.3-0.1-0.4c0,0.1,0,0.2-0.1,0.2
					c0,0.1,0,0.1-0.1,0.2l-0.5,1.4H291.7z"/>
				<path class="st30" d="M295.7,899.1v0.5h-2.3v-3.9h0.6v3.4H295.7z"/>
				<path class="st30" d="M300.4,895.7v3.9h-0.6v-2.7c0,0,0-0.1,0-0.1c0-0.1,0-0.1,0-0.2l-1.3,2.3c0,0.1-0.1,0.1-0.2,0.1h-0.1
					c-0.1,0-0.2,0-0.2-0.1l-1.3-2.3c0,0.1,0,0.1,0,0.2c0,0.1,0,0.1,0,0.1v2.7h-0.6v-3.9h0.5c0.1,0,0.1,0,0.1,0s0.1,0,0.1,0.1
					l1.3,2.3c0,0.1,0.1,0.1,0.1,0.2c0,0.1,0,0.1,0.1,0.2c0-0.1,0-0.1,0.1-0.2c0-0.1,0.1-0.1,0.1-0.2l1.2-2.3c0-0.1,0.1-0.1,0.1-0.1
					c0,0,0.1,0,0.1,0H300.4z"/>
				<path class="st30" d="M304.9,899.1v0.5h-2.3v-3.9h0.6v3.4H304.9z"/>
				<path class="st30" d="M309.1,899.6h-0.5c-0.1,0-0.1,0-0.1,0c0,0-0.1-0.1-0.1-0.1l-0.3-0.9h-1.7l-0.3,0.9c0,0,0,0.1-0.1,0.1
					s-0.1,0-0.1,0h-0.5l1.6-3.9h0.6L309.1,899.6z M307.9,898.2l-0.5-1.4c0-0.1-0.1-0.3-0.1-0.4c0,0.1,0,0.2-0.1,0.2
					c0,0.1,0,0.1-0.1,0.2l-0.5,1.4H307.9z"/>
				<path class="st30" d="M312.8,895.7v3.9h-0.3c0,0-0.1,0-0.1,0c0,0-0.1,0-0.1-0.1l-2.2-2.8c0,0.1,0,0.1,0,0.2c0,0.1,0,0.1,0,0.1
					v2.6h-0.6v-3.9h0.3c0,0,0.1,0,0.1,0s0,0,0.1,0c0,0,0,0,0,0c0,0,0,0,0,0.1l2.2,2.8c0-0.1,0-0.1,0-0.2c0-0.1,0-0.1,0-0.2v-2.6
					H312.8z"/>
				<path class="st30" d="M316.9,897.7c0,0.3,0,0.6-0.1,0.8c-0.1,0.2-0.2,0.4-0.4,0.6c-0.2,0.2-0.4,0.3-0.6,0.4
					c-0.2,0.1-0.5,0.1-0.8,0.1h-1.5v-3.9h1.5c0.3,0,0.6,0,0.8,0.1c0.2,0.1,0.4,0.2,0.6,0.4c0.2,0.2,0.3,0.4,0.4,0.6
					C316.8,897.1,316.9,897.4,316.9,897.7z M316.2,897.7c0-0.2,0-0.4-0.1-0.6c-0.1-0.2-0.1-0.3-0.3-0.5c-0.1-0.1-0.3-0.2-0.4-0.3
					c-0.2-0.1-0.3-0.1-0.5-0.1h-0.8v2.9h0.8c0.2,0,0.4,0,0.5-0.1c0.2-0.1,0.3-0.2,0.4-0.3c0.1-0.1,0.2-0.3,0.3-0.5
					C316.2,898.1,316.2,897.9,316.2,897.7z"/>
			</g>
			<g>
				<path class="st30" d="M294.3,902.4h-0.2c0,0-0.1,0-0.1,0l-0.3-0.4c0,0,0,0,0,0c0,0,0,0,0,0h-0.1v0.5h-0.2v-1.2h0.3
					c0.1,0,0.1,0,0.2,0c0.1,0,0.1,0,0.1,0.1c0,0,0.1,0.1,0.1,0.1c0,0,0,0.1,0,0.1c0,0,0,0.1,0,0.1c0,0,0,0.1-0.1,0.1
					c0,0-0.1,0.1-0.1,0.1c0,0-0.1,0-0.1,0c0,0,0,0,0.1,0.1L294.3,902.4z M293.8,901.8c0,0,0.1,0,0.1,0c0,0,0.1,0,0.1,0
					c0,0,0,0,0.1-0.1c0,0,0-0.1,0-0.1c0-0.1,0-0.1-0.1-0.2c0,0-0.1-0.1-0.2-0.1h-0.2v0.4H293.8z"/>
				<path class="st30" d="M295.9,902.3l0,0.1h-0.7v-1.2h0.7v0.1h-0.6v0.4h0.5v0.1h-0.5v0.4H295.9z"/>
				<path class="st30" d="M297.8,902.4h-0.1c0,0,0,0,0,0c0,0,0,0,0,0l-0.1-0.3h-0.5l-0.1,0.3c0,0,0,0,0,0c0,0,0,0,0,0h-0.1l0.5-1.2
					h0.2L297.8,902.4z M297.4,902l-0.2-0.5c0,0,0-0.1,0-0.1c0,0,0,0,0,0.1c0,0,0,0,0,0.1L297,902H297.4z"/>
				<path class="st30" d="M299.3,902.2v0.1h-0.7v-1.2h0.2v1H299.3z"/>
				<path class="st30" d="M301.9,902.3l0,0.1h-0.7v-1.2h0.7v0.1h-0.6v0.4h0.5v0.1h-0.5v0.4H301.9z"/>
				<path class="st30" d="M303.4,901.4C303.4,901.4,303.4,901.4,303.4,901.4C303.4,901.4,303.4,901.4,303.4,901.4
					C303.3,901.4,303.3,901.4,303.4,901.4c-0.1,0-0.1,0-0.1,0c0,0,0,0-0.1,0c0,0-0.1,0-0.1,0c0,0-0.1,0-0.1,0c0,0,0,0-0.1,0
					c0,0,0,0,0,0.1c0,0,0,0,0,0.1c0,0,0,0.1,0,0.1c0,0,0,0,0.1,0.1c0,0,0.1,0,0.1,0c0,0,0.1,0,0.1,0c0,0,0.1,0,0.1,0
					c0,0,0.1,0,0.1,0.1c0,0,0,0.1,0.1,0.1c0,0,0,0.1,0,0.1c0,0.1,0,0.1,0,0.1c0,0,0,0.1-0.1,0.1c0,0-0.1,0.1-0.1,0.1
					c-0.1,0-0.1,0-0.2,0c0,0-0.1,0-0.1,0c0,0-0.1,0-0.1,0c0,0-0.1,0-0.1,0c0,0-0.1,0-0.1-0.1l0.1-0.1c0,0,0,0,0,0c0,0,0,0,0,0
					c0,0,0,0,0,0c0,0,0,0,0.1,0c0,0,0,0,0.1,0c0,0,0.1,0,0.1,0c0,0,0.1,0,0.1,0s0.1,0,0.1,0c0,0,0,0,0-0.1c0,0,0-0.1,0-0.1
					c0,0,0-0.1,0-0.1c0,0,0,0-0.1-0.1c0,0-0.1,0-0.1,0c0,0-0.1,0-0.1,0c0,0-0.1,0-0.1,0s-0.1,0-0.1-0.1c0,0,0-0.1-0.1-0.1
					c0,0,0-0.1,0-0.1c0,0,0-0.1,0-0.1c0,0,0-0.1,0.1-0.1c0,0,0.1-0.1,0.1-0.1c0,0,0.1,0,0.2,0c0.1,0,0.1,0,0.2,0
					C303.3,901.2,303.4,901.3,303.4,901.4L303.4,901.4z"/>
				<path class="st30" d="M305.2,901.3h-0.4v1h-0.2v-1h-0.4v-0.1h0.9V901.3z"/>
				<path class="st30" d="M306.9,902.4h-0.1c0,0,0,0,0,0c0,0,0,0,0,0l-0.1-0.3H306l-0.1,0.3c0,0,0,0,0,0c0,0,0,0,0,0h-0.1l0.5-1.2
					h0.2L306.9,902.4z M306.5,902l-0.2-0.5c0,0,0-0.1,0-0.1c0,0,0,0,0,0.1c0,0,0,0,0,0.1l-0.2,0.5H306.5z"/>
				<path class="st30" d="M308.5,901.3h-0.4v1h-0.2v-1h-0.4v-0.1h0.9V901.3z"/>
				<path class="st30" d="M310.1,902.3l0,0.1h-0.7v-1.2h0.7v0.1h-0.6v0.4h0.5v0.1h-0.5v0.4H310.1z"/>
			</g>
		</g>
	</g>
	<g>
		
			<image style="overflow:visible;opacity:0.3;" width="607" height="607" xlink:href="FA669CB7.png"  transform="matrix(0.24 0 0 0.24 4.6122 880.7603)">
		</image>
		<g>
			<path class="st1" d="M104.8,983.7H50c-1.5,0-2.8-1.3-2.8-2.8v-54.7c0-1.5,1.3-2.8,2.8-2.8h54.7c1.5,0,2.8,1.3,2.8,2.8v54.7
				C107.6,982.5,106.3,983.7,104.8,983.7z"/>
		</g>
	</g>
	<g>
		
			<image style="overflow:visible;opacity:0.3;" width="607" height="607" xlink:href="FA669CB2.png"  transform="matrix(0.24 0 0 0.24 117.8922 880.7603)">
		</image>
		<g>
			<path class="st52" d="M218.1,983.7h-54.7c-1.5,0-2.8-1.3-2.8-2.8v-54.7c0-1.5,1.3-2.8,2.8-2.8h54.7c1.5,0,2.8,1.3,2.8,2.8v54.7
				C220.9,982.5,219.6,983.7,218.1,983.7z"/>
		</g>
	</g>
	<g>
		
			<image style="overflow:visible;opacity:0.3;" width="607" height="607" xlink:href="FA669CBD.png"  transform="matrix(0.24 0 0 0.24 229.0122 880.7603)">
		</image>
		<g>
			<path class="st52" d="M329.1,983.7h-54.7c-1.5,0-2.8-1.3-2.8-2.8v-54.7c0-1.5,1.3-2.8,2.8-2.8h54.7c1.5,0,2.8,1.3,2.8,2.8v54.7
				C331.9,982.5,330.7,983.7,329.1,983.7z"/>
		</g>
	</g>
	<g>
		<g>
			<g>
				<g>
					<path class="st0" d="M77.4,940.9l18.1,14.7c0,0-0.4-6.7-4.6-9.7C86.7,942.8,77.4,940.9,77.4,940.9z"/>
					<path class="st0" d="M77.4,940.9l17.8-0.6c0,0-3.6-3.7-7.5-3.3S77.4,940.9,77.4,940.9z"/>
					<path class="st0" d="M77.4,940.9l6.9-7.1c0,0-2.8-0.1-4.3,1.5C78.6,937,77.4,940.9,77.4,940.9z"/>
					<path class="st0" d="M77.4,940.9l-18.1,14.7c0,0,0.5-6.9,4.8-9.9S77.4,940.9,77.4,940.9z"/>
					<path class="st0" d="M77.4,940.9l-17.8-0.6c0,0,3.6-3.5,7.5-3.3C71.1,937.2,77.4,940.9,77.4,940.9z"/>
					<path class="st0" d="M77.4,940.9l-7.1-6.8c0,0,3-0.3,4.5,1.3C76.2,937,77.4,940.9,77.4,940.9z"/>
				</g>
				<rect x="75.4" y="952.6" class="st0" width="3.9" height="8.6"/>
			</g>
			<g>
				<g>
					<path class="st0" d="M63.6,966.6c0.3,0,0.5,0,0.7,0.1c0.2,0.1,0.3,0.1,0.5,0.3c0.1,0.1,0.2,0.2,0.3,0.4
						c0.1,0.2,0.1,0.3,0.1,0.5c0,0.2,0,0.4-0.1,0.5c-0.1,0.2-0.2,0.3-0.3,0.4c-0.1,0.1-0.3,0.2-0.5,0.3c-0.2,0.1-0.4,0.1-0.7,0.1H63
						v1.4h-0.6v-3.9H63.6z M63.6,968.6c0.1,0,0.3,0,0.4-0.1c0.1,0,0.2-0.1,0.3-0.2c0.1-0.1,0.1-0.1,0.2-0.2c0-0.1,0.1-0.2,0.1-0.3
						c0-0.1,0-0.2-0.1-0.3c0-0.1-0.1-0.2-0.2-0.2c-0.1-0.1-0.2-0.1-0.3-0.1c-0.1,0-0.2-0.1-0.4-0.1H63v1.5H63.6z"/>
					<path class="st0" d="M68.6,970.5h-0.5c-0.1,0-0.1,0-0.1,0c0,0-0.1-0.1-0.1-0.1l-0.3-0.9h-1.7l-0.3,0.9c0,0,0,0.1-0.1,0.1
						s-0.1,0-0.1,0h-0.5l1.6-3.9H67L68.6,970.5z M67.4,969l-0.5-1.4c0-0.1-0.1-0.3-0.1-0.4c0,0.1,0,0.2-0.1,0.2c0,0.1,0,0.1-0.1,0.2
						L66,969H67.4z"/>
					<path class="st0" d="M71.3,970v0.5h-2.3v-3.9h0.6v3.4H71.3z"/>
					<path class="st0" d="M76,966.6v3.9h-0.6v-2.7c0,0,0-0.1,0-0.1c0-0.1,0-0.1,0-0.2l-1.3,2.3c0,0.1-0.1,0.1-0.2,0.1h-0.1
						c-0.1,0-0.2,0-0.2-0.1l-1.3-2.3c0,0.1,0,0.1,0,0.2c0,0.1,0,0.1,0,0.1v2.7h-0.6v-3.9h0.5c0.1,0,0.1,0,0.1,0s0.1,0,0.1,0.1
						l1.3,2.3c0,0.1,0.1,0.1,0.1,0.2c0,0.1,0,0.1,0.1,0.2c0-0.1,0-0.1,0.1-0.2c0-0.1,0.1-0.1,0.1-0.2l1.2-2.3c0-0.1,0.1-0.1,0.1-0.1
						c0,0,0.1,0,0.1,0H76z"/>
					<path class="st0" d="M80.5,970v0.5h-2.3v-3.9h0.6v3.4H80.5z"/>
					<path class="st0" d="M84.7,970.5h-0.5c-0.1,0-0.1,0-0.1,0c0,0-0.1-0.1-0.1-0.1l-0.3-0.9H82l-0.3,0.9c0,0,0,0.1-0.1,0.1
						s-0.1,0-0.1,0H81l1.6-3.9h0.6L84.7,970.5z M83.5,969l-0.5-1.4c0-0.1-0.1-0.3-0.1-0.4c0,0.1,0,0.2-0.1,0.2c0,0.1,0,0.1-0.1,0.2
						l-0.5,1.4H83.5z"/>
					<path class="st0" d="M88.5,966.6v3.9h-0.3c0,0-0.1,0-0.1,0c0,0-0.1,0-0.1-0.1l-2.2-2.8c0,0.1,0,0.1,0,0.2c0,0.1,0,0.1,0,0.1
						v2.6h-0.6v-3.9h0.3c0,0,0.1,0,0.1,0c0,0,0,0,0.1,0s0,0,0,0c0,0,0,0,0,0.1l2.2,2.8c0-0.1,0-0.1,0-0.2c0-0.1,0-0.1,0-0.2v-2.6
						H88.5z"/>
					<path class="st0" d="M92.5,968.5c0,0.3,0,0.6-0.1,0.8c-0.1,0.2-0.2,0.4-0.4,0.6c-0.2,0.2-0.4,0.3-0.6,0.4
						c-0.2,0.1-0.5,0.1-0.8,0.1h-1.5v-3.9h1.5c0.3,0,0.6,0,0.8,0.1c0.2,0.1,0.4,0.2,0.6,0.4c0.2,0.2,0.3,0.4,0.4,0.6
						C92.5,968,92.5,968.3,92.5,968.5z M91.9,968.5c0-0.2,0-0.4-0.1-0.6c-0.1-0.2-0.1-0.3-0.3-0.5c-0.1-0.1-0.3-0.2-0.4-0.3
						c-0.2-0.1-0.3-0.1-0.5-0.1h-0.8v2.9h0.8c0.2,0,0.4,0,0.5-0.1c0.2-0.1,0.3-0.2,0.4-0.3c0.1-0.1,0.2-0.3,0.3-0.5
						C91.8,969,91.9,968.8,91.9,968.5z"/>
				</g>
				<g>
					<path class="st0" d="M70,973.3h-0.2c0,0-0.1,0-0.1,0l-0.3-0.4c0,0,0,0,0,0c0,0,0,0,0,0h-0.1v0.5h-0.2v-1.2h0.3
						c0.1,0,0.1,0,0.2,0s0.1,0,0.1,0.1c0,0,0.1,0.1,0.1,0.1c0,0,0,0.1,0,0.1c0,0,0,0.1,0,0.1c0,0,0,0.1-0.1,0.1c0,0-0.1,0.1-0.1,0.1
						c0,0-0.1,0-0.1,0c0,0,0,0,0.1,0.1L70,973.3z M69.4,972.6c0,0,0.1,0,0.1,0s0.1,0,0.1,0c0,0,0,0,0.1-0.1c0,0,0-0.1,0-0.1
						c0-0.1,0-0.1-0.1-0.2c0,0-0.1-0.1-0.2-0.1h-0.2v0.4H69.4z"/>
					<path class="st0" d="M71.5,973.1l0,0.1h-0.7v-1.2h0.7v0.1H71v0.4h0.5v0.1H71v0.4H71.5z"/>
					<path class="st0" d="M73.4,973.3h-0.1c0,0,0,0,0,0c0,0,0,0,0,0l-0.1-0.3h-0.5l-0.1,0.3c0,0,0,0,0,0c0,0,0,0,0,0h-0.1l0.5-1.2
						h0.2L73.4,973.3z M73.1,972.8l-0.2-0.5c0,0,0-0.1,0-0.1c0,0,0,0,0,0.1c0,0,0,0,0,0.1l-0.2,0.5H73.1z"/>
					<path class="st0" d="M74.9,973.1v0.1h-0.7v-1.2h0.2v1H74.9z"/>
					<path class="st0" d="M77.5,973.1l0,0.1h-0.7v-1.2h0.7v0.1H77v0.4h0.5v0.1H77v0.4H77.5z"/>
					<path class="st0" d="M79,972.3C79,972.3,79,972.3,79,972.3C79,972.3,79,972.3,79,972.3C79,972.3,79,972.3,79,972.3
						c-0.1,0-0.1,0-0.1,0c0,0,0,0-0.1,0c0,0-0.1,0-0.1,0c0,0-0.1,0-0.1,0c0,0,0,0-0.1,0s0,0,0,0.1c0,0,0,0,0,0.1c0,0,0,0.1,0,0.1
						c0,0,0,0,0.1,0.1c0,0,0.1,0,0.1,0c0,0,0.1,0,0.1,0c0,0,0.1,0,0.1,0c0,0,0.1,0,0.1,0.1c0,0,0,0.1,0.1,0.1c0,0,0,0.1,0,0.1
						c0,0.1,0,0.1,0,0.1c0,0,0,0.1-0.1,0.1c0,0-0.1,0.1-0.1,0.1c-0.1,0-0.1,0-0.2,0c0,0-0.1,0-0.1,0c0,0-0.1,0-0.1,0
						c0,0-0.1,0-0.1,0c0,0-0.1,0-0.1-0.1l0.1-0.1c0,0,0,0,0,0c0,0,0,0,0,0c0,0,0,0,0,0c0,0,0,0,0.1,0c0,0,0,0,0.1,0c0,0,0.1,0,0.1,0
						c0,0,0.1,0,0.1,0s0.1,0,0.1,0c0,0,0,0,0-0.1c0,0,0-0.1,0-0.1c0,0,0-0.1,0-0.1c0,0,0,0-0.1-0.1s-0.1,0-0.1,0c0,0-0.1,0-0.1,0
						c0,0-0.1,0-0.1,0c0,0-0.1,0-0.1-0.1c0,0,0-0.1-0.1-0.1c0,0,0-0.1,0-0.1c0,0,0-0.1,0-0.1c0,0,0-0.1,0.1-0.1c0,0,0.1-0.1,0.1-0.1
						c0,0,0.1,0,0.2,0c0.1,0,0.1,0,0.2,0C79,972.1,79,972.1,79,972.3L79,972.3z"/>
					<path class="st0" d="M80.8,972.2h-0.4v1h-0.2v-1h-0.4v-0.1h0.9V972.2z"/>
					<path class="st0" d="M82.5,973.3h-0.1c0,0,0,0,0,0c0,0,0,0,0,0l-0.1-0.3h-0.5l-0.1,0.3c0,0,0,0,0,0c0,0,0,0,0,0h-0.1l0.5-1.2
						H82L82.5,973.3z M82.2,972.8l-0.2-0.5c0,0,0-0.1,0-0.1c0,0,0,0,0,0.1c0,0,0,0,0,0.1l-0.2,0.5H82.2z"/>
					<path class="st0" d="M84.1,972.2h-0.4v1h-0.2v-1h-0.4v-0.1h0.9V972.2z"/>
					<path class="st0" d="M85.7,973.1l0,0.1H85v-1.2h0.7v0.1h-0.6v0.4h0.5v0.1h-0.5v0.4H85.7z"/>
				</g>
			</g>
		</g>
	</g>
	<g>
		<g>
			<g>
				<path class="st0" d="M190.7,940.9l18.1,14.7c0,0-0.4-6.7-4.6-9.7C200,942.8,190.7,940.9,190.7,940.9z"/>
				<path class="st0" d="M190.7,940.9l17.8-0.6c0,0-3.6-3.7-7.5-3.3C197,937.3,190.7,940.9,190.7,940.9z"/>
				<path class="st0" d="M190.7,940.9l6.9-7.1c0,0-2.8-0.1-4.3,1.5C191.9,937,190.7,940.9,190.7,940.9z"/>
				<path class="st0" d="M190.7,940.9l-18.1,14.7c0,0,0.5-6.9,4.8-9.9S190.7,940.9,190.7,940.9z"/>
				<path class="st0" d="M190.7,940.9l-17.8-0.6c0,0,3.6-3.5,7.5-3.3C184.4,937.2,190.7,940.9,190.7,940.9z"/>
				<path class="st0" d="M190.7,940.9l-7.1-6.8c0,0,3-0.3,4.5,1.3C189.5,937,190.7,940.9,190.7,940.9z"/>
			</g>
			<rect x="188.7" y="952.6" class="st0" width="3.9" height="8.6"/>
		</g>
		<g>
			<g>
				<path class="st0" d="M176.9,966.6c0.3,0,0.5,0,0.7,0.1c0.2,0.1,0.3,0.1,0.5,0.3c0.1,0.1,0.2,0.2,0.3,0.4
					c0.1,0.2,0.1,0.3,0.1,0.5c0,0.2,0,0.4-0.1,0.5c-0.1,0.2-0.2,0.3-0.3,0.4c-0.1,0.1-0.3,0.2-0.5,0.3c-0.2,0.1-0.4,0.1-0.7,0.1
					h-0.6v1.4h-0.6v-3.9H176.9z M176.9,968.6c0.1,0,0.3,0,0.4-0.1c0.1,0,0.2-0.1,0.3-0.2c0.1-0.1,0.1-0.1,0.2-0.2
					c0-0.1,0.1-0.2,0.1-0.3c0-0.1,0-0.2-0.1-0.3c0-0.1-0.1-0.2-0.2-0.2c-0.1-0.1-0.2-0.1-0.3-0.1c-0.1,0-0.2-0.1-0.4-0.1h-0.6v1.5
					H176.9z"/>
				<path class="st0" d="M181.9,970.5h-0.5c-0.1,0-0.1,0-0.1,0c0,0-0.1-0.1-0.1-0.1l-0.3-0.9h-1.7l-0.3,0.9c0,0,0,0.1-0.1,0.1
					s-0.1,0-0.1,0h-0.5l1.6-3.9h0.6L181.9,970.5z M180.7,969l-0.5-1.4c0-0.1-0.1-0.3-0.1-0.4c0,0.1,0,0.2-0.1,0.2
					c0,0.1,0,0.1-0.1,0.2l-0.5,1.4H180.7z"/>
				<path class="st0" d="M184.7,970v0.5h-2.3v-3.9h0.6v3.4H184.7z"/>
				<path class="st0" d="M189.3,966.6v3.9h-0.6v-2.7c0,0,0-0.1,0-0.1c0-0.1,0-0.1,0-0.2l-1.3,2.3c0,0.1-0.1,0.1-0.2,0.1h-0.1
					c-0.1,0-0.2,0-0.2-0.1l-1.3-2.3c0,0.1,0,0.1,0,0.2c0,0.1,0,0.1,0,0.1v2.7h-0.6v-3.9h0.5c0.1,0,0.1,0,0.1,0s0.1,0,0.1,0.1
					l1.3,2.3c0,0.1,0.1,0.1,0.1,0.2c0,0.1,0,0.1,0.1,0.2c0-0.1,0-0.1,0.1-0.2c0-0.1,0.1-0.1,0.1-0.2l1.2-2.3c0-0.1,0.1-0.1,0.1-0.1
					c0,0,0.1,0,0.1,0H189.3z"/>
				<path class="st0" d="M193.8,970v0.5h-2.3v-3.9h0.6v3.4H193.8z"/>
				<path class="st0" d="M198.1,970.5h-0.5c-0.1,0-0.1,0-0.1,0c0,0-0.1-0.1-0.1-0.1l-0.3-0.9h-1.7l-0.3,0.9c0,0,0,0.1-0.1,0.1
					s-0.1,0-0.1,0h-0.5l1.6-3.9h0.6L198.1,970.5z M196.8,969l-0.5-1.4c0-0.1-0.1-0.3-0.1-0.4c0,0.1,0,0.2-0.1,0.2
					c0,0.1,0,0.1-0.1,0.2l-0.5,1.4H196.8z"/>
				<path class="st0" d="M201.8,966.6v3.9h-0.3c0,0-0.1,0-0.1,0c0,0-0.1,0-0.1-0.1l-2.2-2.8c0,0.1,0,0.1,0,0.2c0,0.1,0,0.1,0,0.1
					v2.6h-0.6v-3.9h0.3c0,0,0.1,0,0.1,0c0,0,0,0,0.1,0c0,0,0,0,0,0c0,0,0,0,0,0.1l2.2,2.8c0-0.1,0-0.1,0-0.2c0-0.1,0-0.1,0-0.2v-2.6
					H201.8z"/>
				<path class="st0" d="M205.8,968.5c0,0.3,0,0.6-0.1,0.8c-0.1,0.2-0.2,0.4-0.4,0.6c-0.2,0.2-0.4,0.3-0.6,0.4
					c-0.2,0.1-0.5,0.1-0.8,0.1h-1.5v-3.9h1.5c0.3,0,0.6,0,0.8,0.1c0.2,0.1,0.4,0.2,0.6,0.4c0.2,0.2,0.3,0.4,0.4,0.6
					C205.8,968,205.8,968.3,205.8,968.5z M205.2,968.5c0-0.2,0-0.4-0.1-0.6c-0.1-0.2-0.1-0.3-0.3-0.5c-0.1-0.1-0.3-0.2-0.4-0.3
					c-0.2-0.1-0.3-0.1-0.5-0.1H203v2.9h0.8c0.2,0,0.4,0,0.5-0.1c0.2-0.1,0.3-0.2,0.4-0.3c0.1-0.1,0.2-0.3,0.3-0.5
					C205.1,969,205.2,968.8,205.2,968.5z"/>
			</g>
			<g>
				<path class="st0" d="M183.3,973.3h-0.2c0,0-0.1,0-0.1,0l-0.3-0.4c0,0,0,0,0,0c0,0,0,0,0,0h-0.1v0.5h-0.2v-1.2h0.3
					c0.1,0,0.1,0,0.2,0s0.1,0,0.1,0.1c0,0,0.1,0.1,0.1,0.1c0,0,0,0.1,0,0.1c0,0,0,0.1,0,0.1c0,0,0,0.1-0.1,0.1c0,0-0.1,0.1-0.1,0.1
					c0,0-0.1,0-0.1,0c0,0,0,0,0.1,0.1L183.3,973.3z M182.7,972.6c0,0,0.1,0,0.1,0s0.1,0,0.1,0c0,0,0,0,0.1-0.1c0,0,0-0.1,0-0.1
					c0-0.1,0-0.1-0.1-0.2c0,0-0.1-0.1-0.2-0.1h-0.2v0.4H182.7z"/>
				<path class="st0" d="M184.8,973.1l0,0.1h-0.7v-1.2h0.7v0.1h-0.6v0.4h0.5v0.1h-0.5v0.4H184.8z"/>
				<path class="st0" d="M186.7,973.3h-0.1c0,0,0,0,0,0c0,0,0,0,0,0l-0.1-0.3h-0.5l-0.1,0.3c0,0,0,0,0,0c0,0,0,0,0,0h-0.1l0.5-1.2
					h0.2L186.7,973.3z M186.4,972.8l-0.2-0.5c0,0,0-0.1,0-0.1c0,0,0,0,0,0.1c0,0,0,0,0,0.1l-0.2,0.5H186.4z"/>
				<path class="st0" d="M188.2,973.1v0.1h-0.7v-1.2h0.2v1H188.2z"/>
				<path class="st0" d="M190.8,973.1l0,0.1h-0.7v-1.2h0.7v0.1h-0.6v0.4h0.5v0.1h-0.5v0.4H190.8z"/>
				<path class="st0" d="M192.3,972.3C192.3,972.3,192.3,972.3,192.3,972.3C192.3,972.3,192.3,972.3,192.3,972.3
					C192.3,972.3,192.3,972.3,192.3,972.3c-0.1,0-0.1,0-0.1,0c0,0,0,0-0.1,0c0,0-0.1,0-0.1,0c0,0-0.1,0-0.1,0c0,0,0,0-0.1,0
					s0,0,0,0.1c0,0,0,0,0,0.1c0,0,0,0.1,0,0.1c0,0,0,0,0.1,0.1c0,0,0.1,0,0.1,0c0,0,0.1,0,0.1,0c0,0,0.1,0,0.1,0c0,0,0.1,0,0.1,0.1
					c0,0,0,0.1,0.1,0.1c0,0,0,0.1,0,0.1c0,0.1,0,0.1,0,0.1c0,0,0,0.1-0.1,0.1c0,0-0.1,0.1-0.1,0.1c-0.1,0-0.1,0-0.2,0
					c0,0-0.1,0-0.1,0c0,0-0.1,0-0.1,0c0,0-0.1,0-0.1,0c0,0-0.1,0-0.1-0.1l0.1-0.1c0,0,0,0,0,0c0,0,0,0,0,0c0,0,0,0,0,0
					c0,0,0,0,0.1,0c0,0,0,0,0.1,0c0,0,0.1,0,0.1,0c0,0,0.1,0,0.1,0c0,0,0.1,0,0.1,0c0,0,0,0,0-0.1c0,0,0-0.1,0-0.1c0,0,0-0.1,0-0.1
					c0,0,0,0-0.1-0.1s-0.1,0-0.1,0c0,0-0.1,0-0.1,0c0,0-0.1,0-0.1,0s-0.1,0-0.1-0.1c0,0,0-0.1-0.1-0.1c0,0,0-0.1,0-0.1
					c0,0,0-0.1,0-0.1c0,0,0-0.1,0.1-0.1c0,0,0.1-0.1,0.1-0.1c0,0,0.1,0,0.2,0c0.1,0,0.1,0,0.2,0
					C192.3,972.1,192.3,972.1,192.3,972.3L192.3,972.3z"/>
				<path class="st0" d="M194.1,972.2h-0.4v1h-0.2v-1h-0.4v-0.1h0.9V972.2z"/>
				<path class="st0" d="M195.8,973.3h-0.1c0,0,0,0,0,0c0,0,0,0,0,0l-0.1-0.3H195l-0.1,0.3c0,0,0,0,0,0c0,0,0,0,0,0h-0.1l0.5-1.2
					h0.2L195.8,973.3z M195.5,972.8l-0.2-0.5c0,0,0-0.1,0-0.1c0,0,0,0,0,0.1c0,0,0,0,0,0.1l-0.2,0.5H195.5z"/>
				<path class="st0" d="M197.4,972.2h-0.4v1h-0.2v-1h-0.4v-0.1h0.9V972.2z"/>
				<path class="st0" d="M199,973.1l0,0.1h-0.7v-1.2h0.7v0.1h-0.6v0.4h0.5v0.1h-0.5v0.4H199z"/>
			</g>
		</g>
	</g>
	<g>
		<g>
			<g>
				<path class="st43" d="M301.8,940.9l18.1,14.7c0,0-0.4-6.7-4.6-9.7C311.1,942.8,301.8,940.9,301.8,940.9z"/>
				<path class="st43" d="M301.8,940.9l17.8-0.6c0,0-3.6-3.7-7.5-3.3S301.8,940.9,301.8,940.9z"/>
				<path class="st43" d="M301.8,940.9l6.9-7.1c0,0-2.8-0.1-4.3,1.5C303,937,301.8,940.9,301.8,940.9z"/>
				<path class="st43" d="M301.8,940.9l-18.1,14.7c0,0,0.5-6.9,4.8-9.9S301.8,940.9,301.8,940.9z"/>
				<path class="st43" d="M301.8,940.9l-17.8-0.6c0,0,3.6-3.5,7.5-3.3C295.4,937.2,301.8,940.9,301.8,940.9z"/>
				<path class="st43" d="M301.8,940.9l-7.1-6.8c0,0,3-0.3,4.5,1.3C300.6,937,301.8,940.9,301.8,940.9z"/>
			</g>
			<rect x="299.8" y="952.6" class="st43" width="3.9" height="8.6"/>
		</g>
		<g>
			<g>
				<path class="st43" d="M288,966.6c0.3,0,0.5,0,0.7,0.1c0.2,0.1,0.3,0.1,0.5,0.3c0.1,0.1,0.2,0.2,0.3,0.4c0.1,0.2,0.1,0.3,0.1,0.5
					c0,0.2,0,0.4-0.1,0.5c-0.1,0.2-0.2,0.3-0.3,0.4c-0.1,0.1-0.3,0.2-0.5,0.3c-0.2,0.1-0.4,0.1-0.7,0.1h-0.6v1.4h-0.6v-3.9H288z
					 M288,968.6c0.1,0,0.3,0,0.4-0.1c0.1,0,0.2-0.1,0.3-0.2c0.1-0.1,0.1-0.1,0.2-0.2c0-0.1,0.1-0.2,0.1-0.3c0-0.1,0-0.2-0.1-0.3
					c0-0.1-0.1-0.2-0.2-0.2c-0.1-0.1-0.2-0.1-0.3-0.1c-0.1,0-0.2-0.1-0.4-0.1h-0.6v1.5H288z"/>
				<path class="st43" d="M293,970.5h-0.5c-0.1,0-0.1,0-0.1,0c0,0-0.1-0.1-0.1-0.1l-0.3-0.9h-1.7l-0.3,0.9c0,0,0,0.1-0.1,0.1
					s-0.1,0-0.1,0h-0.5l1.6-3.9h0.6L293,970.5z M291.7,969l-0.5-1.4c0-0.1-0.1-0.3-0.1-0.4c0,0.1,0,0.2-0.1,0.2c0,0.1,0,0.1-0.1,0.2
					l-0.5,1.4H291.7z"/>
				<path class="st43" d="M295.7,970v0.5h-2.3v-3.9h0.6v3.4H295.7z"/>
				<path class="st43" d="M300.4,966.6v3.9h-0.6v-2.7c0,0,0-0.1,0-0.1c0-0.1,0-0.1,0-0.2l-1.3,2.3c0,0.1-0.1,0.1-0.2,0.1h-0.1
					c-0.1,0-0.2,0-0.2-0.1l-1.3-2.3c0,0.1,0,0.1,0,0.2c0,0.1,0,0.1,0,0.1v2.7h-0.6v-3.9h0.5c0.1,0,0.1,0,0.1,0s0.1,0,0.1,0.1
					l1.3,2.3c0,0.1,0.1,0.1,0.1,0.2c0,0.1,0,0.1,0.1,0.2c0-0.1,0-0.1,0.1-0.2c0-0.1,0.1-0.1,0.1-0.2l1.2-2.3c0-0.1,0.1-0.1,0.1-0.1
					c0,0,0.1,0,0.1,0H300.4z"/>
				<path class="st43" d="M304.9,970v0.5h-2.3v-3.9h0.6v3.4H304.9z"/>
				<path class="st43" d="M309.1,970.5h-0.5c-0.1,0-0.1,0-0.1,0c0,0-0.1-0.1-0.1-0.1l-0.3-0.9h-1.7l-0.3,0.9c0,0,0,0.1-0.1,0.1
					s-0.1,0-0.1,0h-0.5l1.6-3.9h0.6L309.1,970.5z M307.9,969l-0.5-1.4c0-0.1-0.1-0.3-0.1-0.4c0,0.1,0,0.2-0.1,0.2
					c0,0.1,0,0.1-0.1,0.2l-0.5,1.4H307.9z"/>
				<path class="st43" d="M312.8,966.6v3.9h-0.3c0,0-0.1,0-0.1,0c0,0-0.1,0-0.1-0.1l-2.2-2.8c0,0.1,0,0.1,0,0.2c0,0.1,0,0.1,0,0.1
					v2.6h-0.6v-3.9h0.3c0,0,0.1,0,0.1,0c0,0,0,0,0.1,0c0,0,0,0,0,0c0,0,0,0,0,0.1l2.2,2.8c0-0.1,0-0.1,0-0.2c0-0.1,0-0.1,0-0.2v-2.6
					H312.8z"/>
				<path class="st43" d="M316.9,968.5c0,0.3,0,0.6-0.1,0.8c-0.1,0.2-0.2,0.4-0.4,0.6c-0.2,0.2-0.4,0.3-0.6,0.4
					c-0.2,0.1-0.5,0.1-0.8,0.1h-1.5v-3.9h1.5c0.3,0,0.6,0,0.8,0.1c0.2,0.1,0.4,0.2,0.6,0.4c0.2,0.2,0.3,0.4,0.4,0.6
					C316.8,968,316.9,968.3,316.9,968.5z M316.2,968.5c0-0.2,0-0.4-0.1-0.6c-0.1-0.2-0.1-0.3-0.3-0.5c-0.1-0.1-0.3-0.2-0.4-0.3
					c-0.2-0.1-0.3-0.1-0.5-0.1h-0.8v2.9h0.8c0.2,0,0.4,0,0.5-0.1c0.2-0.1,0.3-0.2,0.4-0.3c0.1-0.1,0.2-0.3,0.3-0.5
					C316.2,969,316.2,968.8,316.2,968.5z"/>
			</g>
			<g>
				<path class="st43" d="M294.3,973.3h-0.2c0,0-0.1,0-0.1,0l-0.3-0.4c0,0,0,0,0,0c0,0,0,0,0,0h-0.1v0.5h-0.2v-1.2h0.3
					c0.1,0,0.1,0,0.2,0c0.1,0,0.1,0,0.1,0.1c0,0,0.1,0.1,0.1,0.1c0,0,0,0.1,0,0.1c0,0,0,0.1,0,0.1c0,0,0,0.1-0.1,0.1
					c0,0-0.1,0.1-0.1,0.1c0,0-0.1,0-0.1,0c0,0,0,0,0.1,0.1L294.3,973.3z M293.8,972.6c0,0,0.1,0,0.1,0c0,0,0.1,0,0.1,0
					c0,0,0,0,0.1-0.1c0,0,0-0.1,0-0.1c0-0.1,0-0.1-0.1-0.2c0,0-0.1-0.1-0.2-0.1h-0.2v0.4H293.8z"/>
				<path class="st43" d="M295.9,973.1l0,0.1h-0.7v-1.2h0.7v0.1h-0.6v0.4h0.5v0.1h-0.5v0.4H295.9z"/>
				<path class="st43" d="M297.8,973.3h-0.1c0,0,0,0,0,0c0,0,0,0,0,0l-0.1-0.3h-0.5l-0.1,0.3c0,0,0,0,0,0c0,0,0,0,0,0h-0.1l0.5-1.2
					h0.2L297.8,973.3z M297.4,972.8l-0.2-0.5c0,0,0-0.1,0-0.1c0,0,0,0,0,0.1c0,0,0,0,0,0.1l-0.2,0.5H297.4z"/>
				<path class="st43" d="M299.3,973.1v0.1h-0.7v-1.2h0.2v1H299.3z"/>
				<path class="st43" d="M301.9,973.1l0,0.1h-0.7v-1.2h0.7v0.1h-0.6v0.4h0.5v0.1h-0.5v0.4H301.9z"/>
				<path class="st43" d="M303.4,972.3C303.4,972.3,303.4,972.3,303.4,972.3C303.4,972.3,303.4,972.3,303.4,972.3
					C303.3,972.3,303.3,972.3,303.4,972.3c-0.1,0-0.1,0-0.1,0c0,0,0,0-0.1,0c0,0-0.1,0-0.1,0c0,0-0.1,0-0.1,0c0,0,0,0-0.1,0
					c0,0,0,0,0,0.1c0,0,0,0,0,0.1c0,0,0,0.1,0,0.1c0,0,0,0,0.1,0.1c0,0,0.1,0,0.1,0c0,0,0.1,0,0.1,0c0,0,0.1,0,0.1,0
					c0,0,0.1,0,0.1,0.1c0,0,0,0.1,0.1,0.1c0,0,0,0.1,0,0.1c0,0.1,0,0.1,0,0.1c0,0,0,0.1-0.1,0.1c0,0-0.1,0.1-0.1,0.1
					c-0.1,0-0.1,0-0.2,0c0,0-0.1,0-0.1,0c0,0-0.1,0-0.1,0c0,0-0.1,0-0.1,0c0,0-0.1,0-0.1-0.1l0.1-0.1c0,0,0,0,0,0c0,0,0,0,0,0
					c0,0,0,0,0,0c0,0,0,0,0.1,0c0,0,0,0,0.1,0c0,0,0.1,0,0.1,0c0,0,0.1,0,0.1,0s0.1,0,0.1,0c0,0,0,0,0-0.1c0,0,0-0.1,0-0.1
					c0,0,0-0.1,0-0.1c0,0,0,0-0.1-0.1c0,0-0.1,0-0.1,0c0,0-0.1,0-0.1,0c0,0-0.1,0-0.1,0s-0.1,0-0.1-0.1c0,0,0-0.1-0.1-0.1
					c0,0,0-0.1,0-0.1c0,0,0-0.1,0-0.1c0,0,0-0.1,0.1-0.1c0,0,0.1-0.1,0.1-0.1c0,0,0.1,0,0.2,0c0.1,0,0.1,0,0.2,0
					C303.3,972.1,303.4,972.1,303.4,972.3L303.4,972.3z"/>
				<path class="st43" d="M305.2,972.2h-0.4v1h-0.2v-1h-0.4v-0.1h0.9V972.2z"/>
				<path class="st43" d="M306.9,973.3h-0.1c0,0,0,0,0,0c0,0,0,0,0,0l-0.1-0.3H306l-0.1,0.3c0,0,0,0,0,0c0,0,0,0,0,0h-0.1l0.5-1.2
					h0.2L306.9,973.3z M306.5,972.8l-0.2-0.5c0,0,0-0.1,0-0.1c0,0,0,0,0,0.1c0,0,0,0,0,0.1l-0.2,0.5H306.5z"/>
				<path class="st43" d="M308.5,972.2h-0.4v1h-0.2v-1h-0.4v-0.1h0.9V972.2z"/>
				<path class="st43" d="M310.1,973.1l0,0.1h-0.7v-1.2h0.7v0.1h-0.6v0.4h0.5v0.1h-0.5v0.4H310.1z"/>
			</g>
		</g>
	</g>
	<text transform="matrix(1 0 0 1 47.2185 1044.4133)" class="st30 st2 st6">Lato Heavy</text>
	<text transform="matrix(1 0 0 1 160.5288 1044.4133)" class="st30 st5 st6">Lato Medium</text>
	<text transform="matrix(1 0 0 1 271.5886 1044.4133)" class="st30 st53 st6">Lato Light</text>
	<text transform="matrix(1 0 0 1 271.5882 1064.8389)" class="st30 st16 st6">Roboto Heavy</text>
	<text transform="matrix(1 0 0 1 160.5288 1064.8389)" class="st30 st54 st6">Roboto Medium</text>
	<text transform="matrix(1 0 0 1 47.2188 1064.8389)" class="st30 st55 st6">Roboto Light</text>
	<text transform="matrix(1 0 0 1 56.9288 1141.317)" class="st1 st10 st56">#EAB258</text>
	<text transform="matrix(1 0 0 1 50.6253 1121.5298)" class="st30 st10 st56">Primary</text>
	<text transform="matrix(1 0 0 1 50.6253 1160.3383)" class="st30 st10 st56">Secondary</text>
	<text transform="matrix(1 0 0 1 118.4044 1141.317)" class="st15 st10 st56">#FEDA85</text>
	<text transform="matrix(1 0 0 1 179.88 1141.317)" class="st39 st10 st56">#F2D19B</text>
	<text transform="matrix(1 0 0 1 241.3565 1141.317)" class="st40 st10 st56">#F7E0BC</text>
	<text transform="matrix(1 0 0 1 302.8331 1141.317)" class="st41 st10 st56">#FBF0DE</text>
	<g>
		<text transform="matrix(1 0 0 1 56.9288 1182.5001)" class="st0 st10 st56">#09212B</text>
	</g>
	<text transform="matrix(1 0 0 1 118.4044 1182.5001)" class="st42 st10 st56">#39545D</text>
	<text transform="matrix(1 0 0 1 179.88 1182.5001)" class="st43 st10 st56">#68878F</text>
	<text transform="matrix(1 0 0 1 241.3565 1182.5001)" class="st44 st10 st56">#98B9C0</text>
	<text transform="matrix(1 0 0 1 302.8331 1182.5001)" class="st30 st10 st56">#C7ECF2</text>
	<circle class="st0" cx="52.7" cy="1127.9" r="1.1"/>
	<circle class="st0" cx="114.2" cy="1127.9" r="1.1"/>
	<circle class="st1" cx="52.7" cy="1168.9" r="1.1"/>
</g>
</svg>
