<?xml version="1.0" encoding="utf-8"?>
<!-- Generator: Adobe Illustrator 26.0.1, SVG Export Plug-In . SVG Version: 6.00 Build 0)  -->
<svg version="1.1" xmlns="http://www.w3.org/2000/svg" xmlns:xlink="http://www.w3.org/1999/xlink" x="0px" y="0px"
	 viewBox="0 0 841.9 595.3" style="enable-background:new 0 0 841.9 595.3;" xml:space="preserve">
<style type="text/css">
	.st0{fill:#09212B;}
	.st1{fill:none;stroke:#EAB258;stroke-width:0.4811;stroke-linecap:round;stroke-miterlimit:10;}
	.st2{fill:#EAB258;}
	.st3{fill:url(#SVGID_1_);}
	.st4{fill:#FEDA85;}
	.st5{fill:url(#SVGID_00000001658633880755539790000017921729489678567586_);}
	.st6{fill:url(#SVGID_00000114035758606715201190000014869873281907401901_);}
	.st7{fill:url(#SVGID_00000127735181754329161940000015633541152841291420_);}
	.st8{fill:url(#SVGID_00000174566315475135368600000003684515308774585504_);}
	.st9{fill:url(#SVGID_00000164490460369329810810000007512973797871324088_);}
	.st10{fill:url(#SVGID_00000167390921983042209280000000204226142117083320_);}
	.st11{fill:url(#SVGID_00000092445842401942715950000001658146176069074328_);}
	.st12{opacity:3.000000e-02;}
	.st13{fill:#55C7FF;}
	.st14{opacity:4.000000e-02;}
	.st15{fill:#C7ECF2;}
	.st16{opacity:0.24;}
	.st17{opacity:0.5;}
	.st18{fill:none;stroke:#EAB258;stroke-width:5.000000e-02;stroke-miterlimit:10;stroke-dasharray:2;}
	.st19{fill:none;stroke:#EAB258;stroke-width:5.000000e-02;stroke-miterlimit:10;stroke-dasharray:1.9465,1.9465;}
	.st20{fill:none;stroke:#EAB258;stroke-width:5.000000e-02;stroke-miterlimit:10;stroke-dasharray:2.0162,2.0162;}
	.st21{fill:none;stroke:#EAB258;stroke-width:5.000000e-02;stroke-miterlimit:10;stroke-dasharray:2.0091,2.0091;}
	.st22{fill:none;stroke:#EAB258;stroke-width:5.000000e-02;stroke-miterlimit:10;stroke-dasharray:2.0473,2.0473;}
	.st23{fill:#EBF6F7;}
	.st24{fill:#F2D19B;}
	.st25{fill:#F7E0BC;}
	.st26{fill:#FBF0DE;}
	.st27{fill:#39545D;}
	.st28{fill:#68878F;}
	.st29{fill:#98B9C0;}
	.st30{fill:url(#SVGID_00000110462928582201998440000009550446886803351696_);}
	.st31{fill:url(#SVGID_00000145060514534179183580000006872294833078643120_);}
	.st32{fill:url(#SVGID_00000024708122680197176650000003900229398597144508_);}
	.st33{fill:url(#SVGID_00000170990244249274252490000014659242132167443118_);}
	.st34{fill:url(#SVGID_00000042727288059732555440000001921800714699370933_);}
	.st35{fill:url(#SVGID_00000078761723330469044140000004650773392233862056_);}
	.st36{fill:url(#SVGID_00000011731564281870554300000008510099823852357535_);}
	.st37{fill:#D7F1F4;}
	.st38{font-family:'Lato-Heavy';}
	.st39{font-size:23.3062px;}
	.st40{letter-spacing:2;}
	.st41{font-family:'Lato-Medium';}
	.st42{font-size:9px;}
	.st43{letter-spacing:4;}
	.st44{fill:none;}
	.st45{fill:#97C2CC;}
	.st46{font-family:'Roboto-Regular';}
	.st47{font-size:8px;}
	.st48{letter-spacing:25;}
	.st49{letter-spacing:1;}
	.st50{letter-spacing:3;}
	.st51{font-family:'Roboto-Bold';}
	.st52{font-size:12px;}
	.st53{fill:url(#SVGID_00000177459094595840421220000003663791532864781497_);}
	.st54{fill:url(#SVGID_00000170991432997672339920000006863028520545947539_);}
	.st55{fill:url(#SVGID_00000170268979084301596100000002990392709549122478_);}
	.st56{fill:url(#SVGID_00000036238001056860668570000014224901223990840466_);}
	.st57{fill:url(#SVGID_00000062185013753921266480000001667211894881266323_);}
	.st58{fill:url(#SVGID_00000065781798865039246320000005267346943204742591_);}
	.st59{fill:url(#SVGID_00000092445996715811503300000002235255478118686391_);}
	.st60{opacity:0.5;fill:none;stroke:#EAB258;stroke-width:5.000000e-02;stroke-miterlimit:10;stroke-dasharray:2;}
	.st61{fill:url(#SVGID_00000118389451542963879560000014300087372224796831_);}
	.st62{fill:url(#SVGID_00000145029551025311167540000003485137705702437027_);}
	.st63{fill:url(#SVGID_00000016063705310082355790000004446860761515272322_);}
	.st64{fill:url(#SVGID_00000040547039135582936820000002277617300102300328_);}
	.st65{fill:url(#SVGID_00000054240561647579916550000008113051646219385483_);}
	.st66{fill:url(#SVGID_00000019676684642192524900000015386961823286971560_);}
	.st67{fill:url(#SVGID_00000110462746642303079070000003238710185698162053_);}
	.st68{font-family:'Lato-Light';}
	.st69{font-family:'Roboto-Medium';}
	.st70{font-family:'Roboto-Light';}
	.st71{font-size:5.3316px;}
</style>
<g id="PRINT_2">
</g>
<g id="PRINT_1">
	<rect x="-8.5" y="-8.5" class="st0" width="858.9" height="612.3"/>
	<g>
		<line class="st1" x1="48.3" y1="566.1" x2="328.4" y2="566.1"/>
	</g>
	<path class="st23" d="M549.9,544.8h-39.7V525c0-1,0.8-1.9,1.9-1.9H548c1,0,1.9,0.8,1.9,1.9V544.8z"/>
	<g>
		<line class="st1" x1="511.1" y1="566.1" x2="793.6" y2="566.1"/>
	</g>
	<g>
		<text transform="matrix(1 0 0 1 48.4244 74.8838)"><tspan x="0" y="0" class="st2 st38 st39">Palm</tspan><tspan x="58.2" y="0" class="st2 st38 st39 st40"> L</tspan><tspan x="78.8" y="0" class="st2 st38 st39">and</tspan></text>
		<text transform="matrix(1 0 0 1 49.3975 87.2844)" class="st2 st41 st42 st43">Real Estate</text>
		<g>
			<rect x="48.3" y="136.7" class="st44" width="284.7" height="184"/>
			<text transform="matrix(1 0 0 1 48.3375 142.7495)"><tspan x="0" y="0" class="st45 st46 st47 st48">	</tspan><tspan x="27.3" y="0" class="st45 st46 st47">Palm</tspan><tspan x="45.7" y="0" class="st45 st46 st47 st40"> </tspan><tspan x="49.8" y="0" class="st45 st46 st47">Land</tspan><tspan x="67.4" y="0" class="st45 st46 st47 st40"> </tspan><tspan x="71.5" y="0" class="st45 st46 st47">Real</tspan><tspan x="86.9" y="0" class="st45 st46 st47 st40"> </tspan><tspan x="91" y="0" class="st45 st46 st47">Estate</tspan><tspan x="113.5" y="0" class="st45 st46 st47 st40"> </tspan><tspan x="117.6" y="0" class="st45 st46 st47">is</tspan><tspan x="123.6" y="0" class="st45 st46 st47 st40"> </tspan><tspan x="127.7" y="0" class="st45 st46 st47">a</tspan><tspan x="132.1" y="0" class="st45 st46 st47 st40"> </tspan><tspan x="136.2" y="0" class="st45 st46 st47">company</tspan><tspan x="169" y="0" class="st45 st46 st47 st40"> </tspan><tspan x="173.1" y="0" class="st45 st46 st47">that</tspan><tspan x="187" y="0" class="st45 st46 st47 st40"> </tspan><tspan x="191.1" y="0" class="st45 st46 st47">specializes</tspan><tspan x="230.7" y="0" class="st45 st46 st47 st40"> </tspan><tspan x="234.8" y="0" class="st45 st46 st47">in</tspan><tspan x="241.1" y="0" class="st45 st46 st47 st40"> </tspan><tspan x="245.2" y="0" class="st45 st46 st47">real</tspan><tspan x="258.4" y="0" class="st45 st46 st47 st40"> </tspan><tspan x="262.5" y="0" class="st45 st46 st47">estate </tspan><tspan x="0" y="9.6" class="st45 st46 st47">services,</tspan><tspan x="31" y="9.6" class="st45 st46 st47"> </tspan><tspan x="33.4" y="9.6" class="st45 st46 st47">including</tspan><tspan x="65.6" y="9.6" class="st45 st46 st47"> </tspan><tspan x="68" y="9.6" class="st45 st46 st47">property</tspan><tspan x="97.6" y="9.6" class="st45 st46 st47"> </tspan><tspan x="99.9" y="9.6" class="st45 st46 st47">management,</tspan><tspan x="148.6" y="9.6" class="st45 st46 st47"> </tspan><tspan x="151" y="9.6" class="st45 st46 st47">investment,</tspan><tspan x="192.1" y="9.6" class="st45 st46 st47"> </tspan><tspan x="194.4" y="9.6" class="st45 st46 st47">buying</tspan><tspan x="218" y="9.6" class="st45 st46 st47"> </tspan><tspan x="220.3" y="9.6" class="st45 st46 st47">on</tspan><tspan x="229.3" y="9.6" class="st45 st46 st47"> </tspan><tspan x="231.7" y="9.6" class="st45 st46 st47">brokerage,</tspan><tspan x="269.1" y="9.6" class="st45 st46 st47"> </tspan><tspan x="271.4" y="9.6" class="st45 st46 st47">and </tspan><tspan x="0" y="19.2" class="st45 st46 st47">selling.</tspan><tspan x="25.2" y="19.2" class="st45 st46 st47"> </tspan><tspan x="26.8" y="19.2" class="st45 st46 st47">The</tspan><tspan x="40.3" y="19.2" class="st45 st46 st47"> </tspan><tspan x="41.9" y="19.2" class="st45 st46 st47">company&apos;s</tspan><tspan x="80.2" y="19.2" class="st45 st46 st47"> </tspan><tspan x="81.9" y="19.2" class="st45 st46 st47">logo</tspan><tspan x="97.4" y="19.2" class="st45 st46 st47"> </tspan><tspan x="99.1" y="19.2" class="st45 st46 st47">is</tspan><tspan x="105.2" y="19.2" class="st45 st46 st47"> </tspan><tspan x="106.8" y="19.2" class="st45 st46 st47">a</tspan><tspan x="111.2" y="19.2" class="st45 st46 st47"> </tspan><tspan x="112.8" y="19.2" class="st45 st46 st47">significant</tspan><tspan x="150" y="19.2" class="st45 st46 st47"> </tspan><tspan x="151.7" y="19.2" class="st45 st46 st47">aspect</tspan><tspan x="175.7" y="19.2" class="st45 st46 st47"> </tspan><tspan x="177.3" y="19.2" class="st45 st46 st47">of</tspan><tspan x="184.7" y="19.2" class="st45 st46 st47"> </tspan><tspan x="186.3" y="19.2" class="st45 st46 st47">its</tspan><tspan x="195" y="19.2" class="st45 st46 st47"> </tspan><tspan x="196.6" y="19.2" class="st45 st46 st47">brand</tspan><tspan x="217.1" y="19.2" class="st45 st46 st47"> </tspan><tspan x="218.8" y="19.2" class="st45 st46 st47">identity</tspan><tspan x="244.8" y="19.2" class="st45 st46 st47"> </tspan><tspan x="246.5" y="19.2" class="st45 st46 st47">and</tspan><tspan x="259.7" y="19.2" class="st45 st46 st47"> </tspan><tspan x="261.4" y="19.2" class="st45 st46 st47">serves </tspan><tspan x="0" y="28.8" class="st45 st46 st47">as</tspan><tspan x="8.5" y="28.8" class="st45 st46 st47"> </tspan><tspan x="10.7" y="28.8" class="st45 st46 st47">a</tspan><tspan x="15.1" y="28.8" class="st45 st46 st47"> </tspan><tspan x="17.4" y="28.8" class="st45 st46 st47">symbol</tspan><tspan x="43.3" y="28.8" class="st45 st46 st47"> </tspan><tspan x="45.6" y="28.8" class="st45 st46 st47">of</tspan><tspan x="52.9" y="28.8" class="st45 st46 st47"> </tspan><tspan x="55.2" y="28.8" class="st45 st46 st47">its</tspan><tspan x="63.8" y="28.8" class="st45 st46 st47"> </tspan><tspan x="66.1" y="28.8" class="st45 st46 st47">values,</tspan><tspan x="90.6" y="28.8" class="st45 st46 st47"> </tspan><tspan x="92.9" y="28.8" class="st45 st46 st47">mission,</tspan><tspan x="122.6" y="28.8" class="st45 st46 st47"> </tspan><tspan x="124.9" y="28.8" class="st45 st46 st47">and</tspan><tspan x="138.1" y="28.8" class="st45 st46 st47"> </tspan><tspan x="140.4" y="28.8" class="st45 st46 st47">vision.</tspan><tspan x="163.4" y="28.8" class="st45 st46 st47"> </tspan><tspan x="165.6" y="28.8" class="st45 st46 st47">The</tspan><tspan x="179.1" y="28.8" class="st45 st46 st47"> </tspan><tspan x="181.3" y="28.8" class="st45 st46 st47">logo</tspan><tspan x="196.9" y="28.8" class="st45 st46 st47"> </tspan><tspan x="199.2" y="28.8" class="st45 st46 st47">features</tspan><tspan x="228.6" y="28.8" class="st45 st46 st47"> </tspan><tspan x="230.9" y="28.8" class="st45 st46 st47">a</tspan><tspan x="235.2" y="28.8" class="st45 st46 st47"> </tspan><tspan x="237.5" y="28.8" class="st45 st46 st47">stylized</tspan><tspan x="264.6" y="28.8" class="st45 st46 st47"> </tspan><tspan x="266.9" y="28.8" class="st45 st46 st47">palm </tspan><tspan x="0" y="38.4" class="st45 st46 st47">tree,</tspan><tspan x="15.4" y="38.4" class="st45 st46 st47"> </tspan><tspan x="18" y="38.4" class="st45 st46 st47">which</tspan><tspan x="38.9" y="38.4" class="st45 st46 st47"> </tspan><tspan x="41.5" y="38.4" class="st45 st46 st47">is</tspan><tspan x="47.6" y="38.4" class="st45 st46 st47"> </tspan><tspan x="50.1" y="38.4" class="st45 st46 st47">a</tspan><tspan x="54.5" y="38.4" class="st45 st46 st47"> </tspan><tspan x="57.1" y="38.4" class="st45 st46 st47">well-known</tspan><tspan x="96.9" y="38.4" class="st45 st46 st47"> </tspan><tspan x="99.5" y="38.4" class="st45 st46 st47">symbol</tspan><tspan x="125.4" y="38.4" class="st45 st46 st47"> </tspan><tspan x="128" y="38.4" class="st45 st46 st47">of</tspan><tspan x="135.3" y="38.4" class="st45 st46 st47"> </tspan><tspan x="137.9" y="38.4" class="st45 st46 st47">prosperity,</tspan><tspan x="175.1" y="38.4" class="st45 st46 st47"> </tspan><tspan x="177.7" y="38.4" class="st45 st46 st47">growth,</tspan><tspan x="204.1" y="38.4" class="st45 st46 st47"> </tspan><tspan x="206.6" y="38.4" class="st45 st46 st47">and</tspan><tspan x="219.9" y="38.4" class="st45 st46 st47"> </tspan><tspan x="222.5" y="38.4" class="st45 st46 st47">tropical</tspan><tspan x="249.3" y="38.4" class="st45 st46 st47"> </tspan><tspan x="251.9" y="38.4" class="st45 st46 st47">paradise. </tspan><tspan x="0" y="48" class="st45 st46 st47">The</tspan><tspan x="13.4" y="48" class="st45 st46 st47"> </tspan><tspan x="16.3" y="48" class="st45 st46 st47">palm</tspan><tspan x="34.1" y="48" class="st45 st46 st47"> </tspan><tspan x="37.1" y="48" class="st45 st46 st47">tree</tspan><tspan x="50.9" y="48" class="st45 st46 st47"> </tspan><tspan x="53.8" y="48" class="st45 st46 st47">is</tspan><tspan x="59.8" y="48" class="st45 st46 st47"> </tspan><tspan x="62.8" y="48" class="st45 st46 st47">depicted</tspan><tspan x="93.5" y="48" class="st45 st46 st47"> </tspan><tspan x="96.4" y="48" class="st45 st46 st47">in</tspan><tspan x="102.8" y="48" class="st45 st46 st47"> </tspan><tspan x="105.7" y="48" class="st45 st46 st47">a</tspan><tspan x="110" y="48" class="st45 st46 st47"> </tspan><tspan x="113" y="48" class="st45 st46 st47">bold</tspan><tspan x="128.5" y="48" class="st45 st46 st47"> </tspan><tspan x="131.4" y="48" class="st45 st46 st47">and</tspan><tspan x="144.7" y="48" class="st45 st46 st47"> </tspan><tspan x="147.6" y="48" class="st45 st46 st47">modern</tspan><tspan x="175" y="48" class="st45 st46 st47"> </tspan><tspan x="178" y="48" class="st45 st46 st47">style,</tspan><tspan x="196.2" y="48" class="st45 st46 st47"> </tspan><tspan x="199.2" y="48" class="st45 st46 st47">with</tspan><tspan x="214.1" y="48" class="st45 st46 st47"> </tspan><tspan x="217" y="48" class="st45 st46 st47">a</tspan><tspan x="221.4" y="48" class="st45 st46 st47"> </tspan><tspan x="224.3" y="48" class="st45 st46 st47">sleek,</tspan><tspan x="244.5" y="48" class="st45 st46 st47"> </tspan><tspan x="247.4" y="48" class="st45 st46 st47">minimalist </tspan><tspan x="0" y="57.6" class="st45 st46 st47">design</tspan><tspan x="23.7" y="57.6" class="st45 st46 st47"> </tspan><tspan x="26.6" y="57.6" class="st45 st46 st47">that</tspan><tspan x="40.5" y="57.6" class="st45 st46 st47"> </tspan><tspan x="43.4" y="57.6" class="st45 st46 st47">matches</tspan><tspan x="74.3" y="57.6" class="st45 st46 st47"> </tspan><tspan x="77.1" y="57.6" class="st45 st46 st47">the</tspan><tspan x="88.4" y="57.6" class="st45 st46 st47"> </tspan><tspan x="91.2" y="57.6" class="st45 st46 st47">characters</tspan><tspan x="129.1" y="57.6" class="st45 st46 st47"> </tspan><tspan x="131.9" y="57.6" class="st45 st46 st47">of</tspan><tspan x="139.3" y="57.6" class="st45 st46 st47"> </tspan><tspan x="142.1" y="57.6" class="st45 st46 st47">a</tspan><tspan x="146.5" y="57.6" class="st45 st46 st47"> </tspan><tspan x="149.3" y="57.6" class="st45 st46 st47">house,</tspan><tspan x="172.6" y="57.6" class="st45 st46 st47"> </tspan><tspan x="175.5" y="57.6" class="st45 st46 st47">and</tspan><tspan x="188.7" y="57.6" class="st45 st46 st47"> </tspan><tspan x="191.6" y="57.6" class="st45 st46 st47">represents</tspan><tspan x="229.5" y="57.6" class="st45 st46 st47"> </tspan><tspan x="232.3" y="57.6" class="st45 st46 st47">the</tspan><tspan x="243.6" y="57.6" class="st45 st46 st47"> </tspan><tspan x="246.4" y="57.6" class="st45 st46 st47">company&apos;s </tspan><tspan x="0" y="67.2" class="st45 st46 st47">commitment to innovation and excellence.</tspan><tspan x="0" y="86.4" class="st45 st46 st47 st48">	</tspan><tspan x="27.3" y="86.4" class="st45 st46 st47">The</tspan><tspan x="40.8" y="86.4" class="st45 st46 st47"> </tspan><tspan x="42.9" y="86.4" class="st45 st46 st47">logo&apos;s</tspan><tspan x="64" y="86.4" class="st45 st46 st47"> </tspan><tspan x="66.1" y="86.4" class="st45 st46 st47">use</tspan><tspan x="78.9" y="86.4" class="st45 st46 st47"> </tspan><tspan x="81" y="86.4" class="st45 st46 st47">of</tspan><tspan x="88.4" y="86.4" class="st45 st46 st47"> </tspan><tspan x="90.5" y="86.4" class="st45 st46 st47">Dark</tspan><tspan x="106.9" y="86.4" class="st45 st46 st47"> </tspan><tspan x="109" y="86.4" class="st45 st46 st47">blue</tspan><tspan x="124.1" y="86.4" class="st45 st46 st47"> </tspan><tspan x="126.3" y="86.4" class="st45 st46 st47">and</tspan><tspan x="139.5" y="86.4" class="st45 st46 st47"> </tspan><tspan x="141.7" y="86.4" class="st45 st46 st47">gold</tspan><tspan x="157.2" y="86.4" class="st45 st46 st47"> </tspan><tspan x="159.3" y="86.4" class="st45 st46 st47">convey</tspan><tspan x="184.4" y="86.4" class="st45 st46 st47"> </tspan><tspan x="186.5" y="86.4" class="st45 st46 st47">a</tspan><tspan x="190.9" y="86.4" class="st45 st46 st47"> </tspan><tspan x="193" y="86.4" class="st45 st46 st47">sense</tspan><tspan x="214.2" y="86.4" class="st45 st46 st47"> </tspan><tspan x="216.3" y="86.4" class="st45 st46 st47">of</tspan><tspan x="223.7" y="86.4" class="st45 st46 st47"> </tspan><tspan x="225.8" y="86.4" class="st45 st46 st47">professionalism, </tspan><tspan x="0" y="96" class="st45 st46 st47">luxury,</tspan><tspan x="22.8" y="96" class="st45 st46 st47"> </tspan><tspan x="25.5" y="96" class="st45 st46 st47">sophistication,</tspan><tspan x="77.4" y="96" class="st45 st46 st47"> </tspan><tspan x="80.1" y="96" class="st45 st46 st47">trust,</tspan><tspan x="98.2" y="96" class="st45 st46 st47"> </tspan><tspan x="100.9" y="96" class="st45 st46 st47">and</tspan><tspan x="114.2" y="96" class="st45 st46 st47"> </tspan><tspan x="117" y="96" class="st45 st46 st47">reliability.</tspan><tspan x="151" y="96" class="st45 st46 st47"> </tspan><tspan x="153.7" y="96" class="st45 st46 st47">It</tspan><tspan x="158.5" y="96" class="st45 st46 st47"> </tspan><tspan x="161.2" y="96" class="st45 st46 st47">can</tspan><tspan x="174.2" y="96" class="st45 st46 st47"> </tspan><tspan x="177" y="96" class="st45 st46 st47">also</tspan><tspan x="191.9" y="96" class="st45 st46 st47"> </tspan><tspan x="194.7" y="96" class="st45 st46 st47">communicate</tspan><tspan x="243.6" y="96" class="st45 st46 st47"> </tspan><tspan x="246.4" y="96" class="st45 st46 st47">a</tspan><tspan x="250.7" y="96" class="st45 st46 st47"> </tspan><tspan x="253.5" y="96" class="st45 st46 st47">sense</tspan><tspan x="274.6" y="96" class="st45 st46 st47"> </tspan><tspan x="277.4" y="96" class="st45 st46 st47">of </tspan><tspan x="0" y="105.6" class="st45 st46 st47">confidence</tspan><tspan x="39.5" y="105.6" class="st45 st46 st47 st49"> </tspan><tspan x="43.5" y="105.6" class="st45 st46 st47">and</tspan><tspan x="56.7" y="105.6" class="st45 st46 st47 st49"> </tspan><tspan x="60.7" y="105.6" class="st45 st46 st47">stability.</tspan><tspan x="90.6" y="105.6" class="st45 st46 st47 st49"> </tspan><tspan x="94.6" y="105.6" class="st45 st46 st47">In</tspan><tspan x="101.2" y="105.6" class="st45 st46 st47 st49"> </tspan><tspan x="105.2" y="105.6" class="st45 st46 st47">a</tspan><tspan x="109.5" y="105.6" class="st45 st46 st47 st49"> </tspan><tspan x="113.5" y="105.6" class="st45 st46 st47">real</tspan><tspan x="126.7" y="105.6" class="st45 st46 st47 st49"> </tspan><tspan x="130.7" y="105.6" class="st45 st46 st47">estate</tspan><tspan x="152.9" y="105.6" class="st45 st46 st47 st49"> </tspan><tspan x="156.9" y="105.6" class="st45 st46 st47">context,</tspan><tspan x="185" y="105.6" class="st45 st46 st47 st49"> </tspan><tspan x="189" y="105.6" class="st45 st46 st47">this</tspan><tspan x="202.1" y="105.6" class="st45 st46 st47 st49"> </tspan><tspan x="206.1" y="105.6" class="st45 st46 st47">can</tspan><tspan x="219" y="105.6" class="st45 st46 st47 st49"> </tspan><tspan x="223" y="105.6" class="st45 st46 st47">suggest</tspan><tspan x="251.5" y="105.6" class="st45 st46 st47 st49"> </tspan><tspan x="255.5" y="105.6" class="st45 st46 st47">that</tspan><tspan x="269.5" y="105.6" class="st45 st46 st47 st49"> </tspan><tspan x="273.4" y="105.6" class="st45 st46 st47">the </tspan><tspan x="0" y="115.2" class="st45 st46 st47">company</tspan><tspan x="32.8" y="115.2" class="st45 st46 st47"> </tspan><tspan x="35.6" y="115.2" class="st45 st46 st47">is</tspan><tspan x="41.7" y="115.2" class="st45 st46 st47"> </tspan><tspan x="44.5" y="115.2" class="st45 st46 st47">financially</tspan><tspan x="80.5" y="115.2" class="st45 st46 st47"> </tspan><tspan x="83.4" y="115.2" class="st45 st46 st47">stable,</tspan><tspan x="106.7" y="115.2" class="st45 st46 st47"> </tspan><tspan x="109.5" y="115.2" class="st45 st46 st47">has</tspan><tspan x="122.4" y="115.2" class="st45 st46 st47"> </tspan><tspan x="125.2" y="115.2" class="st45 st46 st47">a</tspan><tspan x="129.5" y="115.2" class="st45 st46 st47"> </tspan><tspan x="132.4" y="115.2" class="st45 st46 st47">strong</tspan><tspan x="155.3" y="115.2" class="st45 st46 st47"> </tspan><tspan x="158.1" y="115.2" class="st45 st46 st47">track</tspan><tspan x="176" y="115.2" class="st45 st46 st47"> </tspan><tspan x="178.8" y="115.2" class="st45 st46 st47">record,</tspan><tspan x="203.3" y="115.2" class="st45 st46 st47"> </tspan><tspan x="206.1" y="115.2" class="st45 st46 st47">and</tspan><tspan x="219.4" y="115.2" class="st45 st46 st47"> </tspan><tspan x="222.2" y="115.2" class="st45 st46 st47">can</tspan><tspan x="235.1" y="115.2" class="st45 st46 st47"> </tspan><tspan x="238" y="115.2" class="st45 st46 st47">be</tspan><tspan x="246.7" y="115.2" class="st45 st46 st47"> </tspan><tspan x="249.5" y="115.2" class="st45 st46 st47">trusted</tspan><tspan x="274.7" y="115.2" class="st45 st46 st47"> </tspan><tspan x="277.5" y="115.2" class="st45 st46 st47">to </tspan><tspan x="0" y="124.8" class="st45 st46 st47">guide clients through the complex process of buying or selling a property. </tspan><tspan x="0" y="144" class="st45 st46 st47 st48">	</tspan><tspan x="27.3" y="144" class="st45 st46 st47">Overall,</tspan><tspan x="53.5" y="144" class="st45 st46 st47 st50"> </tspan><tspan x="58.9" y="144" class="st45 st46 st47">the</tspan><tspan x="70.2" y="144" class="st45 st46 st47 st50"> </tspan><tspan x="75.6" y="144" class="st45 st46 st47">Palm</tspan><tspan x="94" y="144" class="st45 st46 st47 st50"> </tspan><tspan x="99.4" y="144" class="st45 st46 st47">Land</tspan><tspan x="117" y="144" class="st45 st46 st47 st50"> </tspan><tspan x="122.5" y="144" class="st45 st46 st47">Real</tspan><tspan x="137.9" y="144" class="st45 st46 st47 st50"> </tspan><tspan x="143.4" y="144" class="st45 st46 st47">Estate</tspan><tspan x="165.8" y="144" class="st45 st46 st47 st50"> </tspan><tspan x="171.3" y="144" class="st45 st46 st47">minimalistic</tspan><tspan x="214.7" y="144" class="st45 st46 st47 st50"> </tspan><tspan x="220.2" y="144" class="st45 st46 st47">logo</tspan><tspan x="235.7" y="144" class="st45 st46 st47 st50"> </tspan><tspan x="241.2" y="144" class="st45 st46 st47">reflects</tspan><tspan x="268" y="144" class="st45 st46 st47 st50"> </tspan><tspan x="273.4" y="144" class="st45 st46 st47">the </tspan><tspan x="0" y="153.6" class="st45 st46 st47">company&apos;s</tspan><tspan x="38.3" y="153.6" class="st45 st46 st47 st40"> </tspan><tspan x="43" y="153.6" class="st45 st46 st47">values</tspan><tspan x="66" y="153.6" class="st45 st46 st47 st40"> </tspan><tspan x="70.7" y="153.6" class="st45 st46 st47">of</tspan><tspan x="78" y="153.6" class="st45 st46 st47 st40"> </tspan><tspan x="82.8" y="153.6" class="st45 st46 st47">professionalism,</tspan><tspan x="141.6" y="153.6" class="st45 st46 st47 st40"> </tspan><tspan x="146.4" y="153.6" class="st45 st46 st47">reliability,</tspan><tspan x="179.8" y="153.6" class="st45 st46 st47 st40"> </tspan><tspan x="184.6" y="153.6" class="st45 st46 st47">and</tspan><tspan x="197.8" y="153.6" class="st45 st46 st47 st40"> </tspan><tspan x="202.6" y="153.6" class="st45 st46 st47">customer</tspan><tspan x="236.4" y="153.6" class="st45 st46 st47 st40"> </tspan><tspan x="241.1" y="153.6" class="st45 st46 st47">satisfaction, </tspan><tspan x="0" y="163.2" class="st45 st46 st47">making</tspan><tspan x="26.3" y="163.2" class="st45 st46 st47"> </tspan><tspan x="28.9" y="163.2" class="st45 st46 st47">it</tspan><tspan x="33.5" y="163.2" class="st45 st46 st47"> </tspan><tspan x="36.2" y="163.2" class="st45 st46 st47">a</tspan><tspan x="40.5" y="163.2" class="st45 st46 st47"> </tspan><tspan x="43.2" y="163.2" class="st45 st46 st47">recognizable</tspan><tspan x="88.7" y="163.2" class="st45 st46 st47"> </tspan><tspan x="91.4" y="163.2" class="st45 st46 st47">and</tspan><tspan x="104.7" y="163.2" class="st45 st46 st47"> </tspan><tspan x="107.4" y="163.2" class="st45 st46 st47">memorable</tspan><tspan x="147.9" y="163.2" class="st45 st46 st47"> </tspan><tspan x="150.6" y="163.2" class="st45 st46 st47">symbol</tspan><tspan x="176.5" y="163.2" class="st45 st46 st47"> </tspan><tspan x="179.2" y="163.2" class="st45 st46 st47">in</tspan><tspan x="185.6" y="163.2" class="st45 st46 st47"> </tspan><tspan x="188.3" y="163.2" class="st45 st46 st47">the</tspan><tspan x="199.5" y="163.2" class="st45 st46 st47"> </tspan><tspan x="202.2" y="163.2" class="st45 st46 st47">competitive</tspan><tspan x="243.9" y="163.2" class="st45 st46 st47"> </tspan><tspan x="246.6" y="163.2" class="st45 st46 st47">real</tspan><tspan x="259.8" y="163.2" class="st45 st46 st47"> </tspan><tspan x="262.5" y="163.2" class="st45 st46 st47">estate </tspan><tspan x="0" y="172.8" class="st45 st46 st47">industry.</tspan></text>
		</g>
		<text transform="matrix(1 0 0 1 48.3375 115.0398)" class="st4 st51 st52">The Introduction</text>
	</g>
	<g>
		<polyline class="st1" points="188.8,342.8 198.5,342.8 198.5,448.3 188.8,448.3 		"/>
		<line class="st1" x1="198.5" y1="366.3" x2="234.5" y2="366.3"/>
	</g>
	<g>
		<polyline class="st1" points="188.8,461.9 198.5,461.9 198.5,487 188.8,487 		"/>
		<line class="st1" x1="198.5" y1="474.4" x2="234.5" y2="474.4"/>
	</g>
	<g>
		<g>
			<text transform="matrix(1 0 0 1 238.2523 365.218)" class="st4 st51 st52">Logo Symbol</text>
		</g>
		<g>
			<rect x="238.3" y="376.1" class="st44" width="94.6" height="49.5"/>
			<text transform="matrix(1 0 0 1 238.2524 382.0977)"><tspan x="0" y="0" class="st45 st46 st47">Logo with six leaves </tspan><tspan x="0" y="9.6" class="st45 st46 st47">representing the six </tspan><tspan x="0" y="19.2" class="st45 st46 st47">partners and uses the </tspan><tspan x="0" y="28.8" class="st45 st46 st47">golden ratio for balanced </tspan><tspan x="0" y="38.4" class="st45 st46 st47">visual design elements.</tspan></text>
		</g>
	</g>
	<g>
		<g>
			<text transform="matrix(1 0 0 1 238.2523 474.4186)" class="st4 st51 st52">Logo Text</text>
		</g>
		<g>
			<rect x="238.3" y="485.3" class="st44" width="94.6" height="56.9"/>
			<text transform="matrix(1 0 0 1 238.2524 491.2979)"><tspan x="0" y="0" class="st45 st46 st47">The logo&apos;s modern and </tspan><tspan x="0" y="9.6" class="st45 st46 st47">minimalist design is </tspan><tspan x="0" y="19.2" class="st45 st46 st47">complemented by the use </tspan><tspan x="0" y="28.8" class="st45 st46 st47">of the font Lato, known for </tspan><tspan x="0" y="38.4" class="st45 st46 st47">its simplicity and </tspan><tspan x="0" y="48" class="st45 st46 st47">readability.</tspan></text>
		</g>
	</g>
	<g>
		<rect x="-8.5" y="50.4" class="st2" width="46.1" height="44.9"/>
		<line class="st1" x1="-8.5" y1="95.4" x2="333" y2="95.4"/>
	</g>
	<g>
		<g>
			<g>
				<linearGradient id="SVGID_1_" gradientUnits="userSpaceOnUse" x1="124.3773" y1="369.507" x2="185.5596" y2="418.1345">
					<stop  offset="2.770450e-07" style="stop-color:#EAB258"/>
					<stop  offset="1" style="stop-color:#FEDA85"/>
				</linearGradient>
				<path class="st3" d="M118.7,374.6l62.9,51c0,0-1.3-23.2-16-33.8S118.7,374.6,118.7,374.6z"/>
				
					<linearGradient id="SVGID_00000042725924925164615610000018109886232356136601_" gradientUnits="userSpaceOnUse" x1="120.0569" y1="368.2771" x2="179.1173" y2="366.5088">
					<stop  offset="2.770450e-07" style="stop-color:#EAB258"/>
					<stop  offset="1" style="stop-color:#FEDA85"/>
				</linearGradient>
				<path style="fill:url(#SVGID_00000042725924925164615610000018109886232356136601_);" d="M118.8,374.6l61.8-2.1
					c0,0-12.4-12.7-26.1-11.4C140.7,362.2,118.8,374.6,118.8,374.6z"/>
				
					<linearGradient id="SVGID_00000042713052821375803760000003885305479836730498_" gradientUnits="userSpaceOnUse" x1="121.1391" y1="371.8501" x2="136.3463" y2="351.515">
					<stop  offset="2.770450e-07" style="stop-color:#EAB258"/>
					<stop  offset="1" style="stop-color:#FEDA85"/>
				</linearGradient>
				<path style="fill:url(#SVGID_00000042713052821375803760000003885305479836730498_);" d="M118.8,374.6l24.1-24.5
					c0,0-9.8-0.4-14.9,5.4C122.9,361.2,118.8,374.6,118.8,374.6z"/>
				
					<linearGradient id="SVGID_00000016786881121362416430000001405055112766102684_" gradientUnits="userSpaceOnUse" x1="113.6763" y1="369.0607" x2="51.4331" y2="418.3955">
					<stop  offset="2.770450e-07" style="stop-color:#EAB258"/>
					<stop  offset="1" style="stop-color:#FEDA85"/>
				</linearGradient>
				<path style="fill:url(#SVGID_00000016786881121362416430000001405055112766102684_);" d="M118.7,374.6l-62.9,51
					c0,0,1.9-23.8,16.5-34.4S118.7,374.6,118.7,374.6z"/>
				
					<linearGradient id="SVGID_00000047044434028038389730000005604305959563046331_" gradientUnits="userSpaceOnUse" x1="118.2973" y1="368.3067" x2="57.9991" y2="366.5384">
					<stop  offset="2.770450e-07" style="stop-color:#EAB258"/>
					<stop  offset="1" style="stop-color:#FEDA85"/>
				</linearGradient>
				<path style="fill:url(#SVGID_00000047044434028038389730000005604305959563046331_);" d="M118.7,374.6L57,372.5
					c0,0,12.6-12.2,26.1-11.4C96.8,361.8,118.7,374.6,118.7,374.6z"/>
				
					<linearGradient id="SVGID_00000047751697834685285090000006959062017063149723_" gradientUnits="userSpaceOnUse" x1="119.4734" y1="371.1304" x2="97.0163" y2="348.3197">
					<stop  offset="2.770450e-07" style="stop-color:#EAB258"/>
					<stop  offset="1" style="stop-color:#FEDA85"/>
				</linearGradient>
				<path style="fill:url(#SVGID_00000047751697834685285090000006959062017063149723_);" d="M118.7,374.6l-24.7-23.7
					c0,0,10.4-1.1,15.5,4.6C114.6,361.2,118.7,374.6,118.7,374.6z"/>
			</g>
			
				<linearGradient id="SVGID_00000137120440747806740290000012137175585569276322_" gradientUnits="userSpaceOnUse" x1="118.7466" y1="416.9015" x2="118.7466" y2="444.7473">
				<stop  offset="2.770450e-07" style="stop-color:#EAB258"/>
				<stop  offset="1" style="stop-color:#FEDA85"/>
			</linearGradient>
			
				<rect x="112" y="415.3" style="fill:url(#SVGID_00000137120440747806740290000012137175585569276322_);" width="13.6" height="29.8"/>
		</g>
		<g>
			<g>
				<path class="st4" d="M70.9,463.7c0.9,0,1.7,0.1,2.3,0.3c0.7,0.2,1.2,0.5,1.6,0.9c0.4,0.4,0.7,0.8,1,1.4c0.2,0.5,0.3,1.1,0.3,1.7
					c0,0.7-0.1,1.2-0.3,1.8c-0.2,0.5-0.5,1-1,1.4c-0.4,0.4-1,0.7-1.6,0.9c-0.6,0.2-1.4,0.3-2.3,0.3h-2v4.9h-2.2v-13.6H70.9z
					 M70.9,470.6c0.5,0,0.9-0.1,1.3-0.2c0.4-0.1,0.7-0.3,0.9-0.5c0.2-0.2,0.4-0.5,0.6-0.8c0.1-0.3,0.2-0.7,0.2-1.1
					c0-0.4-0.1-0.8-0.2-1.1c-0.1-0.3-0.3-0.6-0.6-0.8c-0.2-0.2-0.6-0.4-0.9-0.5s-0.8-0.2-1.3-0.2h-2v5.2H70.9z"/>
				<path class="st4" d="M88.2,477.3h-1.7c-0.2,0-0.4,0-0.5-0.1c-0.1-0.1-0.2-0.2-0.3-0.4l-1.1-3h-5.9l-1.1,3
					c-0.1,0.1-0.1,0.2-0.3,0.4c-0.1,0.1-0.3,0.2-0.5,0.2h-1.7l5.4-13.6h2.2L88.2,477.3z M84,472.2l-1.9-5c-0.2-0.4-0.3-0.9-0.5-1.5
					c-0.1,0.3-0.1,0.6-0.2,0.8c-0.1,0.3-0.2,0.5-0.2,0.7l-1.9,5H84z"/>
				<path class="st4" d="M97.8,475.4v1.9h-7.9v-13.6h2.2v11.8H97.8z"/>
				<path class="st4" d="M113.9,463.7v13.6h-2v-9.4c0-0.2,0-0.3,0-0.5c0-0.2,0-0.4,0-0.5l-4.4,8.1c-0.2,0.3-0.4,0.5-0.8,0.5h-0.3
					c-0.4,0-0.6-0.2-0.8-0.5l-4.5-8.1c0,0.2,0,0.4,0,0.5c0,0.2,0,0.4,0,0.5v9.4h-2v-13.6h1.7c0.2,0,0.3,0,0.5,0.1
					c0.1,0,0.2,0.1,0.3,0.3l4.4,7.9c0.1,0.2,0.2,0.4,0.3,0.6c0.1,0.2,0.2,0.4,0.2,0.6c0.1-0.2,0.2-0.4,0.2-0.6
					c0.1-0.2,0.2-0.4,0.3-0.6l4.3-7.9c0.1-0.2,0.2-0.3,0.3-0.3c0.1,0,0.3-0.1,0.5-0.1H113.9z"/>
				<path class="st4" d="M129.5,475.4v1.9h-7.9v-13.6h2.2v11.8H129.5z"/>
				<path class="st4" d="M144.2,477.3h-1.7c-0.2,0-0.4,0-0.5-0.1c-0.1-0.1-0.2-0.2-0.3-0.4l-1.1-3h-5.9l-1.1,3
					c-0.1,0.1-0.1,0.2-0.3,0.4c-0.1,0.1-0.3,0.2-0.5,0.2h-1.7l5.4-13.6h2.2L144.2,477.3z M140,472.2l-1.9-5
					c-0.2-0.4-0.3-0.9-0.5-1.5c-0.1,0.3-0.1,0.6-0.2,0.8c-0.1,0.3-0.2,0.5-0.2,0.7l-1.9,5H140z"/>
				<path class="st4" d="M157.2,463.7v13.6h-1.1c-0.2,0-0.3,0-0.4-0.1c-0.1-0.1-0.2-0.2-0.3-0.3l-7.5-9.6c0,0.2,0,0.4,0,0.5
					c0,0.2,0,0.3,0,0.5v9h-2v-13.6h1.2c0.1,0,0.2,0,0.2,0s0.1,0,0.2,0.1c0.1,0,0.1,0.1,0.2,0.1s0.1,0.1,0.2,0.2l7.5,9.6
					c0-0.2,0-0.4,0-0.6c0-0.2,0-0.4,0-0.5v-8.9H157.2z"/>
				<path class="st4" d="M171.2,470.5c0,1-0.2,1.9-0.5,2.8s-0.8,1.6-1.4,2.2c-0.6,0.6-1.3,1.1-2.2,1.4c-0.8,0.3-1.8,0.5-2.8,0.5
					h-5.2v-13.6h5.2c1,0,2,0.2,2.8,0.5c0.8,0.3,1.6,0.8,2.2,1.4c0.6,0.6,1.1,1.3,1.4,2.2S171.2,469.5,171.2,470.5z M168.9,470.5
					c0-0.8-0.1-1.5-0.3-2.1c-0.2-0.6-0.5-1.2-0.9-1.6c-0.4-0.4-0.9-0.8-1.4-1c-0.6-0.2-1.2-0.3-1.9-0.3h-2.9v10.1h2.9
					c0.7,0,1.3-0.1,1.9-0.3c0.6-0.2,1-0.6,1.4-1c0.4-0.4,0.7-1,0.9-1.6C168.8,472,168.9,471.3,168.9,470.5z"/>
			</g>
			<g>
				<path class="st4" d="M93,486.8h-0.5c-0.1,0-0.2,0-0.2-0.1l-1-1.4c0,0-0.1-0.1-0.1-0.1c0,0-0.1,0-0.2,0h-0.4v1.7h-0.6v-4.1h1.2
					c0.3,0,0.5,0,0.7,0.1s0.4,0.1,0.5,0.2c0.1,0.1,0.2,0.2,0.3,0.4c0.1,0.1,0.1,0.3,0.1,0.5c0,0.1,0,0.3-0.1,0.4
					c0,0.1-0.1,0.2-0.2,0.3c-0.1,0.1-0.2,0.2-0.3,0.3c-0.1,0.1-0.3,0.1-0.4,0.2c0.1,0,0.1,0.1,0.2,0.2L93,486.8z M91.1,484.7
					c0.2,0,0.3,0,0.4-0.1c0.1,0,0.2-0.1,0.3-0.2c0.1-0.1,0.1-0.2,0.2-0.3c0-0.1,0.1-0.2,0.1-0.3c0-0.2-0.1-0.4-0.2-0.5
					c-0.2-0.1-0.4-0.2-0.7-0.2h-0.6v1.5H91.1z"/>
				<path class="st4" d="M98.4,486.3l0,0.5h-2.6v-4.1h2.6v0.5h-2v1.3H98v0.5h-1.6v1.4H98.4z"/>
				<path class="st4" d="M104.9,486.8h-0.5c-0.1,0-0.1,0-0.1,0c0,0-0.1-0.1-0.1-0.1l-0.4-1H102l-0.4,1c0,0,0,0.1-0.1,0.1
					s-0.1,0-0.1,0H101l1.7-4.1h0.6L104.9,486.8z M103.7,485.3l-0.6-1.6c0-0.1-0.1-0.2-0.1-0.4c0,0.1,0,0.2-0.1,0.2
					c0,0.1,0,0.1-0.1,0.2l-0.6,1.6H103.7z"/>
				<path class="st4" d="M110.1,486.3v0.5h-2.4v-4.1h0.6v3.6H110.1z"/>
				<path class="st4" d="M119.2,486.3l0,0.5h-2.6v-4.1h2.6v0.5h-2v1.3h1.6v0.5h-1.6v1.4H119.2z"/>
				<path class="st4" d="M124.4,483.4C124.4,483.4,124.4,483.4,124.4,483.4c-0.1,0.1-0.1,0.1-0.1,0.1c0,0-0.1,0-0.1,0
					c0,0-0.1-0.1-0.2-0.1c-0.1,0-0.1-0.1-0.2-0.1c-0.1,0-0.2,0-0.3,0c-0.1,0-0.2,0-0.3,0c-0.1,0-0.2,0.1-0.2,0.1
					c-0.1,0.1-0.1,0.1-0.1,0.2c0,0.1,0,0.2,0,0.2c0,0.1,0,0.2,0.1,0.3c0.1,0.1,0.1,0.1,0.2,0.2c0.1,0.1,0.2,0.1,0.3,0.1
					c0.1,0,0.2,0.1,0.4,0.1c0.1,0,0.2,0.1,0.4,0.1c0.1,0.1,0.2,0.1,0.3,0.2c0.1,0.1,0.2,0.2,0.2,0.3c0.1,0.1,0.1,0.3,0.1,0.4
					c0,0.2,0,0.4-0.1,0.5c-0.1,0.2-0.2,0.3-0.3,0.4c-0.1,0.1-0.3,0.2-0.4,0.3c-0.2,0.1-0.4,0.1-0.6,0.1c-0.1,0-0.3,0-0.4,0
					c-0.1,0-0.2-0.1-0.4-0.1c-0.1,0-0.2-0.1-0.3-0.2c-0.1-0.1-0.2-0.1-0.3-0.2l0.2-0.3c0,0,0,0,0.1-0.1c0,0,0.1,0,0.1,0
					c0,0,0.1,0,0.1,0.1c0.1,0,0.1,0.1,0.2,0.1c0.1,0.1,0.2,0.1,0.3,0.1c0.1,0,0.2,0.1,0.4,0.1c0.1,0,0.2,0,0.3-0.1s0.2-0.1,0.3-0.1
					c0.1-0.1,0.1-0.1,0.2-0.2c0-0.1,0.1-0.2,0.1-0.3c0-0.1,0-0.2-0.1-0.3c-0.1-0.1-0.1-0.1-0.2-0.2c-0.1-0.1-0.2-0.1-0.3-0.1
					c-0.1,0-0.2-0.1-0.4-0.1c-0.1,0-0.2-0.1-0.4-0.1c-0.1-0.1-0.2-0.1-0.3-0.2c-0.1-0.1-0.2-0.2-0.2-0.3c-0.1-0.1-0.1-0.3-0.1-0.5
					c0-0.1,0-0.3,0.1-0.4c0.1-0.1,0.1-0.3,0.3-0.4c0.1-0.1,0.2-0.2,0.4-0.3c0.2-0.1,0.3-0.1,0.6-0.1c0.2,0,0.4,0,0.6,0.1
					c0.2,0.1,0.4,0.2,0.5,0.3L124.4,483.4z"/>
				<path class="st4" d="M130.5,483.2h-1.3v3.6h-0.6v-3.6h-1.3v-0.5h3.3V483.2z"/>
				<path class="st4" d="M136.5,486.8H136c-0.1,0-0.1,0-0.1,0c0,0-0.1-0.1-0.1-0.1l-0.4-1h-1.8l-0.4,1c0,0,0,0.1-0.1,0.1
					c0,0-0.1,0-0.1,0h-0.5l1.7-4.1h0.6L136.5,486.8z M135.2,485.3l-0.6-1.6c0-0.1-0.1-0.2-0.1-0.4c0,0.1,0,0.2-0.1,0.2
					c0,0.1,0,0.1-0.1,0.2l-0.6,1.6H135.2z"/>
				<path class="st4" d="M142.1,483.2h-1.3v3.6h-0.6v-3.6h-1.3v-0.5h3.3V483.2z"/>
				<path class="st4" d="M147.6,486.3l0,0.5H145v-4.1h2.6v0.5h-2v1.3h1.6v0.5h-1.6v1.4H147.6z"/>
			</g>
		</g>
	</g>
	<g class="st14">
		<path class="st13" d="M420.9,22.9l65.2,52.9c0,0-1.4-24-16.5-35C454.4,29.8,420.9,22.9,420.9,22.9z"/>
		<path class="st13" d="M421,22.9l64-2.2c0,0-12.8-13.1-27-11.9C443.7,10.1,421,22.9,421,22.9z"/>
		<path class="st13" d="M421,22.9l25-25.4c0,0-10.2-0.4-15.4,5.6S421,22.9,421,22.9z"/>
		<path class="st13" d="M420.9,22.9l-65.2,52.9c0,0,2-24.7,17.1-35.7S420.9,22.9,420.9,22.9z"/>
		<path class="st13" d="M420.9,22.9l-64-2.2c0,0,13.1-12.7,27-11.9C398.2,9.7,420.9,22.9,420.9,22.9z"/>
		<path class="st13" d="M420.9,22.9L395.4-1.6c0,0,10.8-1.2,16,4.8S420.9,22.9,420.9,22.9z"/>
	</g>
	<g class="st14">
		<path class="st13" d="M420.9,575.4l71.7,58.1c0,0-1.5-26.4-18.2-38.5C457.8,583,420.9,575.4,420.9,575.4z"/>
		<path class="st13" d="M421,575.4l70.4-2.4c0,0-14.1-14.4-29.7-13C446,561.4,421,575.4,421,575.4z"/>
		<path class="st13" d="M421,575.4l27.4-27.9c0,0-11.2-0.4-17,6.1C425.7,560.2,421,575.4,421,575.4z"/>
		<path class="st13" d="M420.9,575.4l-71.7,58.1c0,0,2.2-27.2,18.8-39.2C384.7,582.3,420.9,575.4,420.9,575.4z"/>
		<path class="st13" d="M420.9,575.4l-70.4-2.4c0,0,14.4-13.9,29.7-13C395.9,560.8,420.9,575.4,420.9,575.4z"/>
		<path class="st13" d="M420.9,575.4l-28.1-27c0,0,11.9-1.3,17.6,5.2C416.2,560.2,420.9,575.4,420.9,575.4z"/>
	</g>
	<g>
		<line class="st60" x1="596.2" y1="103.9" x2="652.3" y2="58.4"/>
		<line class="st60" x1="708.4" y1="103.9" x2="652.3" y2="58.4"/>
		<line class="st60" x1="688.5" y1="95" x2="616.3" y2="95"/>
		<line class="st60" x1="655.9" y1="115" x2="655.9" y2="59.6"/>
		<line class="st60" x1="648.8" y1="115" x2="648.8" y2="59.6"/>
		<line class="st60" x1="691.9" y1="57" x2="652.3" y2="58.4"/>
		<line class="st60" x1="669.9" y1="40.7" x2="652.3" y2="58.4"/>
		<line class="st60" x1="633.8" y1="40.7" x2="652.3" y2="58.4"/>
		<line class="st60" x1="612.8" y1="57" x2="652.3" y2="58.4"/>
		<g class="st17">
			<g>
				<path class="st19" d="M674.4,56.2c0,5.8-4.7,10.5-10.5,10.5c-14-0.6-14-20.5,0-21.1C669.7,45.6,674.4,50.4,674.4,56.2
					L674.4,56.2z"/>
			</g>
			<g>
				<path class="st20" d="M694.3,78.1c0,15.2-12.4,27.6-27.6,27.6c-36.6-1.5-36.6-53.8,0-55.2C681.9,50.5,694.3,62.9,694.3,78.1
					L694.3,78.1z"/>
			</g>
			<g>
				<path class="st20" d="M685,86.3c0,15.2-12.4,27.6-27.6,27.6c-36.6-1.5-36.6-53.8,0-55.2C672.7,58.7,685,71,685,86.3L685,86.3z"
					/>
			</g>
			<g>
				<path class="st21" d="M722.7,95c0,24.7-20,44.8-44.8,44.8c-59.4-2.4-59.4-87.2,0-89.6C702.6,50.3,722.7,70.3,722.7,95L722.7,95z
					"/>
			</g>
			<g>
				<path class="st21" d="M694.3,103.1c0,24.7-20,44.8-44.8,44.8c-59.4-2.4-59.4-87.2,0-89.6C674.2,58.4,694.3,78.4,694.3,103.1
					L694.3,103.1z"/>
			</g>
		</g>
		<g class="st17">
			<g>
				<path class="st22" d="M630.4,56.3c0,5.8,4.7,10.4,10.4,10.4c13.8-0.5,13.8-20.3,0-20.9C635.1,45.9,630.4,50.5,630.4,56.3
					L630.4,56.3z"/>
			</g>
			<g>
				<path class="st20" d="M610.4,78.1c0,15.2,12.4,27.6,27.6,27.6c36.6-1.5,36.6-53.8,0-55.2C622.7,50.5,610.4,62.9,610.4,78.1
					L610.4,78.1z"/>
			</g>
			<g>
				<path class="st20" d="M619.6,86.3c0,15.2,12.4,27.6,27.6,27.6c36.6-1.5,36.6-53.8,0-55.2C632,58.7,619.6,71,619.6,86.3
					L619.6,86.3z"/>
			</g>
			<g>
				<path class="st21" d="M582,95c0,24.7,20,44.8,44.8,44.8c59.4-2.4,59.4-87.2,0-89.6C602,50.3,582,70.3,582,95L582,95z"/>
			</g>
			<g>
				<path class="st21" d="M610.4,103.1c0,24.7,20,44.8,44.8,44.8c59.4-2.4,59.4-87.2,0-89.6C630.4,58.4,610.4,78.4,610.4,103.1
					L610.4,103.1z"/>
			</g>
		</g>
		<g class="st16">
			<g>
				<path class="st4" d="M652.3,58.4L685,84.9c0,0-0.7-12-8.3-17.6C669.1,61.8,652.3,58.4,652.3,58.4z"/>
				<path class="st4" d="M652.4,58.4l32.1-1.1c0,0-6.4-6.6-13.6-6C663.8,52,652.4,58.4,652.4,58.4z"/>
				<path class="st4" d="M652.4,58.4l12.5-12.7c0,0-5.1-0.2-7.7,2.8C654.5,51.4,652.4,58.4,652.4,58.4z"/>
				<path class="st4" d="M652.3,58.4l-32.7,26.5c0,0,1-12.4,8.6-17.9C635.8,61.5,652.3,58.4,652.3,58.4z"/>
				<path class="st4" d="M652.3,58.4l-32.1-1.1c0,0,6.6-6.3,13.6-6C640.9,51.7,652.3,58.4,652.3,58.4z"/>
				<path class="st4" d="M652.3,58.4L639.5,46c0,0,5.4-0.6,8,2.4S652.3,58.4,652.3,58.4z"/>
			</g>
			<rect x="648.8" y="79.5" class="st4" width="7.1" height="15.5"/>
		</g>
		<line class="st60" x1="657.4" y1="44.1" x2="652.3" y2="58.4"/>
		<line class="st60" x1="647.2" y1="44.1" x2="652.3" y2="58.4"/>
	</g>
	<g>
		
			<image style="overflow:visible;opacity:0.3;" width="607" height="608" xlink:href="6D7A72AC.png"  transform="matrix(0.24 0 0 0.24 466.2803 167.9603)">
		</image>
		<g>
			<path class="st0" d="M566.4,271h-54.7c-1.5,0-2.8-1.3-2.8-2.8v-54.7c0-1.5,1.3-2.8,2.8-2.8h54.7c1.5,0,2.8,1.3,2.8,2.8v54.7
				C569.2,269.7,567.9,271,566.4,271z"/>
		</g>
	</g>
	<g>
		
			<image style="overflow:visible;opacity:0.3;" width="607" height="608" xlink:href="6D7A72AD.png"  transform="matrix(0.24 0 0 0.24 579.5603 167.9603)">
		</image>
		<g>
			<path class="st0" d="M679.7,271H625c-1.5,0-2.8-1.3-2.8-2.8v-54.7c0-1.5,1.3-2.8,2.8-2.8h54.7c1.5,0,2.8,1.3,2.8,2.8v54.7
				C682.5,269.7,681.2,271,679.7,271z"/>
		</g>
	</g>
	<g>
		
			<image style="overflow:visible;opacity:0.3;" width="607" height="608" xlink:href="6D7A72AB.png"  transform="matrix(0.24 0 0 0.24 690.6803 167.9603)">
		</image>
		<g>
			<path class="st0" d="M790.7,271H736c-1.5,0-2.8-1.3-2.8-2.8v-54.7c0-1.5,1.3-2.8,2.8-2.8h54.7c1.5,0,2.8,1.3,2.8,2.8v54.7
				C793.6,269.7,792.3,271,790.7,271z"/>
		</g>
	</g>
	<text transform="matrix(1 0 0 1 508.8348 188.9052)" class="st4 st51 st52">Logo Variations</text>
	<text transform="matrix(1 0 0 1 508.8348 374.3376)" class="st4 st51 st52">Typeface</text>
	<path class="st2" d="M547.6,493.1h-35.4v-7.5c0-0.9,0.8-1.7,1.7-1.7h32c0.9,0,1.7,0.8,1.7,1.7V493.1z"/>
	<g>
		<path class="st2" d="M547.4,493.4v8.2h-34.9v-8.2H547.4 M547.6,493.1h-35.4v8.7h35.4V493.1L547.6,493.1z"/>
	</g>
	<path class="st4" d="M609.1,493.1h-35.4v-7.5c0-0.9,0.8-1.7,1.7-1.7h32c0.9,0,1.7,0.8,1.7,1.7V493.1z"/>
	<g>
		<path class="st4" d="M608.9,493.4v8.2H574v-8.2H608.9 M609.1,493.1h-35.4v8.7h35.4V493.1L609.1,493.1z"/>
	</g>
	<path class="st24" d="M670.6,493.1h-35.4v-7.5c0-0.9,0.8-1.7,1.7-1.7h32c0.9,0,1.7,0.8,1.7,1.7V493.1z"/>
	<g>
		<path class="st24" d="M670.4,493.4v8.2h-34.9v-8.2H670.4 M670.6,493.1h-35.4v8.7h35.4V493.1L670.6,493.1z"/>
	</g>
	<path class="st25" d="M732.1,493.1h-35.4v-7.5c0-0.9,0.8-1.7,1.7-1.7h32c0.9,0,1.7,0.8,1.7,1.7V493.1z"/>
	<g>
		<path class="st25" d="M731.8,493.4v8.2h-34.9v-8.2H731.8 M732.1,493.1h-35.4v8.7h35.4V493.1L732.1,493.1z"/>
	</g>
	<path class="st26" d="M793.6,493.1h-35.4v-7.5c0-0.9,0.8-1.7,1.7-1.7h32c0.9,0,1.7,0.8,1.7,1.7V493.1z"/>
	<g>
		<path class="st26" d="M793.3,493.4v8.2h-34.9v-8.2H793.3 M793.6,493.1h-35.4v8.7h35.4V493.1L793.6,493.1z"/>
	</g>
	<path class="st0" d="M547.6,534.2h-35.4v-7.5c0-0.9,0.8-1.7,1.7-1.7h32c0.9,0,1.7,0.8,1.7,1.7V534.2z"/>
	<g>
		<path class="st0" d="M547.4,534.5v8.2h-34.9v-8.2H547.4 M547.6,534.2h-35.4v8.7h35.4V534.2L547.6,534.2z"/>
	</g>
	<path class="st27" d="M609.1,534.2h-35.4v-7.5c0-0.9,0.8-1.7,1.7-1.7h32c0.9,0,1.7,0.8,1.7,1.7V534.2z"/>
	<g>
		<path class="st27" d="M608.9,534.5v8.2H574v-8.2H608.9 M609.1,534.2h-35.4v8.7h35.4V534.2L609.1,534.2z"/>
	</g>
	<path class="st28" d="M670.6,534.2h-35.4v-7.5c0-0.9,0.8-1.7,1.7-1.7h32c0.9,0,1.7,0.8,1.7,1.7V534.2z"/>
	<g>
		<path class="st28" d="M670.4,534.5v8.2h-34.9v-8.2H670.4 M670.6,534.2h-35.4v8.7h35.4V534.2L670.6,534.2z"/>
	</g>
	<path class="st29" d="M732.1,534.2h-35.4v-7.5c0-0.9,0.8-1.7,1.7-1.7h32c0.9,0,1.7,0.8,1.7,1.7V534.2z"/>
	<g>
		<path class="st29" d="M731.8,534.5v8.2h-34.9v-8.2H731.8 M732.1,534.2h-35.4v8.7h35.4V534.2L732.1,534.2z"/>
	</g>
	<path class="st15" d="M793.6,534.2h-35.4v-7.5c0-0.9,0.8-1.7,1.7-1.7h32c0.9,0,1.7,0.8,1.7,1.7V534.2z"/>
	<g>
		<path class="st15" d="M793.3,534.5v8.2h-34.9v-8.2H793.3 M793.6,534.2h-35.4v8.7h35.4V534.2L793.6,534.2z"/>
	</g>
	<text transform="matrix(1 0 0 1 508.8348 456.507)" class="st4 st51 st52">Colors</text>
	<g>
		<g>
			<g>
				
					<linearGradient id="SVGID_00000142146181111986927220000001742011424150962858_" gradientUnits="userSpaceOnUse" x1="540.6326" y1="226.6608" x2="558.2734" y2="240.6817" gradientTransform="matrix(1 0 0 1 113.3101 0)">
					<stop  offset="2.770450e-07" style="stop-color:#EAB258"/>
					<stop  offset="1" style="stop-color:#FEDA85"/>
				</linearGradient>
				<path style="fill:url(#SVGID_00000142146181111986927220000001742011424150962858_);" d="M652.3,228.1l18.1,14.7
					c0,0-0.4-6.7-4.6-9.7C661.6,230,652.3,228.1,652.3,228.1z"/>
				
					<linearGradient id="SVGID_00000006671657477142482870000017785894273041870752_" gradientUnits="userSpaceOnUse" x1="539.3868" y1="226.3061" x2="556.4159" y2="225.7963" gradientTransform="matrix(1 0 0 1 113.3101 0)">
					<stop  offset="2.770450e-07" style="stop-color:#EAB258"/>
					<stop  offset="1" style="stop-color:#FEDA85"/>
				</linearGradient>
				<path style="fill:url(#SVGID_00000006671657477142482870000017785894273041870752_);" d="M652.3,228.1l17.8-0.6
					c0,0-3.6-3.7-7.5-3.3C658.7,224.6,652.3,228.1,652.3,228.1z"/>
				
					<linearGradient id="SVGID_00000057112965402683769580000006602038973351685797_" gradientUnits="userSpaceOnUse" x1="539.6989" y1="227.3364" x2="544.0836" y2="221.4731" gradientTransform="matrix(1 0 0 1 113.3101 0)">
					<stop  offset="2.770450e-07" style="stop-color:#EAB258"/>
					<stop  offset="1" style="stop-color:#FEDA85"/>
				</linearGradient>
				<path style="fill:url(#SVGID_00000057112965402683769580000006602038973351685797_);" d="M652.3,228.1l6.9-7.1
					c0,0-2.8-0.1-4.3,1.5S652.3,228.1,652.3,228.1z"/>
				
					<linearGradient id="SVGID_00000073706655310710608570000004858975302671259289_" gradientUnits="userSpaceOnUse" x1="537.5471" y1="226.5321" x2="519.6003" y2="240.7569" gradientTransform="matrix(1 0 0 1 113.3101 0)">
					<stop  offset="2.770450e-07" style="stop-color:#EAB258"/>
					<stop  offset="1" style="stop-color:#FEDA85"/>
				</linearGradient>
				<path style="fill:url(#SVGID_00000073706655310710608570000004858975302671259289_);" d="M652.3,228.1l-18.1,14.7
					c0,0,0.5-6.9,4.8-9.9S652.3,228.1,652.3,228.1z"/>
				
					<linearGradient id="SVGID_00000050653547163479531120000004371813739435506618_" gradientUnits="userSpaceOnUse" x1="538.8795" y1="226.3147" x2="521.4935" y2="225.8048" gradientTransform="matrix(1 0 0 1 113.3101 0)">
					<stop  offset="2.770450e-07" style="stop-color:#EAB258"/>
					<stop  offset="1" style="stop-color:#FEDA85"/>
				</linearGradient>
				<path style="fill:url(#SVGID_00000050653547163479531120000004371813739435506618_);" d="M652.3,228.1l-17.8-0.6
					c0,0,3.6-3.5,7.5-3.3C646,224.4,652.3,228.1,652.3,228.1z"/>
				
					<linearGradient id="SVGID_00000160173488459116147010000008661684930774634383_" gradientUnits="userSpaceOnUse" x1="539.2186" y1="227.1289" x2="532.7435" y2="220.5518" gradientTransform="matrix(1 0 0 1 113.3101 0)">
					<stop  offset="2.770450e-07" style="stop-color:#EAB258"/>
					<stop  offset="1" style="stop-color:#FEDA85"/>
				</linearGradient>
				<path style="fill:url(#SVGID_00000160173488459116147010000008661684930774634383_);" d="M652.3,228.1l-7.1-6.8
					c0,0,3-0.3,4.5,1.3S652.3,228.1,652.3,228.1z"/>
			</g>
			
				<linearGradient id="SVGID_00000026126265789742672850000014283670882066902459_" gradientUnits="userSpaceOnUse" x1="539.009" y1="240.3262" x2="539.009" y2="248.355" gradientTransform="matrix(1 0 0 1 113.3101 0)">
				<stop  offset="2.770450e-07" style="stop-color:#EAB258"/>
				<stop  offset="1" style="stop-color:#FEDA85"/>
			</linearGradient>
			
				<rect x="650.4" y="239.9" style="fill:url(#SVGID_00000026126265789742672850000014283670882066902459_);" width="3.9" height="8.6"/>
		</g>
		<g>
			<g>
				<path class="st4" d="M638.5,253.8c0.3,0,0.5,0,0.7,0.1c0.2,0.1,0.3,0.1,0.5,0.3c0.1,0.1,0.2,0.2,0.3,0.4
					c0.1,0.2,0.1,0.3,0.1,0.5c0,0.2,0,0.4-0.1,0.5c-0.1,0.2-0.2,0.3-0.3,0.4c-0.1,0.1-0.3,0.2-0.5,0.3c-0.2,0.1-0.4,0.1-0.7,0.1
					h-0.6v1.4h-0.6v-3.9H638.5z M638.5,255.8c0.1,0,0.3,0,0.4-0.1c0.1,0,0.2-0.1,0.3-0.2c0.1-0.1,0.1-0.1,0.2-0.2
					c0-0.1,0.1-0.2,0.1-0.3c0-0.1,0-0.2-0.1-0.3c0-0.1-0.1-0.2-0.2-0.2c-0.1-0.1-0.2-0.1-0.3-0.1c-0.1,0-0.2-0.1-0.4-0.1h-0.6v1.5
					H638.5z"/>
				<path class="st4" d="M643.5,257.7H643c-0.1,0-0.1,0-0.1,0c0,0-0.1-0.1-0.1-0.1l-0.3-0.9h-1.7l-0.3,0.9c0,0,0,0.1-0.1,0.1
					c0,0-0.1,0-0.1,0h-0.5l1.6-3.9h0.6L643.5,257.7z M642.3,256.3l-0.5-1.4c0-0.1-0.1-0.3-0.1-0.4c0,0.1,0,0.2-0.1,0.2
					c0,0.1,0,0.1-0.1,0.2l-0.5,1.4H642.3z"/>
				<path class="st4" d="M646.3,257.2v0.5H644v-3.9h0.6v3.4H646.3z"/>
				<path class="st4" d="M650.9,253.8v3.9h-0.6V255c0,0,0-0.1,0-0.1c0-0.1,0-0.1,0-0.2l-1.3,2.3c0,0.1-0.1,0.1-0.2,0.1h-0.1
					c-0.1,0-0.2,0-0.2-0.1l-1.3-2.3c0,0.1,0,0.1,0,0.2c0,0.1,0,0.1,0,0.1v2.7h-0.6v-3.9h0.5c0.1,0,0.1,0,0.1,0s0.1,0,0.1,0.1
					l1.3,2.3c0,0.1,0.1,0.1,0.1,0.2c0,0.1,0,0.1,0.1,0.2c0-0.1,0-0.1,0.1-0.2c0-0.1,0.1-0.1,0.1-0.2l1.2-2.3c0-0.1,0.1-0.1,0.1-0.1
					c0,0,0.1,0,0.1,0H650.9z"/>
				<path class="st4" d="M655.4,257.2v0.5h-2.3v-3.9h0.6v3.4H655.4z"/>
				<path class="st4" d="M659.7,257.7h-0.5c-0.1,0-0.1,0-0.1,0c0,0-0.1-0.1-0.1-0.1l-0.3-0.9h-1.7l-0.3,0.9c0,0,0,0.1-0.1,0.1
					c0,0-0.1,0-0.1,0h-0.5l1.6-3.9h0.6L659.7,257.7z M658.5,256.3l-0.5-1.4c0-0.1-0.1-0.3-0.1-0.4c0,0.1,0,0.2-0.1,0.2
					c0,0.1,0,0.1-0.1,0.2l-0.5,1.4H658.5z"/>
				<path class="st4" d="M663.4,253.8v3.9h-0.3c0,0-0.1,0-0.1,0c0,0-0.1,0-0.1-0.1l-2.2-2.8c0,0.1,0,0.1,0,0.2c0,0.1,0,0.1,0,0.1
					v2.6h-0.6v-3.9h0.3c0,0,0.1,0,0.1,0c0,0,0,0,0.1,0c0,0,0,0,0,0c0,0,0,0,0,0.1l2.2,2.8c0-0.1,0-0.1,0-0.2c0-0.1,0-0.1,0-0.2v-2.6
					H663.4z"/>
				<path class="st4" d="M667.4,255.8c0,0.3,0,0.6-0.1,0.8c-0.1,0.2-0.2,0.4-0.4,0.6c-0.2,0.2-0.4,0.3-0.6,0.4
					c-0.2,0.1-0.5,0.1-0.8,0.1H664v-3.9h1.5c0.3,0,0.6,0,0.8,0.1c0.2,0.1,0.4,0.2,0.6,0.4s0.3,0.4,0.4,0.6
					C667.4,255.2,667.4,255.5,667.4,255.8z M666.8,255.8c0-0.2,0-0.4-0.1-0.6s-0.1-0.3-0.3-0.5c-0.1-0.1-0.3-0.2-0.4-0.3
					c-0.2-0.1-0.3-0.1-0.5-0.1h-0.8v2.9h0.8c0.2,0,0.4,0,0.5-0.1c0.2-0.1,0.3-0.2,0.4-0.3c0.1-0.1,0.2-0.3,0.3-0.5
					S666.8,256,666.8,255.8z"/>
			</g>
			<g>
				<path class="st4" d="M644.9,260.5h-0.2c0,0-0.1,0-0.1,0l-0.3-0.4c0,0,0,0,0,0c0,0,0,0,0,0h-0.1v0.5H644v-1.2h0.3
					c0.1,0,0.1,0,0.2,0c0.1,0,0.1,0,0.1,0.1c0,0,0.1,0.1,0.1,0.1c0,0,0,0.1,0,0.1c0,0,0,0.1,0,0.1c0,0,0,0.1-0.1,0.1
					c0,0-0.1,0.1-0.1,0.1c0,0-0.1,0-0.1,0c0,0,0,0,0.1,0.1L644.9,260.5z M644.3,259.9c0,0,0.1,0,0.1,0c0,0,0.1,0,0.1,0
					c0,0,0,0,0.1-0.1s0-0.1,0-0.1c0-0.1,0-0.1-0.1-0.2c0,0-0.1-0.1-0.2-0.1h-0.2v0.4H644.3z"/>
				<path class="st4" d="M646.5,260.4l0,0.1h-0.7v-1.2h0.7v0.1h-0.6v0.4h0.5v0.1h-0.5v0.4H646.5z"/>
				<path class="st4" d="M648.3,260.5h-0.1c0,0,0,0,0,0c0,0,0,0,0,0l-0.1-0.3h-0.5l-0.1,0.3c0,0,0,0,0,0c0,0,0,0,0,0h-0.1l0.5-1.2
					h0.2L648.3,260.5z M648,260l-0.2-0.5c0,0,0-0.1,0-0.1c0,0,0,0,0,0.1c0,0,0,0,0,0.1l-0.2,0.5H648z"/>
				<path class="st4" d="M649.8,260.3v0.1h-0.7v-1.2h0.2v1H649.8z"/>
				<path class="st4" d="M652.4,260.4l0,0.1h-0.7v-1.2h0.7v0.1h-0.6v0.4h0.5v0.1h-0.5v0.4H652.4z"/>
				<path class="st4" d="M654,259.5C653.9,259.5,653.9,259.5,654,259.5C653.9,259.5,653.9,259.5,654,259.5
					C653.9,259.5,653.9,259.5,654,259.5c-0.1,0-0.1,0-0.1,0c0,0,0,0-0.1,0c0,0-0.1,0-0.1,0c0,0-0.1,0-0.1,0c0,0,0,0-0.1,0
					c0,0,0,0,0,0.1c0,0,0,0,0,0.1c0,0,0,0.1,0,0.1c0,0,0,0,0.1,0.1c0,0,0.1,0,0.1,0c0,0,0.1,0,0.1,0c0,0,0.1,0,0.1,0
					c0,0,0.1,0,0.1,0.1c0,0,0,0.1,0.1,0.1c0,0,0,0.1,0,0.1c0,0.1,0,0.1,0,0.1c0,0,0,0.1-0.1,0.1c0,0-0.1,0.1-0.1,0.1
					c-0.1,0-0.1,0-0.2,0c0,0-0.1,0-0.1,0c0,0-0.1,0-0.1,0c0,0-0.1,0-0.1,0c0,0-0.1,0-0.1-0.1l0.1-0.1c0,0,0,0,0,0c0,0,0,0,0,0
					c0,0,0,0,0,0c0,0,0,0,0.1,0c0,0,0,0,0.1,0c0,0,0.1,0,0.1,0c0,0,0.1,0,0.1,0c0,0,0.1,0,0.1,0c0,0,0,0,0-0.1c0,0,0-0.1,0-0.1
					c0,0,0-0.1,0-0.1c0,0,0,0-0.1-0.1s-0.1,0-0.1,0c0,0-0.1,0-0.1,0c0,0-0.1,0-0.1,0s-0.1,0-0.1-0.1c0,0,0-0.1-0.1-0.1
					c0,0,0-0.1,0-0.1c0,0,0-0.1,0-0.1c0,0,0-0.1,0.1-0.1c0,0,0.1-0.1,0.1-0.1c0,0,0.1,0,0.2,0c0.1,0,0.1,0,0.2,0
					C653.9,259.3,654,259.4,654,259.5L654,259.5z"/>
				<path class="st4" d="M655.7,259.4h-0.4v1h-0.2v-1h-0.4v-0.1h0.9V259.4z"/>
				<path class="st4" d="M657.4,260.5h-0.1c0,0,0,0,0,0c0,0,0,0,0,0l-0.1-0.3h-0.5l-0.1,0.3c0,0,0,0,0,0c0,0,0,0,0,0h-0.1l0.5-1.2
					h0.2L657.4,260.5z M657.1,260l-0.2-0.5c0,0,0-0.1,0-0.1c0,0,0,0,0,0.1c0,0,0,0,0,0.1l-0.2,0.5H657.1z"/>
				<path class="st4" d="M659.1,259.4h-0.4v1h-0.2v-1h-0.4v-0.1h0.9V259.4z"/>
				<path class="st4" d="M660.6,260.4l0,0.1h-0.7v-1.2h0.7v0.1h-0.6v0.4h0.5v0.1h-0.5v0.4H660.6z"/>
			</g>
		</g>
	</g>
	<g>
		<g>
			<g>
				<path class="st2" d="M539,228.1l18.1,14.7c0,0-0.4-6.7-4.6-9.7C548.3,230,539,228.1,539,228.1z"/>
				<path class="st2" d="M539,228.1l17.8-0.6c0,0-3.6-3.7-7.5-3.3C545.3,224.6,539,228.1,539,228.1z"/>
				<path class="st2" d="M539,228.1l6.9-7.1c0,0-2.8-0.1-4.3,1.5S539,228.1,539,228.1z"/>
				<path class="st2" d="M539,228.1l-18.1,14.7c0,0,0.5-6.9,4.8-9.9C529.8,229.9,539,228.1,539,228.1z"/>
				<path class="st2" d="M539,228.1l-17.8-0.6c0,0,3.6-3.5,7.5-3.3C532.7,224.4,539,228.1,539,228.1z"/>
				<path class="st2" d="M539,228.1l-7.1-6.8c0,0,3-0.3,4.5,1.3S539,228.1,539,228.1z"/>
			</g>
			<rect x="537.1" y="239.9" class="st2" width="3.9" height="8.6"/>
		</g>
		<g>
			<g>
				<path class="st2" d="M525.2,253.8c0.3,0,0.5,0,0.7,0.1c0.2,0.1,0.3,0.1,0.5,0.3c0.1,0.1,0.2,0.2,0.3,0.4
					c0.1,0.2,0.1,0.3,0.1,0.5c0,0.2,0,0.4-0.1,0.5c-0.1,0.2-0.2,0.3-0.3,0.4c-0.1,0.1-0.3,0.2-0.5,0.3c-0.2,0.1-0.4,0.1-0.7,0.1
					h-0.6v1.4H524v-3.9H525.2z M525.2,255.8c0.1,0,0.3,0,0.4-0.1c0.1,0,0.2-0.1,0.3-0.2c0.1-0.1,0.1-0.1,0.2-0.2
					c0-0.1,0.1-0.2,0.1-0.3c0-0.1,0-0.2-0.1-0.3c0-0.1-0.1-0.2-0.2-0.2c-0.1-0.1-0.2-0.1-0.3-0.1c-0.1,0-0.2-0.1-0.4-0.1h-0.6v1.5
					H525.2z"/>
				<path class="st2" d="M530.2,257.7h-0.5c-0.1,0-0.1,0-0.1,0c0,0-0.1-0.1-0.1-0.1l-0.3-0.9h-1.7l-0.3,0.9c0,0,0,0.1-0.1,0.1
					c0,0-0.1,0-0.1,0h-0.5l1.6-3.9h0.6L530.2,257.7z M529,256.3l-0.5-1.4c0-0.1-0.1-0.3-0.1-0.4c0,0.1,0,0.2-0.1,0.2
					c0,0.1,0,0.1-0.1,0.2l-0.5,1.4H529z"/>
				<path class="st2" d="M533,257.2v0.5h-2.3v-3.9h0.6v3.4H533z"/>
				<path class="st2" d="M537.6,253.8v3.9h-0.6V255c0,0,0-0.1,0-0.1c0-0.1,0-0.1,0-0.2l-1.3,2.3c0,0.1-0.1,0.1-0.2,0.1h-0.1
					c-0.1,0-0.2,0-0.2-0.1l-1.3-2.3c0,0.1,0,0.1,0,0.2c0,0.1,0,0.1,0,0.1v2.7h-0.6v-3.9h0.5c0.1,0,0.1,0,0.1,0s0.1,0,0.1,0.1
					l1.3,2.3c0,0.1,0.1,0.1,0.1,0.2c0,0.1,0,0.1,0.1,0.2c0-0.1,0-0.1,0.1-0.2c0-0.1,0.1-0.1,0.1-0.2l1.2-2.3c0-0.1,0.1-0.1,0.1-0.1
					c0,0,0.1,0,0.1,0H537.6z"/>
				<path class="st2" d="M542.1,257.2v0.5h-2.3v-3.9h0.6v3.4H542.1z"/>
				<path class="st2" d="M546.4,257.7h-0.5c-0.1,0-0.1,0-0.1,0c0,0-0.1-0.1-0.1-0.1l-0.3-0.9h-1.7l-0.3,0.9c0,0,0,0.1-0.1,0.1
					c0,0-0.1,0-0.1,0h-0.5l1.6-3.9h0.6L546.4,257.7z M545.1,256.3l-0.5-1.4c0-0.1-0.1-0.3-0.1-0.4c0,0.1,0,0.2-0.1,0.2
					c0,0.1,0,0.1-0.1,0.2l-0.5,1.4H545.1z"/>
				<path class="st2" d="M550.1,253.8v3.9h-0.3c0,0-0.1,0-0.1,0c0,0-0.1,0-0.1-0.1l-2.2-2.8c0,0.1,0,0.1,0,0.2c0,0.1,0,0.1,0,0.1
					v2.6h-0.6v-3.9h0.3c0,0,0.1,0,0.1,0c0,0,0,0,0.1,0c0,0,0,0,0,0c0,0,0,0,0,0.1l2.2,2.8c0-0.1,0-0.1,0-0.2c0-0.1,0-0.1,0-0.2v-2.6
					H550.1z"/>
				<path class="st2" d="M554.1,255.8c0,0.3,0,0.6-0.1,0.8s-0.2,0.4-0.4,0.6c-0.2,0.2-0.4,0.3-0.6,0.4c-0.2,0.1-0.5,0.1-0.8,0.1
					h-1.5v-3.9h1.5c0.3,0,0.6,0,0.8,0.1c0.2,0.1,0.4,0.2,0.6,0.4c0.2,0.2,0.3,0.4,0.4,0.6S554.1,255.5,554.1,255.8z M553.5,255.8
					c0-0.2,0-0.4-0.1-0.6s-0.1-0.3-0.3-0.5c-0.1-0.1-0.3-0.2-0.4-0.3c-0.2-0.1-0.3-0.1-0.5-0.1h-0.8v2.9h0.8c0.2,0,0.4,0,0.5-0.1
					c0.2-0.1,0.3-0.2,0.4-0.3c0.1-0.1,0.2-0.3,0.3-0.5S553.5,256,553.5,255.8z"/>
			</g>
			<g>
				<path class="st2" d="M531.6,260.5h-0.2c0,0-0.1,0-0.1,0l-0.3-0.4c0,0,0,0,0,0c0,0,0,0,0,0h-0.1v0.5h-0.2v-1.2h0.3
					c0.1,0,0.1,0,0.2,0c0.1,0,0.1,0,0.1,0.1c0,0,0.1,0.1,0.1,0.1c0,0,0,0.1,0,0.1c0,0,0,0.1,0,0.1c0,0,0,0.1-0.1,0.1
					c0,0-0.1,0.1-0.1,0.1c0,0-0.1,0-0.1,0c0,0,0,0,0.1,0.1L531.6,260.5z M531,259.9c0,0,0.1,0,0.1,0c0,0,0.1,0,0.1,0
					c0,0,0,0,0.1-0.1c0,0,0-0.1,0-0.1c0-0.1,0-0.1-0.1-0.2c0,0-0.1-0.1-0.2-0.1h-0.2v0.4H531z"/>
				<path class="st2" d="M533.1,260.4l0,0.1h-0.7v-1.2h0.7v0.1h-0.6v0.4h0.5v0.1h-0.5v0.4H533.1z"/>
				<path class="st2" d="M535,260.5h-0.1c0,0,0,0,0,0c0,0,0,0,0,0l-0.1-0.3h-0.5l-0.1,0.3c0,0,0,0,0,0c0,0,0,0,0,0h-0.1l0.5-1.2h0.2
					L535,260.5z M534.7,260l-0.2-0.5c0,0,0-0.1,0-0.1c0,0,0,0,0,0.1c0,0,0,0,0,0.1l-0.2,0.5H534.7z"/>
				<path class="st2" d="M536.5,260.3v0.1h-0.7v-1.2h0.2v1H536.5z"/>
				<path class="st2" d="M539.1,260.4l0,0.1h-0.7v-1.2h0.7v0.1h-0.6v0.4h0.5v0.1h-0.5v0.4H539.1z"/>
				<path class="st2" d="M540.6,259.5C540.6,259.5,540.6,259.5,540.6,259.5C540.6,259.5,540.6,259.5,540.6,259.5
					C540.6,259.5,540.6,259.5,540.6,259.5c-0.1,0-0.1,0-0.1,0c0,0,0,0-0.1,0c0,0-0.1,0-0.1,0c0,0-0.1,0-0.1,0c0,0,0,0-0.1,0
					c0,0,0,0,0,0.1c0,0,0,0,0,0.1c0,0,0,0.1,0,0.1c0,0,0,0,0.1,0.1c0,0,0.1,0,0.1,0c0,0,0.1,0,0.1,0c0,0,0.1,0,0.1,0
					c0,0,0.1,0,0.1,0.1c0,0,0,0.1,0.1,0.1c0,0,0,0.1,0,0.1c0,0.1,0,0.1,0,0.1c0,0,0,0.1-0.1,0.1c0,0-0.1,0.1-0.1,0.1
					c-0.1,0-0.1,0-0.2,0c0,0-0.1,0-0.1,0c0,0-0.1,0-0.1,0c0,0-0.1,0-0.1,0c0,0-0.1,0-0.1-0.1l0.1-0.1c0,0,0,0,0,0c0,0,0,0,0,0
					c0,0,0,0,0,0c0,0,0,0,0.1,0c0,0,0,0,0.1,0c0,0,0.1,0,0.1,0c0,0,0.1,0,0.1,0c0,0,0.1,0,0.1,0c0,0,0,0,0-0.1c0,0,0-0.1,0-0.1
					c0,0,0-0.1,0-0.1c0,0,0,0-0.1-0.1c0,0-0.1,0-0.1,0c0,0-0.1,0-0.1,0c0,0-0.1,0-0.1,0s-0.1,0-0.1-0.1c0,0,0-0.1-0.1-0.1
					c0,0,0-0.1,0-0.1c0,0,0-0.1,0-0.1c0,0,0-0.1,0.1-0.1c0,0,0.1-0.1,0.1-0.1c0,0,0.1,0,0.2,0c0.1,0,0.1,0,0.2,0
					C540.6,259.3,540.6,259.4,540.6,259.5L540.6,259.5z"/>
				<path class="st2" d="M542.4,259.4H542v1h-0.2v-1h-0.4v-0.1h0.9V259.4z"/>
				<path class="st2" d="M544.1,260.5H544c0,0,0,0,0,0c0,0,0,0,0,0l-0.1-0.3h-0.5l-0.1,0.3c0,0,0,0,0,0c0,0,0,0,0,0H543l0.5-1.2h0.2
					L544.1,260.5z M543.8,260l-0.2-0.5c0,0,0-0.1,0-0.1c0,0,0,0,0,0.1c0,0,0,0,0,0.1l-0.2,0.5H543.8z"/>
				<path class="st2" d="M545.7,259.4h-0.4v1h-0.2v-1h-0.4v-0.1h0.9V259.4z"/>
				<path class="st2" d="M547.3,260.4l0,0.1h-0.7v-1.2h0.7v0.1h-0.6v0.4h0.5v0.1h-0.5v0.4H547.3z"/>
			</g>
		</g>
	</g>
	<g>
		<g>
			<g>
				<path class="st15" d="M763.4,228.1l18.1,14.7c0,0-0.4-6.7-4.6-9.7C772.7,230,763.4,228.1,763.4,228.1z"/>
				<path class="st15" d="M763.4,228.1l17.8-0.6c0,0-3.6-3.7-7.5-3.3C769.7,224.6,763.4,228.1,763.4,228.1z"/>
				<path class="st15" d="M763.4,228.1l6.9-7.1c0,0-2.8-0.1-4.3,1.5S763.4,228.1,763.4,228.1z"/>
				<path class="st15" d="M763.4,228.1l-18.1,14.7c0,0,0.5-6.9,4.8-9.9C754.2,229.9,763.4,228.1,763.4,228.1z"/>
				<path class="st15" d="M763.4,228.1l-17.8-0.6c0,0,3.6-3.5,7.5-3.3C757.1,224.4,763.4,228.1,763.4,228.1z"/>
				<path class="st15" d="M763.4,228.1l-7.1-6.8c0,0,3-0.3,4.5,1.3S763.4,228.1,763.4,228.1z"/>
			</g>
			<rect x="761.4" y="239.9" class="st15" width="3.9" height="8.6"/>
		</g>
		<g>
			<g>
				<path class="st15" d="M749.6,253.8c0.3,0,0.5,0,0.7,0.1c0.2,0.1,0.3,0.1,0.5,0.3c0.1,0.1,0.2,0.2,0.3,0.4
					c0.1,0.2,0.1,0.3,0.1,0.5c0,0.2,0,0.4-0.1,0.5c-0.1,0.2-0.2,0.3-0.3,0.4c-0.1,0.1-0.3,0.2-0.5,0.3c-0.2,0.1-0.4,0.1-0.7,0.1H749
					v1.4h-0.6v-3.9H749.6z M749.6,255.8c0.1,0,0.3,0,0.4-0.1c0.1,0,0.2-0.1,0.3-0.2c0.1-0.1,0.1-0.1,0.2-0.2c0-0.1,0.1-0.2,0.1-0.3
					c0-0.1,0-0.2-0.1-0.3c0-0.1-0.1-0.2-0.2-0.2c-0.1-0.1-0.2-0.1-0.3-0.1c-0.1,0-0.2-0.1-0.4-0.1H749v1.5H749.6z"/>
				<path class="st15" d="M754.6,257.7h-0.5c-0.1,0-0.1,0-0.1,0c0,0-0.1-0.1-0.1-0.1l-0.3-0.9h-1.7l-0.3,0.9c0,0,0,0.1-0.1,0.1
					c0,0-0.1,0-0.1,0h-0.5l1.6-3.9h0.6L754.6,257.7z M753.4,256.3l-0.5-1.4c0-0.1-0.1-0.3-0.1-0.4c0,0.1,0,0.2-0.1,0.2
					c0,0.1,0,0.1-0.1,0.2l-0.5,1.4H753.4z"/>
				<path class="st15" d="M757.3,257.2v0.5h-2.3v-3.9h0.6v3.4H757.3z"/>
				<path class="st15" d="M762,253.8v3.9h-0.6V255c0,0,0-0.1,0-0.1c0-0.1,0-0.1,0-0.2l-1.3,2.3c0,0.1-0.1,0.1-0.2,0.1h-0.1
					c-0.1,0-0.2,0-0.2-0.1l-1.3-2.3c0,0.1,0,0.1,0,0.2c0,0.1,0,0.1,0,0.1v2.7h-0.6v-3.9h0.5c0.1,0,0.1,0,0.1,0s0.1,0,0.1,0.1
					l1.3,2.3c0,0.1,0.1,0.1,0.1,0.2c0,0.1,0,0.1,0.1,0.2c0-0.1,0-0.1,0.1-0.2c0-0.1,0.1-0.1,0.1-0.2l1.2-2.3c0-0.1,0.1-0.1,0.1-0.1
					c0,0,0.1,0,0.1,0H762z"/>
				<path class="st15" d="M766.5,257.2v0.5h-2.3v-3.9h0.6v3.4H766.5z"/>
				<path class="st15" d="M770.7,257.7h-0.5c-0.1,0-0.1,0-0.1,0c0,0-0.1-0.1-0.1-0.1l-0.3-0.9H768l-0.3,0.9c0,0,0,0.1-0.1,0.1
					c0,0-0.1,0-0.1,0H767l1.6-3.9h0.6L770.7,257.7z M769.5,256.3l-0.5-1.4c0-0.1-0.1-0.3-0.1-0.4c0,0.1,0,0.2-0.1,0.2
					c0,0.1,0,0.1-0.1,0.2l-0.5,1.4H769.5z"/>
				<path class="st15" d="M774.5,253.8v3.9h-0.3c0,0-0.1,0-0.1,0c0,0-0.1,0-0.1-0.1l-2.2-2.8c0,0.1,0,0.1,0,0.2c0,0.1,0,0.1,0,0.1
					v2.6h-0.6v-3.9h0.3c0,0,0.1,0,0.1,0c0,0,0,0,0.1,0c0,0,0,0,0,0c0,0,0,0,0,0.1l2.2,2.8c0-0.1,0-0.1,0-0.2c0-0.1,0-0.1,0-0.2v-2.6
					H774.5z"/>
				<path class="st15" d="M778.5,255.8c0,0.3,0,0.6-0.1,0.8s-0.2,0.4-0.4,0.6c-0.2,0.2-0.4,0.3-0.6,0.4c-0.2,0.1-0.5,0.1-0.8,0.1
					H775v-3.9h1.5c0.3,0,0.6,0,0.8,0.1c0.2,0.1,0.4,0.2,0.6,0.4c0.2,0.2,0.3,0.4,0.4,0.6S778.5,255.5,778.5,255.8z M777.8,255.8
					c0-0.2,0-0.4-0.1-0.6s-0.1-0.3-0.3-0.5c-0.1-0.1-0.3-0.2-0.4-0.3c-0.2-0.1-0.3-0.1-0.5-0.1h-0.8v2.9h0.8c0.2,0,0.4,0,0.5-0.1
					c0.2-0.1,0.3-0.2,0.4-0.3c0.1-0.1,0.2-0.3,0.3-0.5S777.8,256,777.8,255.8z"/>
			</g>
			<g>
				<path class="st15" d="M756,260.5h-0.2c0,0-0.1,0-0.1,0l-0.3-0.4c0,0,0,0,0,0c0,0,0,0,0,0h-0.1v0.5h-0.2v-1.2h0.3
					c0.1,0,0.1,0,0.2,0c0.1,0,0.1,0,0.1,0.1c0,0,0.1,0.1,0.1,0.1c0,0,0,0.1,0,0.1c0,0,0,0.1,0,0.1c0,0,0,0.1-0.1,0.1
					c0,0-0.1,0.1-0.1,0.1c0,0-0.1,0-0.1,0c0,0,0,0,0.1,0.1L756,260.5z M755.4,259.9c0,0,0.1,0,0.1,0c0,0,0.1,0,0.1,0
					c0,0,0,0,0.1-0.1c0,0,0-0.1,0-0.1c0-0.1,0-0.1-0.1-0.2c0,0-0.1-0.1-0.2-0.1h-0.2v0.4H755.4z"/>
				<path class="st15" d="M757.5,260.4l0,0.1h-0.7v-1.2h0.7v0.1H757v0.4h0.5v0.1H757v0.4H757.5z"/>
				<path class="st15" d="M759.4,260.5h-0.1c0,0,0,0,0,0c0,0,0,0,0,0l-0.1-0.3h-0.5l-0.1,0.3c0,0,0,0,0,0c0,0,0,0,0,0h-0.1l0.5-1.2
					h0.2L759.4,260.5z M759,260l-0.2-0.5c0,0,0-0.1,0-0.1c0,0,0,0,0,0.1c0,0,0,0,0,0.1l-0.2,0.5H759z"/>
				<path class="st15" d="M760.9,260.3v0.1h-0.7v-1.2h0.2v1H760.9z"/>
				<path class="st15" d="M763.5,260.4l0,0.1h-0.7v-1.2h0.7v0.1h-0.6v0.4h0.5v0.1h-0.5v0.4H763.5z"/>
				<path class="st15" d="M765,259.5C765,259.5,765,259.5,765,259.5C765,259.5,765,259.5,765,259.5C765,259.5,764.9,259.5,765,259.5
					c-0.1,0-0.1,0-0.1,0c0,0,0,0-0.1,0c0,0-0.1,0-0.1,0c0,0-0.1,0-0.1,0c0,0,0,0-0.1,0c0,0,0,0,0,0.1c0,0,0,0,0,0.1c0,0,0,0.1,0,0.1
					c0,0,0,0,0.1,0.1c0,0,0.1,0,0.1,0c0,0,0.1,0,0.1,0c0,0,0.1,0,0.1,0c0,0,0.1,0,0.1,0.1c0,0,0,0.1,0.1,0.1c0,0,0,0.1,0,0.1
					c0,0.1,0,0.1,0,0.1c0,0,0,0.1-0.1,0.1c0,0-0.1,0.1-0.1,0.1c-0.1,0-0.1,0-0.2,0c0,0-0.1,0-0.1,0c0,0-0.1,0-0.1,0c0,0-0.1,0-0.1,0
					c0,0-0.1,0-0.1-0.1l0.1-0.1c0,0,0,0,0,0c0,0,0,0,0,0c0,0,0,0,0,0c0,0,0,0,0.1,0c0,0,0,0,0.1,0c0,0,0.1,0,0.1,0c0,0,0.1,0,0.1,0
					c0,0,0.1,0,0.1,0c0,0,0,0,0-0.1c0,0,0-0.1,0-0.1c0,0,0-0.1,0-0.1c0,0,0,0-0.1-0.1c0,0-0.1,0-0.1,0c0,0-0.1,0-0.1,0
					c0,0-0.1,0-0.1,0s-0.1,0-0.1-0.1c0,0,0-0.1-0.1-0.1c0,0,0-0.1,0-0.1c0,0,0-0.1,0-0.1c0,0,0-0.1,0.1-0.1c0,0,0.1-0.1,0.1-0.1
					c0,0,0.1,0,0.2,0c0.1,0,0.1,0,0.2,0C765,259.3,765,259.4,765,259.5L765,259.5z"/>
				<path class="st15" d="M766.8,259.4h-0.4v1h-0.2v-1h-0.4v-0.1h0.9V259.4z"/>
				<path class="st15" d="M768.5,260.5h-0.1c0,0,0,0,0,0c0,0,0,0,0,0l-0.1-0.3h-0.5l-0.1,0.3c0,0,0,0,0,0c0,0,0,0,0,0h-0.1l0.5-1.2
					h0.2L768.5,260.5z M768.1,260l-0.2-0.5c0,0,0-0.1,0-0.1c0,0,0,0,0,0.1c0,0,0,0,0,0.1l-0.2,0.5H768.1z"/>
				<path class="st15" d="M770.1,259.4h-0.4v1h-0.2v-1h-0.4v-0.1h0.9V259.4z"/>
				<path class="st15" d="M771.7,260.4l0,0.1H771v-1.2h0.7v0.1h-0.6v0.4h0.5v0.1h-0.5v0.4H771.7z"/>
			</g>
		</g>
	</g>
	<text transform="matrix(1 0 0 1 508.8347 402.5107)" class="st15 st38 st42">Lato Heavy</text>
	<text transform="matrix(1 0 0 1 622.145 402.5107)" class="st15 st41 st42">Lato Medium</text>
	<text transform="matrix(1 0 0 1 733.2048 402.5107)" class="st15 st68 st42">Lato Light</text>
	<text transform="matrix(1 0 0 1 733.2044 422.9362)" class="st15 st51 st42">Roboto Heavy</text>
	<text transform="matrix(1 0 0 1 622.145 422.9362)" class="st15 st69 st42">Roboto Medium</text>
	<text transform="matrix(1 0 0 1 508.835 422.9362)" class="st15 st70 st42">Roboto Light</text>
	<text transform="matrix(1 0 0 1 518.545 499.4143)" class="st2 st46 st71">#EAB258</text>
	<text transform="matrix(1 0 0 1 512.2415 479.6271)" class="st15 st46 st71">Primary</text>
	<text transform="matrix(1 0 0 1 512.2415 518.4356)" class="st15 st46 st71">Secondary</text>
	<text transform="matrix(1 0 0 1 580.0206 499.4143)" class="st4 st46 st71">#FEDA85</text>
	<text transform="matrix(1 0 0 1 641.4962 499.4143)" class="st24 st46 st71">#F2D19B</text>
	<text transform="matrix(1 0 0 1 702.9727 499.4143)" class="st25 st46 st71">#F7E0BC</text>
	<text transform="matrix(1 0 0 1 764.4493 499.4143)" class="st26 st46 st71">#FBF0DE</text>
	<g>
		<text transform="matrix(1 0 0 1 518.545 540.5975)" class="st0 st46 st71">#09212B</text>
	</g>
	<text transform="matrix(1 0 0 1 580.0206 540.5975)" class="st27 st46 st71">#39545D</text>
	<text transform="matrix(1 0 0 1 641.4962 540.5975)" class="st28 st46 st71">#68878F</text>
	<text transform="matrix(1 0 0 1 702.9727 540.5975)" class="st29 st46 st71">#98B9C0</text>
	<text transform="matrix(1 0 0 1 764.4493 540.5975)" class="st15 st46 st71">#C7ECF2</text>
	<circle class="st0" cx="514.3" cy="486" r="1.1"/>
	<circle class="st0" cx="575.8" cy="486" r="1.1"/>
	<circle class="st2" cx="514.3" cy="527" r="1.1"/>
</g>
</svg>
