<svg xmlns="http://www.w3.org/2000/svg" width="36.2" height="39.501" viewBox="0 0 36.2 39.501">
  <g id="yellow_palm_land_logo" transform="translate(-350.6 -746.999)">
    <g id="Group_379" data-name="Group 379">
      <g id="Group_375" data-name="Group 375">
        <g id="Group_374" data-name="Group 374">
          <path id="Path_873" data-name="Path 873" d="M368.7,754.1l18.1,14.7s-.4-6.7-4.6-9.7S368.7,754.1,368.7,754.1Z" fill="#eab258"/>
          <path id="Path_874" data-name="Path 874" d="M368.7,754.1l17.8-.6s-3.6-3.7-7.5-3.3C375.1,750.5,368.7,754.1,368.7,754.1Z" fill="#eab258"/>
          <path id="Path_875" data-name="Path 875" d="M368.7,754.1l6.9-7.1s-2.8-.1-4.3,1.5S368.7,754.1,368.7,754.1Z" fill="#eab258"/>
          <path id="Path_876" data-name="Path 876" d="M368.7,754.1l-18.1,14.7s.5-6.9,4.8-9.9S368.7,754.1,368.7,754.1Z" fill="#eab258"/>
          <path id="Path_877" data-name="Path 877" d="M368.7,754.1l-17.8-.6s3.6-3.5,7.5-3.3C362.4,750.4,368.7,754.1,368.7,754.1Z" fill="#eab258"/>
          <path id="Path_878" data-name="Path 878" d="M368.7,754.1l-7.1-6.8s3-.3,4.5,1.3S368.7,754.1,368.7,754.1Z" fill="#eab258"/>
        </g>
        <rect id="Rectangle_92" data-name="Rectangle 92" width="3.9" height="8.6" transform="translate(366.8 765.8)" fill="#eab258"/>
      </g>
      <g id="Group_378" data-name="Group 378">
        <g id="Group_376" data-name="Group 376">
          <path id="Path_879" data-name="Path 879" d="M354.9,779.7a1.483,1.483,0,0,1,.7.1,1.332,1.332,0,0,1,.5.3,1.38,1.38,0,0,1,.3.4.9.9,0,0,1,.1.5.749.749,0,0,1-.1.5,1.382,1.382,0,0,1-.3.4,2.186,2.186,0,0,1-.5.3,1.483,1.483,0,0,1-.7.1h-.6v1.4h-.6v-3.9h1.2Zm0,2a.6.6,0,0,0,.4-.1c.1,0,.2-.1.3-.2l.2-.2c0-.1.1-.2.1-.3a.367.367,0,0,0-.1-.3.215.215,0,0,0-.2-.2.367.367,0,0,0-.3-.1c-.1,0-.2-.1-.4-.1h-.6v1.5h.6Z" fill="#eab258"/>
          <path id="Path_880" data-name="Path 880" d="M359.9,783.7h-.6l-.1-.1-.3-.9h-1.7l-.3.9a.1.1,0,0,1-.1.1h-.6l1.6-3.9h.6Zm-1.2-1.5-.5-1.4c0-.1-.1-.3-.1-.4,0,.1,0,.2-.1.2,0,.1,0,.1-.1.2l-.5,1.4Z" fill="#eab258"/>
          <path id="Path_881" data-name="Path 881" d="M362.7,783.1v.5h-2.3v-3.9h.6v3.4Z" fill="#eab258"/>
          <path id="Path_882" data-name="Path 882" d="M367.4,779.7v3.9h-.6v-2.9l-1.3,2.3c0,.1-.1.1-.2.1h-.1c-.1,0-.2,0-.2-.1l-1.3-2.3v3h-.6v-3.9h.6a.1.1,0,0,1,.1.1l1.3,2.3c0,.1.1.1.1.2s0,.1.1.2c0-.1,0-.1.1-.2,0-.1.1-.1.1-.2l1.2-2.3a.1.1,0,0,1,.1-.1h.6Z" fill="#eab258"/>
          <path id="Path_883" data-name="Path 883" d="M371.8,783.1v.5h-2.3v-3.9h.6v3.4Z" fill="#eab258"/>
          <path id="Path_884" data-name="Path 884" d="M376.1,783.7h-.6l-.1-.1-.3-.9h-1.7l-.3.9a.1.1,0,0,1-.1.1h-.6l1.6-3.9h.6Zm-1.2-1.5-.5-1.4c0-.1-.1-.3-.1-.4,0,.1,0,.2-.1.2,0,.1,0,.1-.1.2l-.5,1.4Z" fill="#eab258"/>
          <path id="Path_885" data-name="Path 885" d="M379.8,779.7v3.9h-.4a.1.1,0,0,1-.1-.1l-2.2-2.8v2.9h-.6v-3.9h.5v.1l2.2,2.8v-3h.6Z" fill="#eab258"/>
          <path id="Path_886" data-name="Path 886" d="M383.9,781.7a1.949,1.949,0,0,1-.1.8,1.839,1.839,0,0,1-1,1,1.95,1.95,0,0,1-.8.1h-1.5v-3.9H382a1.95,1.95,0,0,1,.8.1,1.839,1.839,0,0,1,1,1C383.8,781.1,383.9,781.4,383.9,781.7Zm-.7,0a1.268,1.268,0,0,0-.1-.6,1.332,1.332,0,0,0-.3-.5c-.1-.1-.3-.2-.4-.3a.9.9,0,0,0-.5-.1H381v2.9h.8a.75.75,0,0,0,.5-.1,1.38,1.38,0,0,0,.4-.3,2.184,2.184,0,0,0,.3-.5C383.2,782.1,383.2,781.9,383.2,781.7Z" fill="#eab258"/>
        </g>
        <g id="Group_377" data-name="Group 377">
          <path id="Path_887" data-name="Path 887" d="M361.3,786.4H361l-.3-.4h-.1v.5h-.2v-1.2h.5c.1,0,.1,0,.1.1l.1.1v.2a.1.1,0,0,1-.1.1l-.1.1h-.1l.1.1Zm-.5-.6h.2l.1-.1v-.1c0-.1,0-.1-.1-.2a.349.349,0,0,0-.2-.1h-.2v.4h.2Z" fill="#eab258"/>
          <path id="Path_888" data-name="Path 888" d="M362.9,786.3v.1h-.7v-1.2h.7v.1h-.6v.4h.5v.1h-.5v.4h.6Z" fill="#eab258"/>
          <path id="Path_889" data-name="Path 889" d="M364.8,786.4h-.1l-.1-.3h-.5l-.1.3h-.1l.5-1.2h.2Zm-.4-.4-.2-.5v.1l-.2.4Z" fill="#eab258"/>
          <path id="Path_890" data-name="Path 890" d="M366.3,786.3v.1h-.7v-1.2h.2v1h.5Z" fill="#eab258"/>
          <path id="Path_891" data-name="Path 891" d="M368.9,786.3v.1h-.7v-1.2h.7v.1h-.6v.4h.5v.1h-.5v.4h.6Z" fill="#eab258"/>
          <path id="Path_892" data-name="Path 892" d="M370.4,785.4h0c-.1,0-.1.1,0,0-.1.1-.1,0,0,0h-.5v.3l.1.1h.3a.1.1,0,0,1,.1.1.1.1,0,0,0,.1.1v.2a.1.1,0,0,1-.1.1l-.1.1h-.5a.1.1,0,0,1-.1-.1l.1-.1h.5v-.3l-.1-.1h-.3a.1.1,0,0,1-.1-.1.1.1,0,0,0-.1-.1v-.2a.1.1,0,0,1,.1-.1l.1-.1h.4c0,.1.1.1.1.2Z" fill="#eab258"/>
          <path id="Path_893" data-name="Path 893" d="M372.1,785.4h-.4v1h-.2v-1h-.4v-.1h.9v.1Z" fill="#eab258"/>
          <path id="Path_894" data-name="Path 894" d="M373.8,786.4h-.1l-.1-.3H373l-.1.3h-.1l.5-1.2h.2Zm-.3-.4-.2-.5v.1l-.2.5h.4Z" fill="#eab258"/>
          <path id="Path_895" data-name="Path 895" d="M375.5,785.4h-.4v1h-.2v-1h-.4v-.1h.9v.1Z" fill="#eab258"/>
          <path id="Path_896" data-name="Path 896" d="M377.1,786.3v.1h-.7v-1.2h.7v.1h-.6v.4h.5v.1h-.5v.4h.6Z" fill="#eab258"/>
        </g>
      </g>
    </g>
  </g>
</svg>
