<svg xmlns="http://www.w3.org/2000/svg" viewBox="0 0 60.35 60.35"><defs><style>.cls-1{fill:#09212b;}.cls-2{fill:#eab258;}</style></defs><g id="Layer_2" data-name="Layer 2"><g id="PRINT_1" data-name="PRINT 1"><rect class="cls-1" width="60.35" height="60.35" rx="2.81"/><path class="cls-2" d="M30.17,17.51,48.31,32.22s-.38-6.69-4.6-9.74S30.17,17.51,30.17,17.51Z"/><path class="cls-2" d="M30.18,17.51,48,16.9s-3.57-3.66-7.52-3.3S30.18,17.51,30.18,17.51Z"/><path class="cls-2" d="M30.18,17.51l7-7s-2.84-.11-4.3,1.54S30.18,17.51,30.18,17.51Z"/><path class="cls-2" d="M30.17,17.51,12,32.22s.55-6.88,4.77-9.93S30.17,17.51,30.17,17.51Z"/><path class="cls-2" d="M30.16,17.51l-17.8-.61s3.63-3.52,7.52-3.3S30.16,17.51,30.16,17.51Z"/><path class="cls-2" d="M30.16,17.51l-7.1-6.83s3-.33,4.45,1.32S30.16,17.51,30.16,17.51Z"/><rect class="cls-2" x="28.22" y="29.24" width="3.92" height="8.6"/><path class="cls-2" d="M16.38,43.19a2.22,2.22,0,0,1,.67.09,1.5,1.5,0,0,1,.47.25,1.05,1.05,0,0,1,.27.39,1.4,1.4,0,0,1,.09.51,1.36,1.36,0,0,1-.09.51,1.18,1.18,0,0,1-.29.41,1.25,1.25,0,0,1-.47.26,2.08,2.08,0,0,1-.65.09H15.8v1.43h-.64V43.19Zm0,2a1.12,1.12,0,0,0,.38-.06A.7.7,0,0,0,17,45a.78.78,0,0,0,.16-.24.83.83,0,0,0,.06-.32.75.75,0,0,0-.06-.31.53.53,0,0,0-.16-.23.7.7,0,0,0-.27-.15,1.4,1.4,0,0,0-.38-.05H15.8V45.2Z"/><path class="cls-2" d="M21.37,47.13h-.49a.25.25,0,0,1-.22-.15l-.33-.87H18.64l-.33.87a.26.26,0,0,1-.21.15h-.5l1.56-3.94h.65Zm-1.21-1.48-.54-1.44c0-.11-.09-.25-.14-.42l-.06.24c0,.07-.05.13-.07.19l-.54,1.43Z"/><path class="cls-2" d="M24.12,46.59v.54H21.85V43.19h.64v3.4Z"/><path class="cls-2" d="M28.79,43.19v3.94h-.57v-2.7s0-.09,0-.14,0-.11,0-.16L27,46.46a.25.25,0,0,1-.23.15h-.09a.24.24,0,0,1-.23-.15l-1.28-2.34c0,.06,0,.11,0,.16v2.85H24.6V43.19h.48l.13,0a.15.15,0,0,1,.08.09l1.27,2.28a1.3,1.3,0,0,0,.08.17l.06.17.07-.18.08-.16,1.24-2.28a.19.19,0,0,1,.09-.09l.13,0Z"/><path class="cls-2" d="M33.28,46.59v.54H31V43.19h.64v3.4Z"/><path class="cls-2" d="M37.52,47.13H37a.22.22,0,0,1-.14-.05.27.27,0,0,1-.08-.1l-.33-.87H34.79l-.33.87a.26.26,0,0,1-.21.15h-.5l1.56-3.94H36Zm-1.21-1.48-.54-1.44a3.6,3.6,0,0,1-.13-.42c0,.08,0,.16-.07.24l-.06.19L35,45.65Z"/><path class="cls-2" d="M41.26,43.19v3.94h-.33a.21.21,0,0,1-.12,0,.28.28,0,0,1-.1-.09l-2.16-2.77s0,.1,0,.15v2.74H38V43.19h.4l.06,0,0,0,0,.06,2.16,2.78c0-.06,0-.12,0-.17V43.19Z"/><path class="cls-2" d="M45.29,45.16a2.07,2.07,0,0,1-.14.8,1.75,1.75,0,0,1-1,1,2.09,2.09,0,0,1-.81.15H41.84V43.19h1.48a2.29,2.29,0,0,1,.81.14,1.77,1.77,0,0,1,.62.41,1.74,1.74,0,0,1,.4.62A2.07,2.07,0,0,1,45.29,45.16Zm-.65,0a1.91,1.91,0,0,0-.09-.61,1.38,1.38,0,0,0-.26-.46,1.19,1.19,0,0,0-.42-.28,1.35,1.35,0,0,0-.55-.1h-.84v2.9h.84a1.35,1.35,0,0,0,.55-.1,1.19,1.19,0,0,0,.42-.28,1.38,1.38,0,0,0,.26-.46A1.91,1.91,0,0,0,44.64,45.16Z"/><path class="cls-2" d="M22.75,49.88h-.16a.08.08,0,0,1-.07,0l-.29-.41s0,0,0,0H22v.49h-.17v-1.2h.34a.6.6,0,0,1,.2,0,.59.59,0,0,1,.14.06.44.44,0,0,1,.08.11.32.32,0,0,1,0,.14.49.49,0,0,1,0,.12.7.7,0,0,1-.06.09l-.09.08-.12,0,.06,0Zm-.56-.62.12,0a.19.19,0,0,0,.09,0,.22.22,0,0,0,.05-.08.13.13,0,0,0,0-.09.16.16,0,0,0-.07-.15.28.28,0,0,0-.2-.06H22v.44Z"/><path class="cls-2" d="M24.31,49.74v.14h-.74v-1.2h.74v.15h-.56v.38h.45v.14h-.45v.39Z"/><path class="cls-2" d="M26.18,49.88H26l0,0-.11-.28h-.53l-.1.28,0,0h-.18l.48-1.2h.18Zm-.35-.45L25.66,49a.34.34,0,0,1,0-.12s0,0,0,.07,0,0,0,0l-.18.46Z"/><path class="cls-2" d="M27.68,49.73v.15H27v-1.2h.18v1Z"/><path class="cls-2" d="M30.3,49.74v.14h-.74v-1.2h.74v.15h-.56v.38h.45v.14h-.45v.39Z"/><path class="cls-2" d="M31.81,48.88l0,0h0l0,0-.05,0-.07,0h-.18l-.07,0a.1.1,0,0,0,0,.05.2.2,0,0,0,0,.07s0,.06,0,.08l.07.06.09,0,.1,0,.1,0,.09.06a.24.24,0,0,1,.09.21.61.61,0,0,1,0,.15.36.36,0,0,1-.08.12.35.35,0,0,1-.13.08.47.47,0,0,1-.17,0h-.11l-.1,0a.19.19,0,0,1-.09-.05l-.08-.06.05-.09,0,0h0a0,0,0,0,1,0,0l.06,0,.08,0,.11,0,.1,0a.2.2,0,0,0,.08,0,.16.16,0,0,0,0-.07.19.19,0,0,0,0-.08.14.14,0,0,0,0-.09.1.1,0,0,0-.06-.05l-.09,0-.11,0-.1,0-.09-.06a.24.24,0,0,1-.06-.09.29.29,0,0,1,0-.14.27.27,0,0,1,0-.12.26.26,0,0,1,.07-.11.35.35,0,0,1,.12-.07.38.38,0,0,1,.16,0,.52.52,0,0,1,.18,0,.38.38,0,0,1,.15.09Z"/><path class="cls-2" d="M33.57,48.83h-.38v1.05H33V48.83h-.38v-.15h.93Z"/><path class="cls-2" d="M35.28,49.88h-.17l0,0L35,49.56h-.53l-.1.28,0,0h-.18l.48-1.2h.18Zm-.35-.45L34.75,49a1,1,0,0,1,0-.12.19.19,0,0,0,0,.07l0,0-.18.46Z"/><path class="cls-2" d="M36.91,48.83h-.38v1.05h-.17V48.83H36v-.15h.94Z"/><path class="cls-2" d="M38.49,49.74v.14h-.74v-1.2h.74v.15h-.56v.38h.45v.14h-.45v.39Z"/></g></g></svg>

